<?xml version="1.0" encoding="UTF-8" standalone="no" ?>
<!DOCTYPE svg PUBLIC "-//W3C//DTD SVG 1.1//EN" "http://www.w3.org/Graphics/SVG/1.1/DTD/svg11.dtd">
<svg xmlns="http://www.w3.org/2000/svg" xmlns:xlink="http://www.w3.org/1999/xlink" version="1.1" width="1280" height="1024" viewBox="0 0 1280 1024" xml:space="preserve">
<desc>Created with Fabric.js 5.3.0</desc>
<defs>
</defs>
<g transform="matrix(1 0 0 1 640 512)" id="background-logo"  >
<rect style="stroke: none; stroke-width: 0; stroke-dasharray: none; stroke-linecap: butt; stroke-dashoffset: 0; stroke-linejoin: miter; stroke-miterlimit: 4; fill: rgb(255,255,255); fill-opacity: 0; fill-rule: nonzero; opacity: 1;"  paint-order="stroke"  x="-640" y="-512" rx="0" ry="0" width="1280" height="1024" />
</g>
<g transform="matrix(-1.3281088847542675 0 0 1.3281088847542675 825.3162102901947 347.492666283419)" id="shape-bcf6591d-3987-466c-906f-839967d2b6c1"  >
<g style=""  paint-order="stroke"   >
		<g transform="matrix(1 0 0 1 2.842171e-14 0)" id="path-06"  >
<path style="stroke: none; stroke-width: 1; stroke-dasharray: none; stroke-linecap: butt; stroke-dashoffset: 0; stroke-linejoin: miter; stroke-miterlimit: 4; fill: rgb(100,0,74); fill-rule: nonzero; opacity: 1;"  paint-order="stroke"  transform=" translate(-150.00000288149323, -149.99999870669305)" d="M 279.90253 125.96471 C 283.77771 123.77514 286.76743 119.47155 286.18836 115.29126 C 289.26526 108.94349 291.43246999999997 102.26192999999999 292.67620999999997 95.43696 C 293.80933 94.86992 294.87406 94.01791 295.76809999999995 92.83859 C 300.0080899999999 87.69529 299.99297999999993 77.8065 294.2441099999999 74.18213 C 296.00454999999994 73.43517 297.5537999999999 72.2143 298.62182999999993 70.46568 C 302.6701999999999 63.703680000000006 297.17608999999993 55.67147000000001 290.23162999999994 53.980410000000006 C 291.54162999999994 52.56096000000001 292.39120999999994 50.72093000000001 292.50524999999993 48.453430000000004 C 292.00875999999994 43.073440000000005 287.1413299999999 40.441860000000005 282.05395999999996 40.0996 C 281.80960999999996 39.712230000000005 281.58106 39.31718 281.32919999999996 38.933370000000004 C 284.84101 32.572770000000006 283.46972999999997 22.220670000000002 275.40515999999997 20.834300000000002 C 273.05960999999996 20.77278 271.14764999999994 21.62665 269.64221999999995 23.005350000000004 C 268.68125 17.151990000000005 261.40118999999993 13.792620000000003 255.50935999999996 14.122840000000004 C 254.40648999999996 8.536860000000004 247.71400999999994 3.988910000000004 242.24855999999997 3.7684900000000034 C 242.05627999999996 3.7544700000000035 241.87427999999997 3.7650500000000036 241.68646999999996 3.7624000000000035 C 237.48250999999996 -1.6002599999999965 227.62001999999995 0.0680500000000035 223.08337999999995 4.517900000000004 C 223.08061999999995 4.520410000000004 223.07850999999994 4.523320000000004 223.07562999999996 4.525970000000004 C 222.72204999999997 4.4991800000000035 222.36859999999996 4.471460000000004 222.01489999999995 4.449570000000004 C 220.69574999999995 2.357310000000004 218.50380999999996 0.7576700000000041 215.39856999999995 0.21953000000000422 C 210.58937999999995 -0.7817199999999958 205.67331999999996 1.7488500000000042 202.99379999999996 5.633390000000004 C 197.60632999999996 6.653030000000004 192.31264999999996 8.267090000000003 187.20306999999997 10.451100000000004 C 185.21963999999997 10.788530000000003 183.37698999999998 11.590140000000003 182.06645999999998 12.866970000000004 C 175.21242999999998 16.424460000000003 168.78007999999997 21.078780000000002 163.04199999999997 26.851170000000003 C 140.02603999999997 50.00477000000001 134.05215999999996 85.30459 148.12518999999998 114.80014 C 148.13780999999997 114.83824 148.15147999999996 114.87528 148.16621999999998 114.91338 C 150.69442999999998 121.25003000000001 143.63161 130.55446 135.50827999999998 136.96519 C 130.48970999999997 140.92573000000002 130.53285 145.81025 132.24672999999999 149.0606 C 132.57974 149.69035 133.02213999999998 150.28727999999998 133.51334999999997 150.86213 L 2.5899 282.56851 C -0.86313 286.0422 -0.86313 291.69406 2.58885 295.16669 L 4.804589999999999 297.39566 C 8.25656 300.86829 13.87483 300.86829 17.32786 297.39462000000003 L 157.98278 155.89856000000003 C 161.003 157.14999000000003 164.72169 158.24068000000003 169.78074999999998 155.62378000000004 C 177.96090999999998 151.39122000000003 182.34821 150.57837000000004 187.23737 152.43164000000004 C 187.27419 152.44539000000003 187.32154 152.45915000000005 187.37099 152.47504000000004 C 216.30191000000002 164.79061000000004 249.31188 158.32906000000003 271.5251 135.98302000000004 C 274.65091 132.8385 277.43021 129.47821 279.90253 125.96471 z" stroke-linecap="round" />
</g>
		<g transform="matrix(1 0 0 1 -71.33015610449513 73.91637888797598)" id="path-05_00000138550828419423691870000016957400130541714098_"  >
<path style="stroke: none; stroke-width: 1; stroke-dasharray: none; stroke-linecap: butt; stroke-dashoffset: 0; stroke-linejoin: miter; stroke-miterlimit: 4; fill: rgb(255,255,255); fill-rule: nonzero; opacity: 1;"  paint-order="stroke"  transform=" translate(-78.66984677699809, -223.91637759466903)" d="M 9.13508 293.03928 L 6.91934 290.81031 C 5.8546 289.73920000000004 5.85566 287.99601 6.92039 286.92490000000004 L 138.66197 154.39551000000003 C 141.46611 155.43830000000003 144.86021 155.66797000000003 148.48816 154.49764000000002 C 149.50095 154.17125000000001 150.39064 154.02533000000003 151.21838 153.99067000000002 L 12.99738 293.03824 C 11.93264 294.10934 10.19982 294.11038 9.13508 293.03928 z" stroke-linecap="round" />
</g>
		<g transform="matrix(1 0 0 1 61.86575157426867 -67.58355812021628)" id="path-04_00000183226101879585058400000011609757825987877017_"  >
<path style="stroke: none; stroke-width: 1; stroke-dasharray: none; stroke-linecap: butt; stroke-dashoffset: 0; stroke-linejoin: miter; stroke-miterlimit: 4; fill: rgb(255,159,181); fill-rule: nonzero; opacity: 1;"  paint-order="stroke"  transform=" translate(-211.86575445576187, -82.41644058647678)" d="M 271.48856 126.87785 C 268.25672000000003 125.46356 266.52259 121.76523 268.14704 117.83167999999999 C 270.07188 112.78415999999999 276.6381 108.04834 281.91154 109.92039 C 283.91871 105.29941 285.4214 100.51013999999999 286.40486 95.6317 C 284.73964 94.88525999999999 283.30899999999997 93.46409 282.42222 91.42044999999999 C 276.58445 93.90253999999999 269.31739 91.24924999999999 268.33839 83.35965999999999 C 267.9232 80.31953999999999 268.88905 77.31102999999999 270.6374 74.87537999999999 C 268.96427 73.39282999999999 267.76145 71.19372999999999 267.43412 68.24965999999999 C 267.13648 65.75831 267.76829 63.27582999999999 268.98295 61.111929999999994 C 262.83665 63.24262999999999 255.20806000000002 60.01449999999999 253.63700000000003 52.55275999999999 C 253.31847000000002 51.192449999999994 253.29374000000004 49.81228999999999 253.49273000000002 48.47142999999999 C 250.05351000000002 47.169729999999994 247.17533000000003 44.30978999999999 246.27932 40.05514999999999 C 246.17963 39.62913999999999 246.11349 39.20114999999999 246.06733000000003 38.77262999999999 C 239.73797000000002 43.63320999999999 229.44320000000002 40.71452999999999 227.58833000000004 31.904659999999993 C 226.15246000000005 25.774919999999995 230.39970000000005 19.190999999999992 236.48010000000005 18.014849999999992 C 236.52508000000006 18.00399999999999 236.56901000000005 18.00426999999999 236.61412000000004 17.993809999999993 C 236.40462000000005 17.747859999999992 236.21681000000004 17.491199999999992 236.02797000000004 17.234009999999994 C 232.92976000000004 18.517589999999995 229.34943000000004 18.835109999999993 226.38208000000003 17.872619999999994 C 224.58179000000004 17.369219999999995 223.15736000000004 16.422079999999994 222.13353000000004 15.233889999999995 C 221.19611000000003 16.994539999999994 219.79982000000004 18.571159999999995 217.91470000000004 19.704449999999994 C 213.06842000000003 22.957979999999996 205.30943000000005 22.241509999999995 202.24365000000003 16.752169999999992 C 201.43306000000004 15.305399999999992 201.05305000000004 13.821059999999992 200.97874000000004 12.359799999999993 C 199.70280000000005 12.662499999999993 198.43179000000003 12.990809999999993 197.17109000000005 13.365479999999993 C 198.00108000000006 14.345959999999993 198.54705000000004 15.555379999999992 198.66390000000004 17.000169999999994 C 198.36471000000003 25.624159999999993 184.94970000000004 26.718749999999993 181.13080000000005 20.430249999999994 C 176.22278000000006 23.373729999999995 171.59316000000004 26.96164999999999 167.37248000000005 31.207559999999994 C 146.11880000000005 52.588339999999995 140.65835000000004 85.22734 153.78659000000005 112.42615999999998 C 153.87495000000004 112.61032999999998 153.94440000000006 112.80083999999998 153.99490000000006 112.99557999999998 C 157.58470000000005 122.83871999999998 148.80273000000005 134.30438999999998 139.28849000000005 141.81163999999998 C 137.44730000000004 143.26587999999998 136.89809000000005 144.73282999999998 137.65772000000004 146.17225 C 138.81504000000004 148.37161999999998 142.57319000000004 149.93594 146.61855000000003 148.63092999999998 C 152.37885000000003 146.77343 156.23273000000003 148.44252999999998 159.33014000000003 149.78247 C 162.16452000000004 151.01021999999998 163.87526000000003 151.75109999999998 166.97897000000003 150.14444 C 175.38113000000004 145.79652000000002 181.72114000000002 143.81732 189.17114000000004 146.58292 C 189.21954000000002 146.59563 189.26689000000005 146.60938 189.30160000000004 146.62102 C 189.39419000000004 146.65067 189.48677000000004 146.68453 189.57620000000003 146.72369999999998 C 216.24194000000003 158.15973999999997 246.70895000000002 152.23478999999998 267.19459000000006 131.62664999999998 C 268.71466 130.0975 270.13644 128.50713 271.48856 126.87785 z M 169.4366 43.99822 C 170.11856 33.030460000000005 185.91942 33.22891 186.59861999999998 43.99848 C 186.55522 55.90551 169.46736 55.82983 169.4366 43.99822 z M 198.94882 37.86689 C 199.63084 26.8992 215.43144 27.097649999999998 216.11098 37.86702 C 216.06731 49.77405 198.97972 49.69864 198.94882 37.86689 z M 220.48328 55.01923 C 218.83805 47.51437 227.36908 41.618539999999996 233.61191 45.74141 C 237.50221 48.085640000000005 239.15771999999998 53.530590000000004 236.76746 57.580960000000005 C 232.81506 64.65624 222.11523 62.97986 220.48328 55.01923 z M 221.8409 84.20135 C 222.52280000000002 73.23379 238.32366000000002 73.43198000000001 239.00293 84.20161 C 238.95952 96.10864 221.87181 96.0331 221.8409 84.20135 z M 246.98239 78.17825 C 245.78837000000001 72.98295 249.40632000000002 67.42898000000001 254.5489 66.45777000000001 C 262.51928 64.52579000000001 269.50125 73.91818 265.22952 81.05539000000002 C 260.78778 88.94604 248.82648 87.06804 246.98239 78.17825 z M 246.01459 118.65697 C 244.36934 111.15211000000001 252.90052 105.25614 259.14334 109.37902 C 263.03351000000004 111.72337999999999 264.68902 117.16833 262.29889000000003 121.21857 C 258.3465 128.29385 247.64667 126.61748 246.01459 118.65697 z" stroke-linecap="round" />
</g>
		<g transform="matrix(1 0 0 1 85.01074298446507 -84.82344840955926)" id="path-03_00000029030635779674818340000014185238967788233872_"  >
<path style="stroke: none; stroke-width: 1; stroke-dasharray: none; stroke-linecap: butt; stroke-dashoffset: 0; stroke-linejoin: miter; stroke-miterlimit: 4; fill: rgb(131,255,236); fill-rule: nonzero; opacity: 1;"  paint-order="stroke"  transform=" translate(-235.01074586595826, -65.17655029713379)" d="M 251.13376 33.15859 C 251.79685 32.068439999999995 252.57108 31.22846 253.40711 30.596459999999997 C 256.58777 32.12094999999999 260.42533 32.58454 263.63849 31.606039999999997 C 265.88199 33.908199999999994 266.76221 37.53256 264.39194 41.35485 C 258.74329 49.38588 246.51933 42.03104 251.13376 33.15859 z M 261.8291 78.9534 C 266.42053 71.73245 255.93703 65.40083 251.62087999999997 72.64255 C 248.15747 79.42068 257.52216 85.00309 261.8291 78.9534 z M 286.43823 58.00842 C 289.21736999999996 61.50909 289.32403 66.82531 287.13394 70.73438 C 295.57791 74.67243 301.14386 64.34904 292.41778 59.02409 C 290.14587 57.87135 288.10269 57.63216 286.43823 58.00842 z M 239.80949 14.9259 C 241.77694000000002 17.07445 244.87567 18.65756 247.56196 18.73403 C 248.36617 17.016640000000002 249.85478 15.58634 251.95295 14.81689 C 251.7591 11.04871 247.17019 7.469330000000001 243.10786 7.0768 C 243.43967 10.28256 242.05786 12.96944 239.80949 14.9259 z M 271.76617 122.51948 C 275.6528 125.61517 283.85846 118.49134000000001 281.56198 114.18496 C 277.56381 109.96868 268.36536 117.88248 271.76617 122.51948 z M 173.20493 43.99842 C 173.68541 49.828300000000006 182.12886 49.75236 182.60757999999998 43.99835 C 182.82187 37.14063 173.05513 37.27055 173.20493 43.99842 z M 272.9527 48.4533 C 273.94284 54.61201 287.49784 54.50445 288.51430999999997 48.45343 C 288.08688 41.36028 273.40863 41.42723 272.9527 48.4533 z M 194.67278 17.00023 C 194.80804999999998 14.809929999999998 191.50686 13.214189999999999 189.33892 13.35278 C 187.16834 13.33578 183.76208 14.698409999999999 183.89339 17.00023 C 184.82469 20.9234 193.70805 20.81187 194.67278 17.00023 z" stroke-linecap="round" />
</g>
		<g transform="matrix(1 0 0 1 93.92409585280525 -87.60880621505197)" id="path-02_00000137107151610948444760000010179354799848980356_"  >
<path style="stroke: none; stroke-width: 1; stroke-dasharray: none; stroke-linecap: butt; stroke-dashoffset: 0; stroke-linejoin: miter; stroke-miterlimit: 4; fill: rgb(255,117,152); fill-rule: nonzero; opacity: 1;"  paint-order="stroke"  transform=" translate(-243.92409873429847, -62.39119249164108)" d="M 273.57422 77.16853 C 273.67273 77.00541 273.77689000000004 76.85881 273.87906000000004 76.70575000000001 C 277.26318000000003 77.78214000000001 281.30118000000004 76.97591000000001 284.31772000000007 74.34274 C 284.6175600000001 74.61263000000001 284.89008000000007 74.91375000000001 285.13309000000004 75.24344 C 282.21573000000006 78.02267 280.93177000000003 82.85361 281.32300000000004 87.10746 C 275.93161 89.7491 269.83923 84.59904 273.57422 77.16853 z M 271.56323 54.09312 C 268.71950999999996 51.23054 268.48636 47.019819999999996 270.91278 44.023219999999995 C 270.18155 43.29398 269.31383999999997 42.70524999999999 268.36746 42.289829999999995 C 268.19174 42.681439999999995 268.02038 43.073969999999996 267.7922 43.456979999999994 C 265.47677 47.53077 261.45351999999997 49.37477 257.48809 49.276869999999995 C 257.20627 56.20741 266.65436 60.63061 271.56323 54.09312 z M 224.9917 50.30127 C 222.24701000000002 55.796760000000006 229.77815 60.35834 233.36704 55.47871 C 237.25787 49.50151 228.52193 44.25316 224.9917 50.30127 z M 250.52313 113.93888 C 247.77858 119.4345 255.30958 123.99595 258.89834 119.11645 C 262.78943 113.13925 254.05324 107.89091 250.52313 113.93888 z M 202.71681 37.86729 C 203.19777000000002 43.6971 211.64068 43.621159999999996 212.11979000000002 37.86703 C 212.33469 31.00937 202.56715 31.13929 202.71681 37.86729 z M 273.08972 40.36552 C 279.28598 40.10608 280.785 26.552979999999998 274.93249 24.821029999999997 C 267.88058 24.40786 266.20853 39.0781 273.08972 40.36552 z M 224.09229 11.14873 C 226.63288 16.83949 239.69851 13.20653 239.12351999999998 7.096900000000001 C 236.88608 0.35686 222.72501 4.24312 224.09229 11.14873 z" stroke-linecap="round" />
</g>
		<g transform="matrix(1 0 0 1 99.80005643608716 -102.05548437721238)" id="path-01_00000124858782613431004050000008693317084165462694_"  >
<path style="stroke: none; stroke-width: 1; stroke-dasharray: none; stroke-linecap: butt; stroke-dashoffset: 0; stroke-linejoin: miter; stroke-miterlimit: 4; fill: rgb(255,199,95); fill-rule: nonzero; opacity: 1;"  paint-order="stroke"  transform=" translate(-249.80005931758035, -47.94451432948067)" d="M 209.22478 4.88762 C 215.25534000000002 1.2690800000000002 220.26767 4.88464 220.40483 9.349910000000001 C 220.34677 9.73206 220.32587 10.113480000000001 220.32849000000002 10.493450000000001 C 220.00851000000003 12.54053 218.64972 14.649930000000001 215.88661000000002 16.24653 C 207.29935 20.60588 200.94487 10.78232 209.22478 4.88762 z M 232.44263 25.00824 C 227.82833 33.88056 240.05188 41.23553 245.70079 33.20451 C 248.31528 28.98836 246.97411000000002 25.015389999999996 244.21074000000002 22.79063 C 242.8163 22.4182 241.45461 21.80989 240.19589000000002 21.03474 C 237.43501 20.64378 234.44374 21.71766 232.44263 25.00824 z M 290.55435 76.93582 C 283.50247 76.52212 281.83038 91.19289 288.71158 92.48031 C 294.90771 92.22073 296.40659 78.6675 290.55435 76.93582 z M 225.60916 84.20148 C 226.08972 90.03142 234.53277 89.95562000000001 235.01175 84.20161 C 235.22676 77.34383 225.45924 77.47375 225.60916 84.20148 z M 250.74881 20.70742 C 250.12032 26.91402 263.24158 30.33941 265.78006 24.759249999999998 C 267.1925 17.79655 252.99664 14.03949 250.74881 20.70742 z M 283.59924 68.88496 C 289.41861 59.630160000000004 278.30017 52.90110000000001 272.71792 62.158150000000006 C 268.13797 71.29335 278.06027 76.75589 283.59924 68.88496 z" stroke-linecap="round" />
</g>
</g>
</g>
<g transform="matrix(1.3281088847542675 0 0 1.3281088847542675 426.88354486391427 347.492666283419)" id="shape-f11a1f5b-e836-425f-8169-34316f0cee59"  >
<g style=""  paint-order="stroke"   >
		<g transform="matrix(1 0 0 1 2.842171e-14 0)" id="path-06"  >
<path style="stroke: none; stroke-width: 1; stroke-dasharray: none; stroke-linecap: butt; stroke-dashoffset: 0; stroke-linejoin: miter; stroke-miterlimit: 4; fill: rgb(100,0,74); fill-rule: nonzero; opacity: 1;"  paint-order="stroke"  transform=" translate(-150.00000288149323, -149.99999870669305)" d="M 279.90253 125.96471 C 283.77771 123.77514 286.76743 119.47155 286.18836 115.29126 C 289.26526 108.94349 291.43246999999997 102.26192999999999 292.67620999999997 95.43696 C 293.80933 94.86992 294.87406 94.01791 295.76809999999995 92.83859 C 300.0080899999999 87.69529 299.99297999999993 77.8065 294.2441099999999 74.18213 C 296.00454999999994 73.43517 297.5537999999999 72.2143 298.62182999999993 70.46568 C 302.6701999999999 63.703680000000006 297.17608999999993 55.67147000000001 290.23162999999994 53.980410000000006 C 291.54162999999994 52.56096000000001 292.39120999999994 50.72093000000001 292.50524999999993 48.453430000000004 C 292.00875999999994 43.073440000000005 287.1413299999999 40.441860000000005 282.05395999999996 40.0996 C 281.80960999999996 39.712230000000005 281.58106 39.31718 281.32919999999996 38.933370000000004 C 284.84101 32.572770000000006 283.46972999999997 22.220670000000002 275.40515999999997 20.834300000000002 C 273.05960999999996 20.77278 271.14764999999994 21.62665 269.64221999999995 23.005350000000004 C 268.68125 17.151990000000005 261.40118999999993 13.792620000000003 255.50935999999996 14.122840000000004 C 254.40648999999996 8.536860000000004 247.71400999999994 3.988910000000004 242.24855999999997 3.7684900000000034 C 242.05627999999996 3.7544700000000035 241.87427999999997 3.7650500000000036 241.68646999999996 3.7624000000000035 C 237.48250999999996 -1.6002599999999965 227.62001999999995 0.0680500000000035 223.08337999999995 4.517900000000004 C 223.08061999999995 4.520410000000004 223.07850999999994 4.523320000000004 223.07562999999996 4.525970000000004 C 222.72204999999997 4.4991800000000035 222.36859999999996 4.471460000000004 222.01489999999995 4.449570000000004 C 220.69574999999995 2.357310000000004 218.50380999999996 0.7576700000000041 215.39856999999995 0.21953000000000422 C 210.58937999999995 -0.7817199999999958 205.67331999999996 1.7488500000000042 202.99379999999996 5.633390000000004 C 197.60632999999996 6.653030000000004 192.31264999999996 8.267090000000003 187.20306999999997 10.451100000000004 C 185.21963999999997 10.788530000000003 183.37698999999998 11.590140000000003 182.06645999999998 12.866970000000004 C 175.21242999999998 16.424460000000003 168.78007999999997 21.078780000000002 163.04199999999997 26.851170000000003 C 140.02603999999997 50.00477000000001 134.05215999999996 85.30459 148.12518999999998 114.80014 C 148.13780999999997 114.83824 148.15147999999996 114.87528 148.16621999999998 114.91338 C 150.69442999999998 121.25003000000001 143.63161 130.55446 135.50827999999998 136.96519 C 130.48970999999997 140.92573000000002 130.53285 145.81025 132.24672999999999 149.0606 C 132.57974 149.69035 133.02213999999998 150.28727999999998 133.51334999999997 150.86213 L 2.5899 282.56851 C -0.86313 286.0422 -0.86313 291.69406 2.58885 295.16669 L 4.804589999999999 297.39566 C 8.25656 300.86829 13.87483 300.86829 17.32786 297.39462000000003 L 157.98278 155.89856000000003 C 161.003 157.14999000000003 164.72169 158.24068000000003 169.78074999999998 155.62378000000004 C 177.96090999999998 151.39122000000003 182.34821 150.57837000000004 187.23737 152.43164000000004 C 187.27419 152.44539000000003 187.32154 152.45915000000005 187.37099 152.47504000000004 C 216.30191000000002 164.79061000000004 249.31188 158.32906000000003 271.5251 135.98302000000004 C 274.65091 132.8385 277.43021 129.47821 279.90253 125.96471 z" stroke-linecap="round" />
</g>
		<g transform="matrix(1 0 0 1 -71.33015610449513 73.91637888797598)" id="path-05_00000138550828419423691870000016957400130541714098_"  >
<path style="stroke: none; stroke-width: 1; stroke-dasharray: none; stroke-linecap: butt; stroke-dashoffset: 0; stroke-linejoin: miter; stroke-miterlimit: 4; fill: rgb(255,255,255); fill-rule: nonzero; opacity: 1;"  paint-order="stroke"  transform=" translate(-78.66984677699809, -223.91637759466903)" d="M 9.13508 293.03928 L 6.91934 290.81031 C 5.8546 289.73920000000004 5.85566 287.99601 6.92039 286.92490000000004 L 138.66197 154.39551000000003 C 141.46611 155.43830000000003 144.86021 155.66797000000003 148.48816 154.49764000000002 C 149.50095 154.17125000000001 150.39064 154.02533000000003 151.21838 153.99067000000002 L 12.99738 293.03824 C 11.93264 294.10934 10.19982 294.11038 9.13508 293.03928 z" stroke-linecap="round" />
</g>
		<g transform="matrix(1 0 0 1 61.86575157426867 -67.58355812021628)" id="path-04_00000183226101879585058400000011609757825987877017_"  >
<path style="stroke: none; stroke-width: 1; stroke-dasharray: none; stroke-linecap: butt; stroke-dashoffset: 0; stroke-linejoin: miter; stroke-miterlimit: 4; fill: rgb(255,159,181); fill-rule: nonzero; opacity: 1;"  paint-order="stroke"  transform=" translate(-211.86575445576187, -82.41644058647678)" d="M 271.48856 126.87785 C 268.25672000000003 125.46356 266.52259 121.76523 268.14704 117.83167999999999 C 270.07188 112.78415999999999 276.6381 108.04834 281.91154 109.92039 C 283.91871 105.29941 285.4214 100.51013999999999 286.40486 95.6317 C 284.73964 94.88525999999999 283.30899999999997 93.46409 282.42222 91.42044999999999 C 276.58445 93.90253999999999 269.31739 91.24924999999999 268.33839 83.35965999999999 C 267.9232 80.31953999999999 268.88905 77.31102999999999 270.6374 74.87537999999999 C 268.96427 73.39282999999999 267.76145 71.19372999999999 267.43412 68.24965999999999 C 267.13648 65.75831 267.76829 63.27582999999999 268.98295 61.111929999999994 C 262.83665 63.24262999999999 255.20806000000002 60.01449999999999 253.63700000000003 52.55275999999999 C 253.31847000000002 51.192449999999994 253.29374000000004 49.81228999999999 253.49273000000002 48.47142999999999 C 250.05351000000002 47.169729999999994 247.17533000000003 44.30978999999999 246.27932 40.05514999999999 C 246.17963 39.62913999999999 246.11349 39.20114999999999 246.06733000000003 38.77262999999999 C 239.73797000000002 43.63320999999999 229.44320000000002 40.71452999999999 227.58833000000004 31.904659999999993 C 226.15246000000005 25.774919999999995 230.39970000000005 19.190999999999992 236.48010000000005 18.014849999999992 C 236.52508000000006 18.00399999999999 236.56901000000005 18.00426999999999 236.61412000000004 17.993809999999993 C 236.40462000000005 17.747859999999992 236.21681000000004 17.491199999999992 236.02797000000004 17.234009999999994 C 232.92976000000004 18.517589999999995 229.34943000000004 18.835109999999993 226.38208000000003 17.872619999999994 C 224.58179000000004 17.369219999999995 223.15736000000004 16.422079999999994 222.13353000000004 15.233889999999995 C 221.19611000000003 16.994539999999994 219.79982000000004 18.571159999999995 217.91470000000004 19.704449999999994 C 213.06842000000003 22.957979999999996 205.30943000000005 22.241509999999995 202.24365000000003 16.752169999999992 C 201.43306000000004 15.305399999999992 201.05305000000004 13.821059999999992 200.97874000000004 12.359799999999993 C 199.70280000000005 12.662499999999993 198.43179000000003 12.990809999999993 197.17109000000005 13.365479999999993 C 198.00108000000006 14.345959999999993 198.54705000000004 15.555379999999992 198.66390000000004 17.000169999999994 C 198.36471000000003 25.624159999999993 184.94970000000004 26.718749999999993 181.13080000000005 20.430249999999994 C 176.22278000000006 23.373729999999995 171.59316000000004 26.96164999999999 167.37248000000005 31.207559999999994 C 146.11880000000005 52.588339999999995 140.65835000000004 85.22734 153.78659000000005 112.42615999999998 C 153.87495000000004 112.61032999999998 153.94440000000006 112.80083999999998 153.99490000000006 112.99557999999998 C 157.58470000000005 122.83871999999998 148.80273000000005 134.30438999999998 139.28849000000005 141.81163999999998 C 137.44730000000004 143.26587999999998 136.89809000000005 144.73282999999998 137.65772000000004 146.17225 C 138.81504000000004 148.37161999999998 142.57319000000004 149.93594 146.61855000000003 148.63092999999998 C 152.37885000000003 146.77343 156.23273000000003 148.44252999999998 159.33014000000003 149.78247 C 162.16452000000004 151.01021999999998 163.87526000000003 151.75109999999998 166.97897000000003 150.14444 C 175.38113000000004 145.79652000000002 181.72114000000002 143.81732 189.17114000000004 146.58292 C 189.21954000000002 146.59563 189.26689000000005 146.60938 189.30160000000004 146.62102 C 189.39419000000004 146.65067 189.48677000000004 146.68453 189.57620000000003 146.72369999999998 C 216.24194000000003 158.15973999999997 246.70895000000002 152.23478999999998 267.19459000000006 131.62664999999998 C 268.71466 130.0975 270.13644 128.50713 271.48856 126.87785 z M 169.4366 43.99822 C 170.11856 33.030460000000005 185.91942 33.22891 186.59861999999998 43.99848 C 186.55522 55.90551 169.46736 55.82983 169.4366 43.99822 z M 198.94882 37.86689 C 199.63084 26.8992 215.43144 27.097649999999998 216.11098 37.86702 C 216.06731 49.77405 198.97972 49.69864 198.94882 37.86689 z M 220.48328 55.01923 C 218.83805 47.51437 227.36908 41.618539999999996 233.61191 45.74141 C 237.50221 48.085640000000005 239.15771999999998 53.530590000000004 236.76746 57.580960000000005 C 232.81506 64.65624 222.11523 62.97986 220.48328 55.01923 z M 221.8409 84.20135 C 222.52280000000002 73.23379 238.32366000000002 73.43198000000001 239.00293 84.20161 C 238.95952 96.10864 221.87181 96.0331 221.8409 84.20135 z M 246.98239 78.17825 C 245.78837000000001 72.98295 249.40632000000002 67.42898000000001 254.5489 66.45777000000001 C 262.51928 64.52579000000001 269.50125 73.91818 265.22952 81.05539000000002 C 260.78778 88.94604 248.82648 87.06804 246.98239 78.17825 z M 246.01459 118.65697 C 244.36934 111.15211000000001 252.90052 105.25614 259.14334 109.37902 C 263.03351000000004 111.72337999999999 264.68902 117.16833 262.29889000000003 121.21857 C 258.3465 128.29385 247.64667 126.61748 246.01459 118.65697 z" stroke-linecap="round" />
</g>
		<g transform="matrix(1 0 0 1 85.01074298446507 -84.82344840955926)" id="path-03_00000029030635779674818340000014185238967788233872_"  >
<path style="stroke: none; stroke-width: 1; stroke-dasharray: none; stroke-linecap: butt; stroke-dashoffset: 0; stroke-linejoin: miter; stroke-miterlimit: 4; fill: rgb(131,255,236); fill-rule: nonzero; opacity: 1;"  paint-order="stroke"  transform=" translate(-235.01074586595826, -65.17655029713379)" d="M 251.13376 33.15859 C 251.79685 32.068439999999995 252.57108 31.22846 253.40711 30.596459999999997 C 256.58777 32.12094999999999 260.42533 32.58454 263.63849 31.606039999999997 C 265.88199 33.908199999999994 266.76221 37.53256 264.39194 41.35485 C 258.74329 49.38588 246.51933 42.03104 251.13376 33.15859 z M 261.8291 78.9534 C 266.42053 71.73245 255.93703 65.40083 251.62087999999997 72.64255 C 248.15747 79.42068 257.52216 85.00309 261.8291 78.9534 z M 286.43823 58.00842 C 289.21736999999996 61.50909 289.32403 66.82531 287.13394 70.73438 C 295.57791 74.67243 301.14386 64.34904 292.41778 59.02409 C 290.14587 57.87135 288.10269 57.63216 286.43823 58.00842 z M 239.80949 14.9259 C 241.77694000000002 17.07445 244.87567 18.65756 247.56196 18.73403 C 248.36617 17.016640000000002 249.85478 15.58634 251.95295 14.81689 C 251.7591 11.04871 247.17019 7.469330000000001 243.10786 7.0768 C 243.43967 10.28256 242.05786 12.96944 239.80949 14.9259 z M 271.76617 122.51948 C 275.6528 125.61517 283.85846 118.49134000000001 281.56198 114.18496 C 277.56381 109.96868 268.36536 117.88248 271.76617 122.51948 z M 173.20493 43.99842 C 173.68541 49.828300000000006 182.12886 49.75236 182.60757999999998 43.99835 C 182.82187 37.14063 173.05513 37.27055 173.20493 43.99842 z M 272.9527 48.4533 C 273.94284 54.61201 287.49784 54.50445 288.51430999999997 48.45343 C 288.08688 41.36028 273.40863 41.42723 272.9527 48.4533 z M 194.67278 17.00023 C 194.80804999999998 14.809929999999998 191.50686 13.214189999999999 189.33892 13.35278 C 187.16834 13.33578 183.76208 14.698409999999999 183.89339 17.00023 C 184.82469 20.9234 193.70805 20.81187 194.67278 17.00023 z" stroke-linecap="round" />
</g>
		<g transform="matrix(1 0 0 1 93.92409585280525 -87.60880621505197)" id="path-02_00000137107151610948444760000010179354799848980356_"  >
<path style="stroke: none; stroke-width: 1; stroke-dasharray: none; stroke-linecap: butt; stroke-dashoffset: 0; stroke-linejoin: miter; stroke-miterlimit: 4; fill: rgb(255,117,152); fill-rule: nonzero; opacity: 1;"  paint-order="stroke"  transform=" translate(-243.92409873429847, -62.39119249164108)" d="M 273.57422 77.16853 C 273.67273 77.00541 273.77689000000004 76.85881 273.87906000000004 76.70575000000001 C 277.26318000000003 77.78214000000001 281.30118000000004 76.97591000000001 284.31772000000007 74.34274 C 284.6175600000001 74.61263000000001 284.89008000000007 74.91375000000001 285.13309000000004 75.24344 C 282.21573000000006 78.02267 280.93177000000003 82.85361 281.32300000000004 87.10746 C 275.93161 89.7491 269.83923 84.59904 273.57422 77.16853 z M 271.56323 54.09312 C 268.71950999999996 51.23054 268.48636 47.019819999999996 270.91278 44.023219999999995 C 270.18155 43.29398 269.31383999999997 42.70524999999999 268.36746 42.289829999999995 C 268.19174 42.681439999999995 268.02038 43.073969999999996 267.7922 43.456979999999994 C 265.47677 47.53077 261.45351999999997 49.37477 257.48809 49.276869999999995 C 257.20627 56.20741 266.65436 60.63061 271.56323 54.09312 z M 224.9917 50.30127 C 222.24701000000002 55.796760000000006 229.77815 60.35834 233.36704 55.47871 C 237.25787 49.50151 228.52193 44.25316 224.9917 50.30127 z M 250.52313 113.93888 C 247.77858 119.4345 255.30958 123.99595 258.89834 119.11645 C 262.78943 113.13925 254.05324 107.89091 250.52313 113.93888 z M 202.71681 37.86729 C 203.19777000000002 43.6971 211.64068 43.621159999999996 212.11979000000002 37.86703 C 212.33469 31.00937 202.56715 31.13929 202.71681 37.86729 z M 273.08972 40.36552 C 279.28598 40.10608 280.785 26.552979999999998 274.93249 24.821029999999997 C 267.88058 24.40786 266.20853 39.0781 273.08972 40.36552 z M 224.09229 11.14873 C 226.63288 16.83949 239.69851 13.20653 239.12351999999998 7.096900000000001 C 236.88608 0.35686 222.72501 4.24312 224.09229 11.14873 z" stroke-linecap="round" />
</g>
		<g transform="matrix(1 0 0 1 99.80005643608716 -102.05548437721238)" id="path-01_00000124858782613431004050000008693317084165462694_"  >
<path style="stroke: none; stroke-width: 1; stroke-dasharray: none; stroke-linecap: butt; stroke-dashoffset: 0; stroke-linejoin: miter; stroke-miterlimit: 4; fill: rgb(255,199,95); fill-rule: nonzero; opacity: 1;"  paint-order="stroke"  transform=" translate(-249.80005931758035, -47.94451432948067)" d="M 209.22478 4.88762 C 215.25534000000002 1.2690800000000002 220.26767 4.88464 220.40483 9.349910000000001 C 220.34677 9.73206 220.32587 10.113480000000001 220.32849000000002 10.493450000000001 C 220.00851000000003 12.54053 218.64972 14.649930000000001 215.88661000000002 16.24653 C 207.29935 20.60588 200.94487 10.78232 209.22478 4.88762 z M 232.44263 25.00824 C 227.82833 33.88056 240.05188 41.23553 245.70079 33.20451 C 248.31528 28.98836 246.97411000000002 25.015389999999996 244.21074000000002 22.79063 C 242.8163 22.4182 241.45461 21.80989 240.19589000000002 21.03474 C 237.43501 20.64378 234.44374 21.71766 232.44263 25.00824 z M 290.55435 76.93582 C 283.50247 76.52212 281.83038 91.19289 288.71158 92.48031 C 294.90771 92.22073 296.40659 78.6675 290.55435 76.93582 z M 225.60916 84.20148 C 226.08972 90.03142 234.53277 89.95562000000001 235.01175 84.20161 C 235.22676 77.34383 225.45924 77.47375 225.60916 84.20148 z M 250.74881 20.70742 C 250.12032 26.91402 263.24158 30.33941 265.78006 24.759249999999998 C 267.1925 17.79655 252.99664 14.03949 250.74881 20.70742 z M 283.59924 68.88496 C 289.41861 59.630160000000004 278.30017 52.90110000000001 272.71792 62.158150000000006 C 268.13797 71.29335 278.06027 76.75589 283.59924 68.88496 z" stroke-linecap="round" />
</g>
</g>
</g>
<g transform="matrix(1.9211538461538462 0 0 1.9211538461538462 625.8880703655157 630.0851365189295)" id="text-logo"  >
<g style=""  paint-order="stroke"   >
		<g transform="matrix(1 0 0 1 0 0)" id="text-logo-path-0"  >
<filter id="SVGID_369689" y="-22.783964365256125%" height="145.56792873051225%" x="-20.215764859456165%" width="140.43152971891232%" >
	<feGaussianBlur in="SourceAlpha" stdDeviation="0.5"></feGaussianBlur>
	<feOffset dx="0" dy="0" result="oBlur" ></feOffset>
	<feFlood flood-color="rgb(0,0,0)" flood-opacity="1"/>
	<feComposite in2="oBlur" operator="in" />
	<feMerge>
		<feMergeNode></feMergeNode>
		<feMergeNode in="SourceGraphic"></feMergeNode>
	</feMerge>
</filter>
<path style="stroke: none; stroke-width: 0; stroke-dasharray: none; stroke-linecap: butt; stroke-dashoffset: 0; stroke-linejoin: miter; stroke-miterlimit: 4; fill: rgb(0,0,0); fill-rule: nonzero; opacity: 1;filter: url(#SVGID_369689);"  paint-order="stroke"  transform=" translate(-233.69374999999997, 17.27)" d="M 31.8 -3.53 C 31.8 -3.77 31.85 -4.07 31.85 -4.31 C 31.85 -4.85 31.75 -5.63 31.75 -6.57 L 31.75 -9.95 L 31.7 -16.91 L 31.7 -20.29 C 31.7 -21.66 31.7 -23.03 31.65 -24.35 L 31.65 -27.1 C 31.61 -28.42 31.61 -29.79 31.61 -31.16 C 31.61 -31.56 31.56 -31.95 31.51 -32.39 C 31.46 -32.68 31.41 -33.03 31.26 -33.47 C 31.12 -33.76 30.92 -34.05 30.67 -34.3 C 30.33 -34.64 29.94 -34.79 29.55 -34.84 C 29.16 -34.89 28.81 -34.94 28.27 -34.94 C 26.21 -34.94 24.06 -31.51 23.18 -29.99 L 18.52 -22.59 C 18.28 -22.1 17.49 -20.87 17.1 -20.48 C 15.93 -22.1 14.65 -24.45 12.94 -27.2 C 12.2 -28.47 10.73 -30.87 9.7 -32.05 C 8.87 -32.98 7.99 -34.59 6.66 -34.84 C 6.27 -34.89 5.83 -34.94 5.39 -34.94 C 4.85 -34.94 4.31 -34.79 3.82 -34.5 C 3.38 -34.25 3.04 -33.86 2.79 -33.32 C 2.55 -32.73 2.35 -32.14 2.35 -31.41 C 2.16 -28.67 2.06 -25.87 2.06 -23.03 L 2.06 -16.46 L 1.96 -5.1 C 1.96 -4.17 2.01 -3.38 2.06 -2.45 C 2.21 -1.62 2.6 -0.49 3.43 0.05 C 4.07 0.39 4.66 0.54 5.19 0.54 C 5.29 0.54 6.03 0.64 6.91 0.05 C 7.79 -0.54 8.33 -1.52 8.33 -2.65 C 8.53 -2.65 8.62 -23.32 8.62 -23.52 C 10.73 -19.6 12.74 -16.95 14.31 -14.99 C 14.85 -14.21 16.12 -13.13 16.91 -13.13 L 17.05 -13.13 C 18.87 -13.28 20.04 -14.6 25.14 -23.08 C 25.19 -22.2 25.23 -21.61 25.23 -21.32 L 25.19 -20.58 C 25.19 -19.4 25.23 -18.87 25.23 -18.42 L 25.23 -16.37 L 25.28 -8.87 L 25.28 -3.68 C 25.28 -2.25 25.58 -0.73 26.9 0.1 C 27.64 0.44 28.18 0.49 28.47 0.49 C 28.76 0.49 29.06 0.39 29.4 0.29 C 29.89 0.24 30.33 0.1 30.67 -0.24 C 30.92 -0.44 31.16 -0.73 31.31 -1.13 C 31.65 -1.86 31.75 -2.74 31.8 -3.53 Z M 72.67 -3.33 C 72.52 -3.92 72.28 -4.66 72.28 -4.66 L 61.79 -30.53 C 61.64 -30.92 61.45 -31.21 61.3 -31.65 C 61.15 -32.09 60.96 -32.44 60.76 -32.78 C 60.52 -33.17 60.27 -33.52 60.03 -33.81 C 59.83 -34.05 59.54 -34.3 59.19 -34.45 C 58.26 -34.79 56.94 -34.79 56.01 -34.45 C 55.66 -34.3 55.37 -34.05 55.17 -33.81 C 54.93 -33.47 54.64 -33.17 54.44 -32.78 C 54.24 -32.44 54.05 -32.09 53.9 -31.65 C 53.75 -31.21 53.56 -30.92 53.41 -30.53 L 42.92 -4.66 C 42.92 -4.66 42.68 -3.92 42.53 -3.33 C 42.48 -2.94 42.43 -2.6 42.43 -2.16 C 42.43 -1.76 42.53 -1.42 42.78 -1.08 C 42.97 -0.73 43.32 -0.44 43.76 -0.24 C 44.39 0.1 45.08 0.29 45.77 0.29 C 45.96 0.29 46.16 0.29 46.35 0.24 C 46.8 0.1 47.24 -0.1 47.58 -0.39 C 47.73 -0.54 47.78 -0.49 47.82 -0.64 C 47.87 -0.69 47.92 -0.83 48.07 -0.88 C 48.41 -1.23 48.56 -1.47 48.71 -1.81 L 49.25 -2.74 L 49.59 -3.48 C 49.64 -3.58 49.69 -3.68 49.69 -3.77 L 49.74 -3.97 C 49.78 -4.07 49.78 -4.17 49.83 -4.26 L 50.86 -6.66 C 52.38 -6.66 53.85 -6.62 55.37 -6.62 C 56.84 -6.62 59.83 -6.66 64.34 -6.66 L 65.37 -4.26 C 65.42 -4.02 65.46 -3.77 65.61 -3.48 C 65.66 -3.23 65.81 -2.99 65.95 -2.74 C 66.15 -2.4 66.3 -2.16 66.44 -1.81 C 66.64 -1.47 66.79 -1.23 67.13 -0.88 C 67.28 -0.83 67.33 -0.69 67.38 -0.64 C 67.42 -0.49 67.47 -0.54 67.62 -0.39 C 67.96 -0.1 68.4 0.1 68.84 0.24 C 69.04 0.29 69.24 0.29 69.43 0.29 C 70.12 0.29 70.81 0.1 71.44 -0.24 C 71.88 -0.44 72.23 -0.73 72.42 -1.08 C 72.67 -1.42 72.77 -1.76 72.77 -2.16 C 72.77 -2.6 72.72 -2.94 72.67 -3.33 Z M 53.26 -13.18 L 54.15 -15.34 C 54.98 -17.25 55.86 -19.26 56.84 -21.36 C 57.09 -21.95 57.38 -22.59 57.58 -23.18 L 58.36 -21.36 C 59.34 -19.26 60.22 -17.25 61.05 -15.34 L 61.94 -13.18 Z M 107.8 -11.66 L 107.8 -13.67 C 107.8 -14.01 107.75 -14.46 107.7 -14.85 C 107.65 -15.19 107.6 -15.58 107.46 -15.93 C 107.31 -16.27 107.11 -16.51 106.92 -16.76 C 106.38 -17.2 105.4 -17.39 104.81 -17.39 L 104.57 -17.39 L 99.42 -17.39 C 99.18 -17.39 98.98 -17.39 98.78 -17.35 C 98.25 -17.3 97.9 -17.2 97.51 -17.05 C 97.07 -16.95 96.78 -16.81 96.58 -16.66 C 96.24 -16.27 96.04 -15.93 95.94 -15.68 C 95.89 -15.29 95.84 -14.95 95.84 -14.55 C 95.84 -14.01 95.99 -13.57 96.33 -13.23 C 96.63 -12.79 97.07 -12.5 97.66 -12.3 C 98.34 -12.05 99.03 -11.91 99.76 -11.91 C 100.11 -11.91 100.79 -11.86 101.63 -11.86 L 101.63 -11.81 C 101.63 -9.02 100.84 -6.81 97.31 -5.88 C 96.87 -5.78 96.43 -5.68 95.94 -5.68 C 95.55 -5.68 94.62 -5.73 93.39 -6.22 C 92.17 -6.71 91.09 -7.55 90.5 -8.58 C 89.77 -10 89.18 -11.47 88.84 -13.08 C 88.45 -14.99 88.45 -16.32 88.45 -16.91 C 88.45 -19.01 88.84 -22.34 90.5 -24.79 C 91.97 -27.1 94.47 -28.22 96.48 -28.22 C 96.82 -28.22 97.9 -28.37 99.47 -27.39 C 100.84 -26.56 101.38 -25.23 101.82 -23.72 C 102.02 -23.03 102.41 -22.49 103 -22.05 C 104.13 -21.17 104.86 -21.22 105.11 -21.22 C 106.09 -21.22 107.16 -21.76 107.51 -23.72 C 107.6 -24.16 107.6 -24.6 107.6 -25.09 C 107.6 -26.46 107.16 -28.57 106.13 -30.28 C 105.4 -31.41 104.37 -32.34 103.1 -33.03 C 100.5 -34.4 97.95 -34.69 96.04 -34.69 C 94.96 -34.69 92.76 -34.64 90.21 -33.61 C 84.67 -31.36 82.37 -24.35 81.98 -19.36 C 81.93 -18.57 81.88 -17.79 81.88 -17 C 81.88 -14.26 82.08 -10.29 84.04 -6.37 C 85.95 -2.45 89.43 0.49 95.31 0.69 L 96.09 0.69 C 97.46 0.69 101.38 0.34 103.34 -0.98 C 107.36 -3.43 107.8 -7.79 107.8 -11.66 Z M 120 -16.27 L 119.9 -5.19 L 119.9 -4.46 C 119.9 -4.31 119.9 -4.17 119.9 -4.02 L 119.9 -3.63 C 119.95 -3.58 119.95 -3.48 119.95 -3.38 L 120 -2.89 C 120.05 -2.84 120.05 -2.74 120.05 -2.65 C 120.05 -2.25 120.1 -1.91 120.25 -1.57 C 120.3 -1.52 120.3 -1.52 120.3 -1.47 L 120.39 -1.37 C 120.44 -1.32 120.44 -1.32 120.44 -1.27 C 120.44 -1.18 120.49 -1.08 120.59 -0.98 C 120.74 -0.59 121.03 -0.24 121.42 0 C 121.91 0.24 122.45 0.34 122.99 0.34 C 123.28 0.34 123.63 0.29 123.92 0.24 C 124.51 0.15 124.95 -0.05 125.2 -0.29 C 125.54 -0.54 125.73 -0.83 125.93 -1.18 C 126.08 -1.57 126.13 -1.91 126.27 -2.25 C 126.32 -2.65 126.37 -2.94 126.37 -3.14 L 126.37 -3.63 L 126.67 -29.06 L 126.67 -29.89 C 126.67 -30.28 126.71 -30.63 126.71 -31.07 C 126.71 -31.46 126.67 -31.85 126.62 -32.29 C 126.57 -32.68 126.47 -33.03 126.32 -33.42 C 126.18 -33.76 125.98 -34.05 125.78 -34.2 C 125.44 -34.55 125.1 -34.74 124.66 -34.79 C 124.26 -34.84 123.87 -34.89 123.33 -34.89 C 122.84 -34.89 122.35 -34.74 121.81 -34.5 C 121.37 -34.15 121.03 -33.76 120.79 -33.32 C 120.44 -32.63 120.3 -32 120.25 -31.41 C 120.25 -30.67 120.2 -29.99 120.15 -29.35 L 120.15 -29.16 C 120.1 -28.03 120.05 -27 120.05 -26.07 L 120.05 -19.5 C 120.05 -18.38 120.05 -17.3 120 -16.27 Z M 164.79 -8.23 C 164.05 -9.65 162.78 -9.85 162.09 -9.85 C 161.8 -9.85 161.55 -9.8 161.26 -9.7 C 159.74 -9.31 158.42 -7.69 157.34 -7.15 C 155.62 -6.22 154.35 -6.17 153.66 -6.17 C 152.1 -6.17 149.3 -6.81 147.64 -9.31 C 146.27 -11.27 145.82 -13.82 145.82 -16.22 L 145.82 -17.54 C 145.87 -18.28 146.02 -19.36 146.36 -20.68 C 146.66 -22 147.05 -23.18 147.59 -24.3 C 148.08 -25.33 148.76 -26.21 149.7 -26.9 C 151.46 -28.22 152.93 -28.22 153.62 -28.22 C 154.99 -28.22 156.85 -27.88 158.42 -25.97 C 158.86 -25.38 159.4 -24.75 159.99 -24.35 C 160.57 -23.91 161.11 -23.86 161.41 -23.86 C 161.65 -23.86 161.9 -23.86 162.19 -23.96 C 163.27 -24.21 163.91 -24.65 164.1 -25.19 C 164.25 -25.73 164.35 -26.17 164.35 -26.56 C 164.35 -26.95 164.25 -27.49 164.05 -28.13 C 163.66 -29.45 162.29 -31.31 161.26 -32.24 C 160.43 -32.98 159.45 -33.61 158.32 -34.05 C 155.97 -34.94 154.15 -34.94 153.27 -34.94 C 151.61 -34.94 149.4 -34.69 147.39 -33.52 C 142.1 -30.53 139.36 -24.45 138.96 -19.65 C 138.87 -18.52 138.82 -17.3 138.82 -16.02 C 138.82 -15.58 138.72 -13.82 139.31 -10.83 C 139.9 -7.84 141.07 -5.1 143.37 -3.19 C 145.29 -1.62 147.59 -0.54 149.99 0.05 C 152.34 0.59 153.62 0.49 153.76 0.49 C 154.89 0.49 155.92 0.34 156.95 0.15 C 158.91 -0.29 161.26 -1.47 162.97 -2.99 C 164.69 -4.51 165.13 -5.88 165.13 -6.76 C 165.13 -7.25 165.03 -7.74 164.79 -8.23 Z M 224.47 -3.53 C 224.47 -3.77 224.52 -4.07 224.52 -4.31 C 224.52 -4.85 224.42 -5.63 224.42 -6.57 L 224.42 -9.95 L 224.37 -16.91 L 224.37 -20.29 C 224.37 -21.66 224.37 -23.03 224.32 -24.35 L 224.32 -27.1 C 224.27 -28.42 224.27 -29.79 224.27 -31.16 C 224.27 -31.56 224.22 -31.95 224.18 -32.39 C 224.13 -32.68 224.08 -33.03 223.93 -33.47 C 223.78 -33.76 223.59 -34.05 223.34 -34.3 C 223 -34.64 222.61 -34.79 222.22 -34.84 C 221.82 -34.89 221.48 -34.94 220.94 -34.94 C 218.88 -34.94 216.73 -31.51 215.84 -29.99 L 211.19 -22.59 C 210.94 -22.1 210.16 -20.87 209.77 -20.48 C 208.59 -22.1 207.32 -24.45 205.6 -27.2 C 204.87 -28.47 203.4 -30.87 202.37 -32.05 C 201.54 -32.98 200.66 -34.59 199.33 -34.84 C 198.94 -34.89 198.5 -34.94 198.06 -34.94 C 197.52 -34.94 196.98 -34.79 196.49 -34.5 C 196.05 -34.25 195.71 -33.86 195.46 -33.32 C 195.22 -32.73 195.02 -32.14 195.02 -31.41 C 194.82 -28.67 194.73 -25.87 194.73 -23.03 L 194.73 -16.46 L 194.63 -5.1 C 194.63 -4.17 194.68 -3.38 194.73 -2.45 C 194.87 -1.62 195.27 -0.49 196.1 0.05 C 196.74 0.39 197.32 0.54 197.86 0.54 C 197.96 0.54 198.69 0.64 199.58 0.05 C 200.46 -0.54 201 -1.52 201 -2.65 C 201.19 -2.65 201.29 -23.32 201.29 -23.52 C 203.4 -19.6 205.41 -16.95 206.98 -14.99 C 207.52 -14.21 208.79 -13.13 209.57 -13.13 L 209.72 -13.13 C 211.53 -13.28 212.71 -14.6 217.81 -23.08 C 217.85 -22.2 217.9 -21.61 217.9 -21.32 L 217.85 -20.58 C 217.85 -19.4 217.9 -18.87 217.9 -18.42 L 217.9 -16.37 L 217.95 -8.87 L 217.95 -3.68 C 217.95 -2.25 218.25 -0.73 219.57 0.1 C 220.3 0.44 220.84 0.49 221.14 0.49 C 221.43 0.49 221.73 0.39 222.07 0.29 C 222.56 0.24 223 0.1 223.34 -0.24 C 223.59 -0.44 223.83 -0.73 223.98 -1.13 C 224.32 -1.86 224.42 -2.74 224.47 -3.53 Z M 262.84 -32 C 262.69 -32.54 262.49 -33.03 262.2 -33.47 C 261.66 -34.2 260.88 -34.94 259.5 -34.99 C 257.79 -34.99 256.91 -34.2 256.37 -33.37 C 256.07 -32.88 255.88 -32.34 255.83 -31.75 C 255.98 -26.46 255.73 -17.79 255.19 -12.74 C 255.04 -11.96 254.8 -10.98 254.41 -10.24 C 253.43 -8.28 251.57 -7.3 249.95 -7.11 C 249.7 -7.06 249.46 -7.06 249.21 -7.06 C 247.94 -7.06 246.32 -7.25 245 -9.16 C 243.58 -11.27 243.33 -14.5 243.33 -18.42 C 243.33 -18.96 243.33 -19.75 243.38 -20.82 C 243.43 -22.98 243.48 -24.99 243.48 -26.36 C 243.48 -27.69 243.48 -29.89 243.33 -32.05 C 243.28 -32.68 243.19 -33.17 242.84 -33.71 C 241.57 -35.38 238.24 -35.52 237.06 -33.81 C 236.03 -32.24 236.13 -29.84 236.13 -28.13 C 235.98 -25.53 236.13 -20.09 236.13 -17.59 C 236.13 -12.2 236.67 -7.35 240.59 -3.53 C 243.19 -1.03 246.18 -0.05 249.26 -0.05 L 249.8 -0.05 C 253.77 -0.2 257.94 -2.16 259.99 -5.63 C 260.73 -6.81 261.37 -8.38 261.81 -9.75 C 262.15 -10.88 262.39 -12.4 262.64 -14.31 C 263.08 -18.03 263.18 -21.76 263.18 -24.75 C 263.18 -25.92 263.23 -28.86 262.84 -32 Z M 301.55 -3.72 C 301.55 -3.97 301.59 -4.17 301.59 -4.41 C 301.59 -4.85 301.5 -5.49 301.5 -6.42 C 301.45 -14.6 301.4 -23.23 301.4 -31.41 C 301.4 -31.75 301.35 -32.19 301.25 -32.63 C 301.2 -32.98 301.1 -33.32 300.96 -33.76 C 300.81 -34.1 300.61 -34.35 300.42 -34.55 C 299.68 -35.13 298.9 -35.23 298.41 -35.23 C 297.77 -35.23 296.06 -34.94 295.52 -33.57 C 295.18 -32.83 295.03 -32.19 295.03 -31.65 C 294.88 -28.91 294.88 -25.58 294.88 -22.83 C 294.93 -20.48 294.98 -18.33 294.98 -16.22 L 294.98 -12.99 L 283.12 -31.61 C 282.88 -31.95 282.68 -32.24 282.48 -32.63 C 282.24 -32.98 281.99 -33.32 281.65 -33.66 C 281.41 -34.01 281.11 -34.25 280.77 -34.5 C 280.43 -34.69 280.13 -34.84 279.79 -34.99 C 279.54 -35.04 279.25 -35.08 278.96 -35.08 C 278.52 -35.08 277.63 -35.04 276.9 -34.59 C 276.36 -34.25 276.02 -33.86 275.87 -33.42 C 275.58 -32.88 275.38 -32.24 275.33 -31.51 C 275.18 -28.76 275.13 -26.12 275.13 -24.35 L 275.13 -22.64 C 275.13 -20.34 275.13 -18.18 275.09 -16.07 L 275.04 -8.97 L 274.94 -5.15 L 274.94 -4.31 C 274.94 -4.12 274.89 -3.87 274.89 -3.68 C 274.89 -2.89 275.04 -1.86 275.67 -0.93 C 276.26 0 277.19 0.39 278.07 0.39 C 278.37 0.39 278.66 0.34 278.96 0.29 C 279.5 0.2 279.89 0 280.23 -0.24 C 281.06 -0.98 281.41 -2.06 281.41 -3.09 L 281.41 -3.53 L 281.55 -22.25 C 282.88 -20.34 284.1 -17.98 285.23 -16.22 L 289.34 -10 C 291.26 -7.06 293.02 -4.12 295.22 -1.37 C 296.06 -0.24 297.67 0.2 298.51 0.2 C 298.85 0.2 299.59 0.2 300.37 -0.44 C 301.4 -1.23 301.5 -2.6 301.55 -3.72 Z M 338.2 -8.23 C 337.46 -9.65 336.19 -9.85 335.5 -9.85 C 335.21 -9.85 334.96 -9.8 334.67 -9.7 C 333.15 -9.31 331.83 -7.69 330.75 -7.15 C 329.03 -6.22 327.76 -6.17 327.07 -6.17 C 325.51 -6.17 322.71 -6.81 321.05 -9.31 C 319.68 -11.27 319.23 -13.82 319.23 -16.22 L 319.23 -17.54 C 319.28 -18.28 319.43 -19.36 319.77 -20.68 C 320.07 -22 320.46 -23.18 321 -24.3 C 321.49 -25.33 322.17 -26.21 323.11 -26.9 C 324.87 -28.22 326.34 -28.22 327.03 -28.22 C 328.4 -28.22 330.26 -27.88 331.83 -25.97 C 332.27 -25.38 332.81 -24.75 333.4 -24.35 C 333.98 -23.91 334.52 -23.86 334.82 -23.86 C 335.06 -23.86 335.31 -23.86 335.6 -23.96 C 336.68 -24.21 337.32 -24.65 337.51 -25.19 C 337.66 -25.73 337.76 -26.17 337.76 -26.56 C 337.76 -26.95 337.66 -27.49 337.46 -28.13 C 337.07 -29.45 335.7 -31.31 334.67 -32.24 C 333.84 -32.98 332.86 -33.61 331.73 -34.05 C 329.38 -34.94 327.56 -34.94 326.68 -34.94 C 325.02 -34.94 322.81 -34.69 320.8 -33.52 C 315.51 -30.53 312.77 -24.45 312.37 -19.65 C 312.28 -18.52 312.23 -17.3 312.23 -16.02 C 312.23 -15.58 312.13 -13.82 312.72 -10.83 C 313.31 -7.84 314.48 -5.1 316.78 -3.19 C 318.7 -1.62 321 -0.54 323.4 0.05 C 325.75 0.59 327.03 0.49 327.17 0.49 C 328.3 0.49 329.33 0.34 330.36 0.15 C 332.32 -0.29 334.67 -1.47 336.38 -2.99 C 338.1 -4.51 338.54 -5.88 338.54 -6.76 C 338.54 -7.25 338.44 -7.74 338.2 -8.23 Z M 375 -32.29 C 374.95 -32.39 374.95 -32.49 374.9 -32.59 L 374.75 -33.12 C 374.7 -33.22 374.7 -33.32 374.65 -33.42 C 374.56 -33.76 374.36 -34.05 374.11 -34.2 C 373.82 -34.55 373.43 -34.74 372.99 -34.79 C 372.64 -34.84 372.25 -34.89 371.71 -34.89 C 371.17 -34.89 370.64 -34.74 370.19 -34.5 C 369.66 -34.15 369.31 -33.86 369.17 -33.32 C 368.82 -32.68 368.68 -32.05 368.63 -31.41 C 368.58 -30.67 368.53 -29.99 368.53 -29.35 C 368.38 -26.41 368.38 -23.86 368.38 -20.92 L 368.33 -20.92 C 364.61 -20.92 361.33 -21.02 357.94 -21.02 C 357.01 -20.97 356.38 -20.97 355.84 -20.97 L 355.94 -29.06 L 355.94 -31.65 C 355.94 -31.85 355.94 -32.05 355.89 -32.29 C 355.84 -32.63 355.74 -32.98 355.59 -33.42 C 355.49 -33.71 355.3 -33.96 355.05 -34.2 C 354.71 -34.55 354.32 -34.74 353.93 -34.79 C 353.53 -34.84 353.19 -34.89 352.65 -34.89 C 352.11 -34.89 351.62 -34.74 351.08 -34.5 C 350.64 -34.15 350.3 -33.86 350.1 -33.32 C 349.76 -32.68 349.61 -32.05 349.57 -31.41 C 349.52 -30.67 349.52 -29.99 349.47 -29.35 L 349.47 -29.16 C 349.32 -26.85 349.32 -25.77 349.32 -25.09 C 349.32 -24.45 349.37 -23.72 349.37 -22.93 C 349.37 -20.58 349.37 -18.38 349.32 -16.27 L 349.17 -5.19 L 349.17 -4.46 C 349.17 -4.31 349.17 -4.17 349.17 -4.02 L 349.17 -3.63 C 349.22 -3.28 349.32 -2.99 349.32 -2.65 C 349.37 -2.25 349.42 -1.91 349.57 -1.57 L 349.71 -1.27 C 349.71 -1.23 349.76 -1.13 349.81 -0.98 C 350.1 -0.54 350.4 -0.2 350.74 0 C 351.23 0.24 351.77 0.34 352.31 0.34 C 352.6 0.34 352.9 0.29 353.24 0.24 C 353.83 0.15 354.27 -0.05 354.51 -0.29 C 354.81 -0.49 355.05 -0.78 355.2 -1.18 C 355.35 -1.57 355.49 -1.91 355.54 -2.25 C 355.64 -2.65 355.69 -2.94 355.69 -3.14 L 355.69 -3.63 L 355.79 -15.19 L 368.38 -15.24 L 368.28 -5.19 C 368.28 -4.85 368.23 -4.61 368.19 -4.46 C 368.19 -4.12 368.14 -3.97 368.28 -3.63 C 368.33 -3.28 368.38 -2.99 368.38 -2.65 C 368.43 -2.25 368.48 -1.91 368.63 -1.57 C 368.68 -1.42 368.72 -1.32 368.72 -1.27 C 368.77 -1.13 368.87 -1.03 368.92 -0.98 C 369.07 -0.59 369.36 -0.24 369.8 0 C 370.29 0.24 370.83 0.34 371.37 0.34 C 371.66 0.34 371.96 0.29 372.3 0.24 C 372.89 0.15 373.33 -0.05 373.58 -0.29 C 373.87 -0.49 374.11 -0.78 374.26 -1.18 C 374.41 -1.57 374.56 -1.91 374.6 -2.25 C 374.7 -2.65 374.75 -2.94 374.75 -3.14 L 374.75 -3.63 L 375.05 -29.06 L 375.05 -31.65 C 375.05 -31.85 375.05 -32.05 375 -32.29 Z M 387.25 -16.27 L 387.15 -5.19 L 387.15 -4.46 C 387.15 -4.31 387.15 -4.17 387.15 -4.02 L 387.15 -3.63 C 387.2 -3.58 387.2 -3.48 387.2 -3.38 L 387.25 -2.89 C 387.3 -2.84 387.3 -2.74 387.3 -2.65 C 387.3 -2.25 387.34 -1.91 387.49 -1.57 C 387.54 -1.52 387.54 -1.52 387.54 -1.47 L 387.64 -1.37 C 387.69 -1.32 387.69 -1.32 387.69 -1.27 C 387.69 -1.18 387.74 -1.08 387.83 -0.98 C 387.98 -0.59 388.28 -0.24 388.67 0 C 389.16 0.24 389.7 0.34 390.24 0.34 C 390.53 0.34 390.87 0.29 391.17 0.24 C 391.75 0.15 392.2 -0.05 392.44 -0.29 C 392.78 -0.54 392.98 -0.83 393.18 -1.18 C 393.32 -1.57 393.37 -1.91 393.52 -2.25 C 393.57 -2.65 393.62 -2.94 393.62 -3.14 L 393.62 -3.63 L 393.91 -29.06 L 393.91 -29.89 C 393.91 -30.28 393.96 -30.63 393.96 -31.07 C 393.96 -31.46 393.91 -31.85 393.86 -32.29 C 393.81 -32.68 393.71 -33.03 393.57 -33.42 C 393.42 -33.76 393.22 -34.05 393.03 -34.2 C 392.69 -34.55 392.34 -34.74 391.9 -34.79 C 391.51 -34.84 391.12 -34.89 390.58 -34.89 C 390.09 -34.89 389.6 -34.74 389.06 -34.5 C 388.62 -34.15 388.28 -33.76 388.03 -33.32 C 387.69 -32.63 387.54 -32 387.49 -31.41 C 387.49 -30.67 387.44 -29.99 387.39 -29.35 L 387.39 -29.16 C 387.34 -28.03 387.3 -27 387.3 -26.07 L 387.3 -19.5 C 387.3 -18.38 387.3 -17.3 387.25 -16.27 Z M 412.73 -28.81 L 412.73 -28.96 L 425.47 -29.01 C 425.66 -29.01 425.91 -29.06 426.15 -29.11 C 426.54 -29.16 426.99 -29.16 427.38 -29.3 C 427.77 -29.45 428.06 -29.64 428.31 -29.79 C 428.65 -30.14 428.85 -30.48 428.9 -30.82 C 429.04 -31.16 428.99 -31.51 428.99 -31.9 C 428.99 -32.34 428.85 -32.83 428.55 -33.27 C 428.21 -33.66 427.72 -33.96 427.18 -34.1 C 426.45 -34.35 425.76 -34.55 425.03 -34.55 C 424.78 -34.59 424.49 -34.59 424.19 -34.59 L 423.6 -34.59 C 423.31 -34.59 423.02 -34.59 422.77 -34.64 L 422.58 -34.64 C 420.08 -34.69 417.82 -34.69 415.23 -34.64 C 413.85 -34.64 413.17 -34.59 412.53 -34.59 L 410.03 -34.59 L 410.03 -34.55 C 409.88 -34.59 409.69 -34.59 409.44 -34.59 C 408.9 -34.59 408.41 -34.45 407.92 -34.15 C 407.39 -33.91 407.14 -33.52 406.9 -32.98 C 406.55 -32.34 406.41 -31.7 406.36 -31.07 C 406.36 -30.43 406.31 -29.84 406.26 -29.11 L 406.26 -28.86 C 406.21 -26.71 406.16 -25.09 406.16 -22.74 L 406.16 -16.22 L 406.06 -9.16 L 406.06 -5.34 L 406.06 -5.15 L 406.01 -4.75 L 406.01 -4.56 L 406.01 -3.77 C 406.06 -3.72 406.06 -3.63 406.06 -3.53 L 406.11 -3.04 C 406.16 -2.99 406.16 -2.89 406.16 -2.79 C 406.16 -2.45 406.21 -2.11 406.36 -1.76 C 406.41 -1.72 406.41 -1.72 406.41 -1.67 L 406.5 -1.57 C 406.55 -1.52 406.55 -1.52 406.55 -1.47 C 406.55 -1.37 406.6 -1.27 406.7 -1.18 C 406.9 -0.78 407.19 -0.49 407.53 -0.24 C 407.92 0.05 408.46 0.15 409.05 0.15 L 409.39 0.15 L 411.65 0.15 C 412.24 0.15 412.92 0.2 414.25 0.2 C 415.62 0.24 416.99 0.24 418.31 0.24 C 419.64 0.24 420.91 0.24 422.18 0.2 L 422.48 0.2 C 422.72 0.15 423.02 0.15 423.31 0.15 L 423.9 0.15 C 424.19 0.15 424.49 0.15 424.73 0.1 C 425.56 0.1 426.3 -0.05 426.99 -0.34 C 427.52 -0.49 427.97 -0.78 428.36 -1.23 C 428.7 -1.67 428.85 -2.11 428.85 -2.65 C 428.85 -2.79 428.9 -2.89 428.9 -3.04 L 428.8 -3.72 C 428.7 -4.07 428.5 -4.41 428.16 -4.75 C 427.92 -5 427.57 -5.15 427.18 -5.29 C 426.79 -5.44 426.4 -5.39 425.86 -5.54 C 425.66 -5.59 425.47 -5.59 425.22 -5.59 L 422.18 -5.59 L 412.43 -5.68 L 412.53 -15.29 L 423.9 -15.34 C 424.34 -15.34 424.83 -15.39 425.27 -15.48 C 425.71 -15.53 426.1 -15.58 426.54 -15.73 C 426.99 -15.83 427.33 -15.97 427.48 -16.22 C 427.82 -16.51 428.06 -16.86 428.11 -17.2 C 428.26 -17.54 428.21 -17.98 428.21 -18.33 C 428.21 -18.87 428.06 -19.31 427.72 -19.75 C 427.38 -20.14 426.89 -20.43 426.35 -20.63 C 425.61 -20.82 424.93 -21.02 424.14 -21.07 C 423.41 -21.07 422.67 -21.12 421.89 -21.12 L 421.64 -21.12 C 419.1 -21.17 417.28 -21.17 414.59 -21.12 L 412.63 -21.12 Z M 464.96 -14.26 C 464.13 -16.95 462.02 -18.82 459.13 -19.94 C 456.34 -21.07 453.35 -20.97 450.41 -21.36 C 448.5 -21.61 446.24 -22.3 446.1 -24.4 L 446.1 -24.84 C 446.1 -27.2 448.01 -28.81 451 -29.2 C 451.39 -29.25 451.83 -29.25 452.27 -29.25 C 453.79 -29.25 456.19 -29.06 457.95 -27.73 C 458.59 -27.2 459.42 -26.51 460.26 -26.02 C 461.09 -25.53 461.68 -25.53 461.78 -25.53 C 462.22 -25.53 462.66 -25.68 463.1 -25.97 C 464.32 -26.75 464.18 -27.54 464.18 -27.83 C 464.18 -28.27 464.08 -28.71 463.88 -29.25 C 463.49 -30.28 462.51 -31.51 461.68 -32.14 C 459.33 -34.1 454.82 -34.89 451.88 -34.89 L 451.14 -34.89 C 447.61 -34.74 444.67 -34.05 442.57 -32.14 C 440.41 -30.04 439.63 -27.29 439.63 -25.04 C 439.63 -24.7 439.68 -24.06 439.77 -23.18 C 439.87 -22.25 440.31 -21.17 441.1 -19.89 C 441.88 -18.62 443.01 -17.69 444.53 -17.05 C 447.52 -15.73 450.9 -15.97 454.03 -15.34 C 456.78 -14.7 458.69 -13.72 458.69 -10.68 C 458.69 -8.77 457.46 -7.25 455.7 -6.42 C 453.89 -5.59 452.51 -5.68 452.17 -5.68 C 451.24 -5.68 450.36 -5.83 449.43 -6.13 C 447.91 -6.86 446.49 -8.04 445.75 -9.41 C 444.97 -11.07 442.96 -11.32 441.59 -11.03 C 440.02 -10.63 439.58 -9.11 439.58 -8.13 C 439.58 -7.89 439.58 -7.25 439.97 -6.52 C 441 -4.41 442.47 -2.7 444.58 -1.52 C 446.24 -0.59 447.71 -0.1 449.04 0 C 450.36 0.1 451.24 0.15 451.73 0.15 C 453.35 0.15 455.06 -0.1 456.83 -0.59 C 458.64 -1.08 460.31 -1.96 461.87 -3.19 C 463.44 -4.41 464.47 -5.93 465.01 -7.74 C 465.55 -9.51 465.6 -12.4 464.96 -14.26 Z" stroke-linecap="round" />
</g>
</g>
</g>
<g transform="matrix(1.9211538461538462 0 0 1.9211538461538462 539.7723917616396 432.6015975307948)" id="tagline-e0ef5aca-161a-47f9-8ce8-18557f9236ec-logo"  >
<g style=""  paint-order="stroke"   >
		<g transform="matrix(1 0 0 1 0 0)" id="tagline-e0ef5aca-161a-47f9-8ce8-18557f9236ec-logo-path-0"  >
<filter id="SVGID_369690" y="-20.962927298988927%" height="141.92585459797786%" x="-20.851136266916335%" width="141.70227253383268%" >
	<feGaussianBlur in="SourceAlpha" stdDeviation="0.5"></feGaussianBlur>
	<feOffset dx="0" dy="0" result="oBlur" ></feOffset>
	<feFlood flood-color="rgb(0,0,0)" flood-opacity="1"/>
	<feComposite in2="oBlur" operator="in" />
	<feMerge>
		<feMergeNode></feMergeNode>
		<feMergeNode in="SourceGraphic"></feMergeNode>
	</feMerge>
</filter>
<path style="stroke: rgb(255,255,255); stroke-width: 0; stroke-dasharray: none; stroke-linecap: butt; stroke-dashoffset: 0; stroke-linejoin: miter; stroke-miterlimit: 4; fill: rgb(101,248,255); fill-rule: nonzero; opacity: 1;filter: url(#SVGID_369690);"  paint-order="stroke"  transform=" translate(-66.495, 51.925)" d="M 32.55 0 L 32.55 -49.29 L 52.85 0 L 79.98 0 L 100.44 -49.6 L 100.44 0 L 125.24 0 L 125.24 -103.85 L 95.79 -103.85 L 66.5 -32.55 L 37.05 -103.85 L 7.75 -103.85 L 7.75 0 Z" stroke-linecap="round" />
</g>
</g>
</g>
<g transform="matrix(1.9211538461538462 0 0 1.9211538461538462 737.7835839047028 431.47607033848703)" id="tagline-402ca2aa-ea19-43a7-9852-3c41c5271c04-logo"  >
<g style=""  paint-order="stroke"   >
		<g transform="matrix(1 0 0 1 0 0)" id="tagline-402ca2aa-ea19-43a7-9852-3c41c5271c04-logo-path-0"  >
<linearGradient id="SVGID_369706" gradientUnits="userSpaceOnUse" gradientTransform="matrix(1 0 0 1 7.799999999999997 -104.52)"  x1="126.0088893127442" y1="-22.017784656372044" x2="-7.838889312744072" y2="133.04610465637205">
<stop offset="50.500000000000036%" style="stop-color:rgb(255,182,161);stop-opacity: 1"/>
<stop offset="95.5%" style="stop-color:rgb(255,134,134);stop-opacity: 1"/>
</linearGradient>
<filter id="SVGID_369696" y="-20.956754688097973%" height="141.91350937619595%" x="-20.84566596194503%" width="141.69133192389006%" >
	<feGaussianBlur in="SourceAlpha" stdDeviation="0.5"></feGaussianBlur>
	<feOffset dx="0" dy="0" result="oBlur" ></feOffset>
	<feFlood flood-color="rgb(0,0,0)" flood-opacity="1"/>
	<feComposite in2="oBlur" operator="in" />
	<feMerge>
		<feMergeNode></feMergeNode>
		<feMergeNode in="SourceGraphic"></feMergeNode>
	</feMerge>
</filter>
<path style="stroke: rgb(255,255,255); stroke-width: 0; stroke-dasharray: none; stroke-linecap: butt; stroke-dashoffset: 0; stroke-linejoin: miter; stroke-miterlimit: 4; fill: url(#SVGID_369706); fill-rule: nonzero; opacity: 1;filter: url(#SVGID_369696);"  paint-order="stroke"  transform=" translate(-66.925, 52.26)" d="M 32.76 0 L 32.76 -49.61 L 53.2 0 L 80.5 0 L 101.09 -49.92 L 101.09 0 L 126.05 0 L 126.05 -104.52 L 96.41 -104.52 L 66.92 -32.76 L 37.28 -104.52 L 7.8 -104.52 L 7.8 0 Z" stroke-linecap="round" />
</g>
</g>
</g>
</svg>