<?xml version="1.0" encoding="UTF-8" standalone="no" ?>
<!DOCTYPE svg PUBLIC "-//W3C//DTD SVG 1.1//EN" "http://www.w3.org/Graphics/SVG/1.1/DTD/svg11.dtd">
<svg xmlns="http://www.w3.org/2000/svg" xmlns:xlink="http://www.w3.org/1999/xlink" version="1.1" width="1080" height="1080" viewBox="0 0 1080 1080" xml:space="preserve">
<desc>Created with Fabric.js 5.3.0</desc>
<defs>
</defs>
<g transform="matrix(1.5889642759677545 0 0 1.5889642759677545 540.2478538290366 540.338325991333)" id="background-2aab12e9-ca1c-4e63-9cc6-d6a47512bdfc"  >
<rect style="stroke: none; stroke-width: 0; stroke-dasharray: none; stroke-linecap: butt; stroke-dashoffset: 0; stroke-linejoin: miter; stroke-miterlimit: 4; fill: rgb(218,4,45); fill-rule: nonzero; opacity: 1;"  paint-order="stroke"  x="-340" y="-340" rx="0" ry="0" width="680" height="680" />
</g>
<g transform="matrix(1.5889642759677545 0 0 1.5889642759677545 541.5766947574027 417.45678890185684)" id="tagline-e88f70e1-d15a-40c1-90eb-7ee8f0b72cd1-logo"  >
<g style=""  paint-order="stroke"   >
		<g transform="matrix(1 0 0 1 0 0)" id="tagline-e88f70e1-d15a-40c1-90eb-7ee8f0b72cd1-logo-path-0"  >
<path style="stroke: rgb(217,0,45); stroke-width: 3; stroke-dasharray: none; stroke-linecap: butt; stroke-dashoffset: 0; stroke-linejoin: miter; stroke-miterlimit: 4; fill: rgb(92,224,230); fill-rule: nonzero; opacity: 1;"  paint-order="stroke"  transform=" translate(-314.16, 59.5)" d="M 63.41 -27.88 L 63.41 -34 L 46.41 -34 L 46.41 -28.05 C 46.41 -21.59 40.97 -16.15 34.51 -16.15 C 27.88 -16.15 22.61 -21.59 22.61 -28.05 L 22.61 -90.95 C 22.61 -97.41 27.88 -102.85 34.51 -102.85 C 40.97 -102.85 46.41 -97.41 46.41 -90.95 L 46.41 -85 L 63.41 -85 L 63.41 -91.12 C 63.41 -106.76 50.32 -119.85 34.68 -119.85 C 18.36 -119.85 5.61 -106.76 5.61 -91.12 L 5.61 -27.88 C 5.61 -12.24 18.36 0.85 34.68 0.85 C 50.32 0.85 63.41 -12.24 63.41 -27.88 Z M 111.69 -90.95 L 111.69 -28.05 C 111.69 -21.59 106.25 -16.15 99.79 -16.15 C 93.16 -16.15 87.89 -21.59 87.89 -28.05 L 87.89 -90.95 C 87.89 -97.41 93.16 -102.85 99.79 -102.85 C 106.25 -102.85 111.69 -97.41 111.69 -90.95 Z M 70.89 -27.88 C 70.89 -12.24 83.64 0.85 99.96 0.85 C 115.6 0.85 128.69 -12.24 128.69 -27.88 L 128.69 -91.12 C 128.69 -106.76 115.6 -119.85 99.96 -119.85 C 83.64 -119.85 70.89 -106.76 70.89 -91.12 Z M 136.17 -119 L 136.17 0 L 153.17 0 L 153.17 -69.36 L 176.97 0 L 193.97 0 L 193.97 -119 L 176.97 -119 L 176.97 -49.64 L 153.17 -119 Z M 259.25 -119 L 201.45 -119 L 201.45 -102 L 221.85 -102 L 221.85 0 L 238.85 0 L 238.85 -102 L 259.25 -102 Z M 292.23 -119 L 266.73 0 L 283.73 0 L 288.49 -22.1 L 312.97 -22.1 L 317.73 0 L 334.73 0 L 309.23 -119 Z M 292.06 -39.1 L 300.73 -79.39 L 309.4 -39.1 Z M 396.61 -27.88 L 396.61 -34 L 379.61 -34 L 379.61 -28.05 C 379.61 -21.59 374.17 -16.15 367.71 -16.15 C 361.08 -16.15 355.81 -21.59 355.81 -28.05 L 355.81 -90.95 C 355.81 -97.41 361.08 -102.85 367.71 -102.85 C 374.17 -102.85 379.61 -97.41 379.61 -90.95 L 379.61 -85 L 396.61 -85 L 396.61 -91.12 C 396.61 -106.76 383.52 -119.85 367.88 -119.85 C 351.56 -119.85 338.81 -106.76 338.81 -91.12 L 338.81 -27.88 C 338.81 -12.24 351.56 0.85 367.88 0.85 C 383.52 0.85 396.61 -12.24 396.61 -27.88 Z M 461.89 -119 L 404.09 -119 L 404.09 -102 L 424.49 -102 L 424.49 0 L 441.49 0 L 441.49 -102 L 461.89 -102 Z M 516.63 -28.05 L 516.63 -119 L 499.63 -119 L 499.63 -27.88 C 499.63 -12.24 512.38 0.85 528.7 0.85 C 544.34 0.85 557.43 -12.24 557.43 -27.88 L 557.43 -119 L 540.43 -119 L 540.43 -28.05 C 540.43 -21.59 534.99 -16.15 528.53 -16.15 C 521.9 -16.15 516.63 -21.59 516.63 -28.05 Z M 593.64 0.85 C 609.96 0.85 622.71 -12.24 622.71 -27.88 C 622.71 -60.01 581.91 -72.25 581.91 -90.95 C 581.91 -97.41 587.18 -102.85 593.81 -102.85 C 600.27 -102.85 605.71 -97.41 605.71 -90.95 L 605.71 -85 L 622.71 -85 L 622.71 -91.12 C 622.71 -106.76 609.62 -119.85 593.98 -119.85 C 577.66 -119.85 564.91 -106.76 564.91 -91.12 C 564.91 -62.05 605.71 -49.64 605.71 -28.05 C 605.71 -21.59 600.44 -16.15 593.81 -16.15 C 587.35 -16.15 581.91 -21.59 581.91 -28.05 L 581.91 -34 L 564.91 -34 L 564.91 -27.88 C 564.91 -12.24 578 0.85 593.64 0.85 Z" stroke-linecap="round" />
</g>
</g>
</g>
<g transform="matrix(8.673459636926493 0 0 8.673459636926493 153.37206262936996 531.5304175817441)" id="shape-95250644-cddf-4ffc-ba81-8b653061bc01"  >
<polygon style="stroke: none; stroke-width: 0; stroke-dasharray: none; stroke-linecap: butt; stroke-dashoffset: 0; stroke-linejoin: miter; stroke-miterlimit: 4; fill: rgb(255,236,242); fill-rule: nonzero; opacity: 1;"  paint-order="stroke"  points="0,-5.265000000000001 6.719999999999999,-16.22500000000001 3.7299999999999898,-3.7250000000000085 16.22999999999999,-6.7250000000000085 5.269999999999996,0.0049999999999954525 16.22999999999999,6.724999999999994 3.7299999999999898,3.7249999999999943 6.719999999999999,16.224999999999994 0,5.2749999999999915 -6.719999999999999,16.224999999999994 -3.730000000000004,3.7249999999999943 -16.230000000000004,6.724999999999994 -5.27000000000001,0.0049999999999954525 -16.230000000000004,-6.7250000000000085 -3.730000000000004,-3.7250000000000085 -6.719999999999999,-16.22500000000001 0,-5.265000000000001 " />
</g>
<g transform="matrix(1.5889642759677545 0 0 1.5889642759677545 541.5766947574027 655.8660151077178)" id="tagline-0a229311-08b6-4ad0-8116-64a03f7b74ef-logo"  >
<g style=""  paint-order="stroke"   >
		<g transform="matrix(1 0 0 1 0 0)" id="tagline-0a229311-08b6-4ad0-8116-64a03f7b74ef-logo-path-0"  >
<path style="stroke: rgb(217,0,45); stroke-width: 3; stroke-dasharray: none; stroke-linecap: butt; stroke-dashoffset: 0; stroke-linejoin: miter; stroke-miterlimit: 4; fill: rgb(92,224,230); fill-rule: nonzero; opacity: 1;"  paint-order="stroke"  transform=" translate(-314.16, 59.5)" d="M 63.41 -27.88 L 63.41 -34 L 46.41 -34 L 46.41 -28.05 C 46.41 -21.59 40.97 -16.15 34.51 -16.15 C 27.88 -16.15 22.61 -21.59 22.61 -28.05 L 22.61 -90.95 C 22.61 -97.41 27.88 -102.85 34.51 -102.85 C 40.97 -102.85 46.41 -97.41 46.41 -90.95 L 46.41 -85 L 63.41 -85 L 63.41 -91.12 C 63.41 -106.76 50.32 -119.85 34.68 -119.85 C 18.36 -119.85 5.61 -106.76 5.61 -91.12 L 5.61 -27.88 C 5.61 -12.24 18.36 0.85 34.68 0.85 C 50.32 0.85 63.41 -12.24 63.41 -27.88 Z M 111.69 -90.95 L 111.69 -28.05 C 111.69 -21.59 106.25 -16.15 99.79 -16.15 C 93.16 -16.15 87.89 -21.59 87.89 -28.05 L 87.89 -90.95 C 87.89 -97.41 93.16 -102.85 99.79 -102.85 C 106.25 -102.85 111.69 -97.41 111.69 -90.95 Z M 70.89 -27.88 C 70.89 -12.24 83.64 0.85 99.96 0.85 C 115.6 0.85 128.69 -12.24 128.69 -27.88 L 128.69 -91.12 C 128.69 -106.76 115.6 -119.85 99.96 -119.85 C 83.64 -119.85 70.89 -106.76 70.89 -91.12 Z M 136.17 -119 L 136.17 0 L 153.17 0 L 153.17 -69.36 L 176.97 0 L 193.97 0 L 193.97 -119 L 176.97 -119 L 176.97 -49.64 L 153.17 -119 Z M 259.25 -119 L 201.45 -119 L 201.45 -102 L 221.85 -102 L 221.85 0 L 238.85 0 L 238.85 -102 L 259.25 -102 Z M 292.23 -119 L 266.73 0 L 283.73 0 L 288.49 -22.1 L 312.97 -22.1 L 317.73 0 L 334.73 0 L 309.23 -119 Z M 292.06 -39.1 L 300.73 -79.39 L 309.4 -39.1 Z M 396.61 -27.88 L 396.61 -34 L 379.61 -34 L 379.61 -28.05 C 379.61 -21.59 374.17 -16.15 367.71 -16.15 C 361.08 -16.15 355.81 -21.59 355.81 -28.05 L 355.81 -90.95 C 355.81 -97.41 361.08 -102.85 367.71 -102.85 C 374.17 -102.85 379.61 -97.41 379.61 -90.95 L 379.61 -85 L 396.61 -85 L 396.61 -91.12 C 396.61 -106.76 383.52 -119.85 367.88 -119.85 C 351.56 -119.85 338.81 -106.76 338.81 -91.12 L 338.81 -27.88 C 338.81 -12.24 351.56 0.85 367.88 0.85 C 383.52 0.85 396.61 -12.24 396.61 -27.88 Z M 461.89 -119 L 404.09 -119 L 404.09 -102 L 424.49 -102 L 424.49 0 L 441.49 0 L 441.49 -102 L 461.89 -102 Z M 516.63 -28.05 L 516.63 -119 L 499.63 -119 L 499.63 -27.88 C 499.63 -12.24 512.38 0.85 528.7 0.85 C 544.34 0.85 557.43 -12.24 557.43 -27.88 L 557.43 -119 L 540.43 -119 L 540.43 -28.05 C 540.43 -21.59 534.99 -16.15 528.53 -16.15 C 521.9 -16.15 516.63 -21.59 516.63 -28.05 Z M 593.64 0.85 C 609.96 0.85 622.71 -12.24 622.71 -27.88 C 622.71 -60.01 581.91 -72.25 581.91 -90.95 C 581.91 -97.41 587.18 -102.85 593.81 -102.85 C 600.27 -102.85 605.71 -97.41 605.71 -90.95 L 605.71 -85 L 622.71 -85 L 622.71 -91.12 C 622.71 -106.76 609.62 -119.85 593.98 -119.85 C 577.66 -119.85 564.91 -106.76 564.91 -91.12 C 564.91 -62.05 605.71 -49.64 605.71 -28.05 C 605.71 -21.59 600.44 -16.15 593.81 -16.15 C 587.35 -16.15 581.91 -21.59 581.91 -28.05 L 581.91 -34 L 564.91 -34 L 564.91 -27.88 C 564.91 -12.24 578 0.85 593.64 0.85 Z" stroke-linecap="round" />
</g>
</g>
</g>
<g transform="matrix(9.37116719390858 0 0 9.37116719390858 920.7753963851233 792.6894036453211)" id="shape-1569b3e9-022d-45f7-a020-4f0e427d6258"  >
<polygon style="stroke: none; stroke-width: 0; stroke-dasharray: none; stroke-linecap: butt; stroke-dashoffset: 0; stroke-linejoin: miter; stroke-miterlimit: 4; fill: rgb(255,236,242); fill-rule: nonzero; opacity: 1;"  paint-order="stroke"  points="-2.842171e-14,-4.849999999999966 6.179999999999978,-14.919999999999987 3.4299999999999784,-3.4299999999999784 14.919999999999987,-6.179999999999978 4.839999999999975,2.842171e-14 14.919999999999987,6.180000000000035 3.4299999999999784,3.4300000000000352 6.179999999999978,14.920000000000016 -2.842171e-14,4.850000000000023 -6.180000000000035,14.920000000000016 -3.4300000000000352,3.4300000000000352 -14.920000000000016,6.180000000000035 -4.850000000000023,2.842171e-14 -14.920000000000016,-6.179999999999978 -3.4300000000000352,-3.4299999999999784 -6.180000000000035,-14.919999999999987 -2.842171e-14,-4.849999999999966 " />
</g>
<g transform="matrix(1.5889642759677545 0 0 1.5889642759677545 541.5766947574026 901.6118548468718)" id="tagline-48ca162a-2ad9-4745-b5fe-28745ac97b9c-logo"  >
<g style=""  paint-order="stroke"   >
		<g transform="matrix(1 0 0 1 5.684342e-14 0)" id="tagline-48ca162a-2ad9-4745-b5fe-28745ac97b9c-logo-path-0"  >
<path style="stroke: rgb(217,0,45); stroke-width: 3; stroke-dasharray: none; stroke-linecap: butt; stroke-dashoffset: 0; stroke-linejoin: miter; stroke-miterlimit: 4; fill: rgb(92,224,230); fill-rule: nonzero; opacity: 1;"  paint-order="stroke"  transform=" translate(-314.16, 59.5)" d="M 63.41 -27.88 L 63.41 -34 L 46.41 -34 L 46.41 -28.05 C 46.41 -21.59 40.97 -16.15 34.51 -16.15 C 27.88 -16.15 22.61 -21.59 22.61 -28.05 L 22.61 -90.95 C 22.61 -97.41 27.88 -102.85 34.51 -102.85 C 40.97 -102.85 46.41 -97.41 46.41 -90.95 L 46.41 -85 L 63.41 -85 L 63.41 -91.12 C 63.41 -106.76 50.32 -119.85 34.68 -119.85 C 18.36 -119.85 5.61 -106.76 5.61 -91.12 L 5.61 -27.88 C 5.61 -12.24 18.36 0.85 34.68 0.85 C 50.32 0.85 63.41 -12.24 63.41 -27.88 Z M 111.69 -90.95 L 111.69 -28.05 C 111.69 -21.59 106.25 -16.15 99.79 -16.15 C 93.16 -16.15 87.89 -21.59 87.89 -28.05 L 87.89 -90.95 C 87.89 -97.41 93.16 -102.85 99.79 -102.85 C 106.25 -102.85 111.69 -97.41 111.69 -90.95 Z M 70.89 -27.88 C 70.89 -12.24 83.64 0.85 99.96 0.85 C 115.6 0.85 128.69 -12.24 128.69 -27.88 L 128.69 -91.12 C 128.69 -106.76 115.6 -119.85 99.96 -119.85 C 83.64 -119.85 70.89 -106.76 70.89 -91.12 Z M 136.17 -119 L 136.17 0 L 153.17 0 L 153.17 -69.36 L 176.97 0 L 193.97 0 L 193.97 -119 L 176.97 -119 L 176.97 -49.64 L 153.17 -119 Z M 259.25 -119 L 201.45 -119 L 201.45 -102 L 221.85 -102 L 221.85 0 L 238.85 0 L 238.85 -102 L 259.25 -102 Z M 292.23 -119 L 266.73 0 L 283.73 0 L 288.49 -22.1 L 312.97 -22.1 L 317.73 0 L 334.73 0 L 309.23 -119 Z M 292.06 -39.1 L 300.73 -79.39 L 309.4 -39.1 Z M 396.61 -27.88 L 396.61 -34 L 379.61 -34 L 379.61 -28.05 C 379.61 -21.59 374.17 -16.15 367.71 -16.15 C 361.08 -16.15 355.81 -21.59 355.81 -28.05 L 355.81 -90.95 C 355.81 -97.41 361.08 -102.85 367.71 -102.85 C 374.17 -102.85 379.61 -97.41 379.61 -90.95 L 379.61 -85 L 396.61 -85 L 396.61 -91.12 C 396.61 -106.76 383.52 -119.85 367.88 -119.85 C 351.56 -119.85 338.81 -106.76 338.81 -91.12 L 338.81 -27.88 C 338.81 -12.24 351.56 0.85 367.88 0.85 C 383.52 0.85 396.61 -12.24 396.61 -27.88 Z M 461.89 -119 L 404.09 -119 L 404.09 -102 L 424.49 -102 L 424.49 0 L 441.49 0 L 441.49 -102 L 461.89 -102 Z M 516.63 -28.05 L 516.63 -119 L 499.63 -119 L 499.63 -27.88 C 499.63 -12.24 512.38 0.85 528.7 0.85 C 544.34 0.85 557.43 -12.24 557.43 -27.88 L 557.43 -119 L 540.43 -119 L 540.43 -28.05 C 540.43 -21.59 534.99 -16.15 528.53 -16.15 C 521.9 -16.15 516.63 -21.59 516.63 -28.05 Z M 593.64 0.85 C 609.96 0.85 622.71 -12.24 622.71 -27.88 C 622.71 -60.01 581.91 -72.25 581.91 -90.95 C 581.91 -97.41 587.18 -102.85 593.81 -102.85 C 600.27 -102.85 605.71 -97.41 605.71 -90.95 L 605.71 -85 L 622.71 -85 L 622.71 -91.12 C 622.71 -106.76 609.62 -119.85 593.98 -119.85 C 577.66 -119.85 564.91 -106.76 564.91 -91.12 C 564.91 -62.05 605.71 -49.64 605.71 -28.05 C 605.71 -21.59 600.44 -16.15 593.81 -16.15 C 587.35 -16.15 581.91 -21.59 581.91 -28.05 L 581.91 -34 L 564.91 -34 L 564.91 -27.88 C 564.91 -12.24 578 0.85 593.64 0.85 Z" stroke-linecap="round" />
</g>
</g>
</g>
<g transform="matrix(1.5889642759677545 0 0 1.5889642759677545 541.5766947574027 166.74743736913388)" id="tagline-4bafc034-9a49-40a1-999a-a998c2bf0bd8-logo"  >
<g style=""  paint-order="stroke"   >
		<g transform="matrix(1 0 0 1 0 0)" id="tagline-4bafc034-9a49-40a1-999a-a998c2bf0bd8-logo-path-0"  >
<path style="stroke: rgb(217,0,45); stroke-width: 3; stroke-dasharray: none; stroke-linecap: butt; stroke-dashoffset: 0; stroke-linejoin: miter; stroke-miterlimit: 4; fill: rgb(92,224,230); fill-rule: nonzero; opacity: 1;"  paint-order="stroke"  transform=" translate(-314.16, 59.5)" d="M 63.41 -27.88 L 63.41 -34 L 46.41 -34 L 46.41 -28.05 C 46.41 -21.59 40.97 -16.15 34.51 -16.15 C 27.88 -16.15 22.61 -21.59 22.61 -28.05 L 22.61 -90.95 C 22.61 -97.41 27.88 -102.85 34.51 -102.85 C 40.97 -102.85 46.41 -97.41 46.41 -90.95 L 46.41 -85 L 63.41 -85 L 63.41 -91.12 C 63.41 -106.76 50.32 -119.85 34.68 -119.85 C 18.36 -119.85 5.61 -106.76 5.61 -91.12 L 5.61 -27.88 C 5.61 -12.24 18.36 0.85 34.68 0.85 C 50.32 0.85 63.41 -12.24 63.41 -27.88 Z M 111.69 -90.95 L 111.69 -28.05 C 111.69 -21.59 106.25 -16.15 99.79 -16.15 C 93.16 -16.15 87.89 -21.59 87.89 -28.05 L 87.89 -90.95 C 87.89 -97.41 93.16 -102.85 99.79 -102.85 C 106.25 -102.85 111.69 -97.41 111.69 -90.95 Z M 70.89 -27.88 C 70.89 -12.24 83.64 0.85 99.96 0.85 C 115.6 0.85 128.69 -12.24 128.69 -27.88 L 128.69 -91.12 C 128.69 -106.76 115.6 -119.85 99.96 -119.85 C 83.64 -119.85 70.89 -106.76 70.89 -91.12 Z M 136.17 -119 L 136.17 0 L 153.17 0 L 153.17 -69.36 L 176.97 0 L 193.97 0 L 193.97 -119 L 176.97 -119 L 176.97 -49.64 L 153.17 -119 Z M 259.25 -119 L 201.45 -119 L 201.45 -102 L 221.85 -102 L 221.85 0 L 238.85 0 L 238.85 -102 L 259.25 -102 Z M 292.23 -119 L 266.73 0 L 283.73 0 L 288.49 -22.1 L 312.97 -22.1 L 317.73 0 L 334.73 0 L 309.23 -119 Z M 292.06 -39.1 L 300.73 -79.39 L 309.4 -39.1 Z M 396.61 -27.88 L 396.61 -34 L 379.61 -34 L 379.61 -28.05 C 379.61 -21.59 374.17 -16.15 367.71 -16.15 C 361.08 -16.15 355.81 -21.59 355.81 -28.05 L 355.81 -90.95 C 355.81 -97.41 361.08 -102.85 367.71 -102.85 C 374.17 -102.85 379.61 -97.41 379.61 -90.95 L 379.61 -85 L 396.61 -85 L 396.61 -91.12 C 396.61 -106.76 383.52 -119.85 367.88 -119.85 C 351.56 -119.85 338.81 -106.76 338.81 -91.12 L 338.81 -27.88 C 338.81 -12.24 351.56 0.85 367.88 0.85 C 383.52 0.85 396.61 -12.24 396.61 -27.88 Z M 461.89 -119 L 404.09 -119 L 404.09 -102 L 424.49 -102 L 424.49 0 L 441.49 0 L 441.49 -102 L 461.89 -102 Z M 516.63 -28.05 L 516.63 -119 L 499.63 -119 L 499.63 -27.88 C 499.63 -12.24 512.38 0.85 528.7 0.85 C 544.34 0.85 557.43 -12.24 557.43 -27.88 L 557.43 -119 L 540.43 -119 L 540.43 -28.05 C 540.43 -21.59 534.99 -16.15 528.53 -16.15 C 521.9 -16.15 516.63 -21.59 516.63 -28.05 Z M 593.64 0.85 C 609.96 0.85 622.71 -12.24 622.71 -27.88 C 622.71 -60.01 581.91 -72.25 581.91 -90.95 C 581.91 -97.41 587.18 -102.85 593.81 -102.85 C 600.27 -102.85 605.71 -97.41 605.71 -90.95 L 605.71 -85 L 622.71 -85 L 622.71 -91.12 C 622.71 -106.76 609.62 -119.85 593.98 -119.85 C 577.66 -119.85 564.91 -106.76 564.91 -91.12 C 564.91 -62.05 605.71 -49.64 605.71 -28.05 C 605.71 -21.59 600.44 -16.15 593.81 -16.15 C 587.35 -16.15 581.91 -21.59 581.91 -28.05 L 581.91 -34 L 564.91 -34 L 564.91 -27.88 C 564.91 -12.24 578 0.85 593.64 0.85 Z" stroke-linecap="round" />
</g>
</g>
</g>
<g transform="matrix(1.5889642759677545 0 0 1.5889642759677545 125.6645489830907 855.3237130471566)" id="tagline-a3a5aa3c-bb21-455f-9fc6-430cd16b77ba-logo"  >
<g style=""  paint-order="stroke"   >
		<g transform="matrix(1 0 0 1 0 0)" id="tagline-a3a5aa3c-bb21-455f-9fc6-430cd16b77ba-logo-path-0"  >
<path style="stroke: rgb(255,255,255); stroke-width: 0; stroke-dasharray: none; stroke-linecap: butt; stroke-dashoffset: 0; stroke-linejoin: miter; stroke-miterlimit: 4; fill: rgb(217,0,45); fill-rule: nonzero; opacity: 1;"  paint-order="stroke"  transform=" translate(-17.479999999999997, 37.5)" d="M 15.6 -52.5 L 15.6 -42 L 8.17 -49.42 L 5.55 -46.8 L 12.97 -39.38 L 2.48 -39.38 L 2.48 -35.63 L 12.97 -35.63 L 5.55 -28.2 L 8.17 -25.57 L 15.6 -33 L 15.6 -22.5 L 19.35 -22.5 L 19.35 -33 L 26.77 -25.57 L 29.4 -28.2 L 21.97 -35.63 L 32.48 -35.63 L 32.48 -39.38 L 21.97 -39.38 L 29.4 -46.8 L 26.77 -49.42 L 19.35 -42 L 19.35 -52.5 Z" stroke-linecap="round" />
</g>
</g>
</g>
<g transform="matrix(3.2416409674842934 0 0 3.241640967484294 1052.6633829106836 279.61739967650595)" id="shape-1c81f567-bb6f-46fb-b2ee-1aa5e1c8b72e"  >
<g style=""  paint-order="stroke"   >
		<g transform="matrix(1 0 0 1 6.475001637103176 -10.496464810559896)" id="Layer_1"  >
<path style="stroke: none; stroke-width: 1; stroke-dasharray: none; stroke-linecap: butt; stroke-dashoffset: 0; stroke-linejoin: miter; stroke-miterlimit: 4; fill: rgb(217,0,45); fill-rule: nonzero; opacity: 1;"  paint-order="stroke"  transform=" translate(-24.779760243519167, -3.39221429163511)" d="M 23.941 6.783 C 22.358 6.716 21.314999999999998 5.603000000000001 21.352 4.014 C 21.368 3.3230000000000004 21.546 2.668 21.845 2.048 C 22.424999999999997 0.845 23.901999999999997 -0.23599999999999977 24.974 0.04400000000000004 C 26.305 0.391 27.477 1.1320000000000001 28.072 2.483 C 28.269 2.931 28.233 3.4010000000000002 28.089 3.866 C 27.634 5.337 25.488 6.849 23.941 6.783 z" stroke-linecap="round" />
</g>
		<g transform="matrix(1 0 0 1 -1.3119981284470121 -0.39759550136687505)" id="Layer_1"  >
<path style="stroke: none; stroke-width: 1; stroke-dasharray: none; stroke-linecap: butt; stroke-dashoffset: 0; stroke-linejoin: miter; stroke-miterlimit: 4; fill: rgb(217,0,45); fill-rule: nonzero; opacity: 1;"  paint-order="stroke"  transform=" translate(-16.99276047796898, -13.49108360082813)" d="M 16.902 16.79 C 15.07 16.816 13.698 15.6 13.628 13.889 C 13.556000000000001 12.128 15.064 10.251 16.598 10.193999999999999 C 18.547 10.122 20.360999999999997 11.794999999999998 20.36 13.664 C 20.359 15.395 18.846 16.763 16.902 16.79 z" stroke-linecap="round" />
</g>
		<g transform="matrix(1 0 0 1 15.220127387261943 -3.0318563369184552)" id="Layer_1"  >
<path style="stroke: none; stroke-width: 1; stroke-dasharray: none; stroke-linecap: butt; stroke-dashoffset: 0; stroke-linejoin: miter; stroke-miterlimit: 4; fill: rgb(217,0,45); fill-rule: nonzero; opacity: 1;"  paint-order="stroke"  transform=" translate(-33.524885993677934, -10.85682276527655)" d="M 30.441 11.083 C 30.456999999999997 8.859 31.896 7.376 33.91 7.501 C 34.339 7.5280000000000005 34.738 7.627000000000001 35.108 7.846 C 36.162 8.471 36.892999999999994 10.592 36.501999999999995 11.902000000000001 C 36.095 13.270000000000001 34.538 14.329 33.108999999999995 14.211000000000002 C 31.514 14.079 30.429 12.807 30.441 11.083 z" stroke-linecap="round" />
</g>
		<g transform="matrix(1 0 0 1 -15.296767590686454 3.8142247897033137)" id="Layer_1"  >
<path style="stroke: none; stroke-width: 1; stroke-dasharray: none; stroke-linecap: butt; stroke-dashoffset: 0; stroke-linejoin: miter; stroke-miterlimit: 4; fill: rgb(217,0,45); fill-rule: nonzero; opacity: 1;"  paint-order="stroke"  transform=" translate(-3.007991015729538, -17.70290389189832)" d="M 2.988 20.579 C 1.299 20.558 -0.11399999999999988 19.3 0.008000000000000007 17.802 C 0.171 15.792 1.263 15.115 3.435 14.838999999999999 C 4.771 14.668999999999999 6.039 16.262999999999998 6.015000000000001 17.842 C 5.99 19.418 4.683 20.601 2.988 20.579 z" stroke-linecap="round" />
</g>
		<g transform="matrix(1 0 0 1 8.191043646550003 6.268780323983002)" id="Layer_1"  >
<path style="stroke: none; stroke-width: 1; stroke-dasharray: none; stroke-linecap: butt; stroke-dashoffset: 0; stroke-linejoin: miter; stroke-miterlimit: 4; fill: rgb(217,0,45); fill-rule: nonzero; opacity: 1;"  paint-order="stroke"  transform=" translate(-26.495802252965994, -20.157459426178008)" d="M 29.472 20.026 C 29.508000000000003 21.491 28.071 22.96 26.555 23.006999999999998 C 25.051 23.054 23.6 21.685 23.522 20.145999999999997 C 23.450999999999997 18.746999999999996 24.627 17.368999999999996 25.942 17.31 C 27.701 17.232 29.436 18.567 29.472 20.026 z" stroke-linecap="round" />
</g>
		<g transform="matrix(1 0 0 1 -6.163138835116223 11.213999778159408)" id="Layer_1"  >
<path style="stroke: none; stroke-width: 1; stroke-dasharray: none; stroke-linecap: butt; stroke-dashoffset: 0; stroke-linejoin: miter; stroke-miterlimit: 4; fill: rgb(217,0,45); fill-rule: nonzero; opacity: 1;"  paint-order="stroke"  transform=" translate(-12.141619771299768, -25.102678880354414)" d="M 11.91 27.777 C 11.762 27.742 11.341000000000001 27.686 10.951 27.543 C 9.902000000000001 27.157 9.08 26.525 9.012 25.317 C 8.946 24.145 9.769 23.548000000000002 10.668000000000001 23.044 C 10.894000000000002 22.917 11.161000000000001 22.862000000000002 11.404000000000002 22.762 C 12.564000000000002 22.284 13.651000000000002 22.21 14.567000000000002 23.268 C 15.334000000000001 24.154 15.455000000000002 25.151 15.040000000000003 26.198 C 14.636 27.212 13.5 27.806 11.91 27.777 z" stroke-linecap="round" />
</g>
		<g transform="matrix(1 0 0 1 -13.040252103229264 -5.675898586398144)" id="Layer_1"  >
<path style="stroke: none; stroke-width: 1; stroke-dasharray: none; stroke-linecap: butt; stroke-dashoffset: 0; stroke-linejoin: miter; stroke-miterlimit: 4; fill: rgb(217,0,45); fill-rule: nonzero; opacity: 1;"  paint-order="stroke"  transform=" translate(-5.264506503186726, -8.212780515796862)" d="M 8.034 8.307 C 7.964 9.852 6.664000000000001 11.079 5.133000000000001 11.045 C 3.595 11.012 2.41 9.868 2.496 8.5 C 2.59 7 4.375 5.297 5.762 5.383 C 7.089 5.465 8.104 6.771 8.034 8.307 z" stroke-linecap="round" />
</g>
</g>
</g>
<g transform="matrix(1.5889642759677545 0 0 1.5889642759677545 543.3007168798418 -98.83457442337038)" id="tagline-6290607a-d9e5-44ff-80f3-da05e7a1fd09-logo"  >
<g style=""  paint-order="stroke"   >
		<g transform="matrix(1 0 0 1 0 0)" id="tagline-6290607a-d9e5-44ff-80f3-da05e7a1fd09-logo-path-0"  >
<path style="stroke: rgb(69,61,53); stroke-width: 3; stroke-dasharray: none; stroke-linecap: butt; stroke-dashoffset: 0; stroke-linejoin: miter; stroke-miterlimit: 4; fill: rgb(242,241,226); fill-rule: nonzero; opacity: 1;"  paint-order="stroke"  transform=" translate(-314.16, 59.5)" d="M 63.41 -27.88 L 63.41 -34 L 46.41 -34 L 46.41 -28.05 C 46.41 -21.59 40.97 -16.15 34.51 -16.15 C 27.88 -16.15 22.61 -21.59 22.61 -28.05 L 22.61 -90.95 C 22.61 -97.41 27.88 -102.85 34.51 -102.85 C 40.97 -102.85 46.41 -97.41 46.41 -90.95 L 46.41 -85 L 63.41 -85 L 63.41 -91.12 C 63.41 -106.76 50.32 -119.85 34.68 -119.85 C 18.36 -119.85 5.61 -106.76 5.61 -91.12 L 5.61 -27.88 C 5.61 -12.24 18.36 0.85 34.68 0.85 C 50.32 0.85 63.41 -12.24 63.41 -27.88 Z M 111.69 -90.95 L 111.69 -28.05 C 111.69 -21.59 106.25 -16.15 99.79 -16.15 C 93.16 -16.15 87.89 -21.59 87.89 -28.05 L 87.89 -90.95 C 87.89 -97.41 93.16 -102.85 99.79 -102.85 C 106.25 -102.85 111.69 -97.41 111.69 -90.95 Z M 70.89 -27.88 C 70.89 -12.24 83.64 0.85 99.96 0.85 C 115.6 0.85 128.69 -12.24 128.69 -27.88 L 128.69 -91.12 C 128.69 -106.76 115.6 -119.85 99.96 -119.85 C 83.64 -119.85 70.89 -106.76 70.89 -91.12 Z M 136.17 -119 L 136.17 0 L 153.17 0 L 153.17 -69.36 L 176.97 0 L 193.97 0 L 193.97 -119 L 176.97 -119 L 176.97 -49.64 L 153.17 -119 Z M 259.25 -119 L 201.45 -119 L 201.45 -102 L 221.85 -102 L 221.85 0 L 238.85 0 L 238.85 -102 L 259.25 -102 Z M 292.23 -119 L 266.73 0 L 283.73 0 L 288.49 -22.1 L 312.97 -22.1 L 317.73 0 L 334.73 0 L 309.23 -119 Z M 292.06 -39.1 L 300.73 -79.39 L 309.4 -39.1 Z M 396.61 -27.88 L 396.61 -34 L 379.61 -34 L 379.61 -28.05 C 379.61 -21.59 374.17 -16.15 367.71 -16.15 C 361.08 -16.15 355.81 -21.59 355.81 -28.05 L 355.81 -90.95 C 355.81 -97.41 361.08 -102.85 367.71 -102.85 C 374.17 -102.85 379.61 -97.41 379.61 -90.95 L 379.61 -85 L 396.61 -85 L 396.61 -91.12 C 396.61 -106.76 383.52 -119.85 367.88 -119.85 C 351.56 -119.85 338.81 -106.76 338.81 -91.12 L 338.81 -27.88 C 338.81 -12.24 351.56 0.85 367.88 0.85 C 383.52 0.85 396.61 -12.24 396.61 -27.88 Z M 461.89 -119 L 404.09 -119 L 404.09 -102 L 424.49 -102 L 424.49 0 L 441.49 0 L 441.49 -102 L 461.89 -102 Z M 516.63 -28.05 L 516.63 -119 L 499.63 -119 L 499.63 -27.88 C 499.63 -12.24 512.38 0.85 528.7 0.85 C 544.34 0.85 557.43 -12.24 557.43 -27.88 L 557.43 -119 L 540.43 -119 L 540.43 -28.05 C 540.43 -21.59 534.99 -16.15 528.53 -16.15 C 521.9 -16.15 516.63 -21.59 516.63 -28.05 Z M 593.64 0.85 C 609.96 0.85 622.71 -12.24 622.71 -27.88 C 622.71 -60.01 581.91 -72.25 581.91 -90.95 C 581.91 -97.41 587.18 -102.85 593.81 -102.85 C 600.27 -102.85 605.71 -97.41 605.71 -90.95 L 605.71 -85 L 622.71 -85 L 622.71 -91.12 C 622.71 -106.76 609.62 -119.85 593.98 -119.85 C 577.66 -119.85 564.91 -106.76 564.91 -91.12 C 564.91 -62.05 605.71 -49.64 605.71 -28.05 C 605.71 -21.59 600.44 -16.15 593.81 -16.15 C 587.35 -16.15 581.91 -21.59 581.91 -28.05 L 581.91 -34 L 564.91 -34 L 564.91 -27.88 C 564.91 -12.24 578 0.85 593.64 0.85 Z" stroke-linecap="round" />
</g>
</g>
</g>
<g transform="matrix(2.843920546119742 0 0 3.0319248802051475 540.3611370862874 591.8305705495034)" id="shape-b84e543b-c681-41d2-a3aa-2cb8863c2929"  >
<path style="stroke: none; stroke-width: 0; stroke-dasharray: none; stroke-linecap: butt; stroke-dashoffset: 0; stroke-linejoin: miter; stroke-miterlimit: 4; fill: rgb(92,224,230); fill-rule: nonzero; opacity: 0.93;"  paint-order="stroke"  transform=" translate(-80.07, -141.865)" d="M 160.13 17.18 L 160.13 266.54 C 160.13 276.02000000000004 152.46 283.73 143.04 283.73 L 17.09 283.73 C 7.67 283.73 0 276.02000000000004 0 266.54 L 0 17.18 C 0 7.71 7.67 0 17.09 0 L 143.04999999999998 0 C 152.46999999999997 0 160.14 7.71 160.14 17.18 Z" stroke-linecap="round" />
</g>
<g transform="matrix(2.75319397019018 0 0 2.966891122327896 540.3611370862874 586.6169534295276)" id="shape-3d07999b-f651-4f05-8eda-06992752e688"  >
<path style="stroke: none; stroke-width: 0; stroke-dasharray: none; stroke-linecap: butt; stroke-dashoffset: 0; stroke-linejoin: miter; stroke-miterlimit: 4; fill: rgb(217,0,45); fill-rule: nonzero; opacity: 1;"  paint-order="stroke"  transform=" translate(-92.5, -149.99000000000004)" d="M 182.34 97.08 C 183.81 97.08 185 95.88 185 94.39999999999999 L 185 69.13 C 185 67.64999999999999 183.81 66.44999999999999 182.34 66.44999999999999 L 181.11 66.44999999999999 L 181.11 26.55 C 181.11 11.91 170.32 0 157.05 0 L 27.95 0 C 14.68 0 3.89 11.91 3.89 26.55 L 3.89 66.43 L 2.66 66.43 C 1.1900000000000002 66.43 0 67.63000000000001 0 69.11000000000001 L 0 114.14000000000001 C 0 115.62000000000002 1.19 116.82000000000002 2.66 116.82000000000002 L 3.89 116.82000000000002 L 3.89 273.43000000000006 C 3.89 288.07000000000005 14.68 299.9800000000001 27.95 299.9800000000001 L 157.06 299.9800000000001 C 170.32 299.9800000000001 181.11 288.07000000000005 181.11 273.43000000000006 L 181.11 129.13000000000005 L 182.34 129.13000000000005 C 183.81 129.13000000000005 185 127.93000000000005 185 126.45000000000005 L 185 101.17000000000004 C 185 99.69000000000004 183.81 98.49000000000004 182.34 98.49000000000004 L 181.11 98.49000000000004 L 181.11 97.07000000000004 L 182.34 97.07000000000004 Z M 172.57 273.84 C 172.57 283.32 164.9 291.03 155.48 291.03 L 29.52 291.03 C 20.1 291.03 12.43 283.32 12.43 273.84 L 12.43 24.48 C 12.43 15 20.1 7.300000000000001 29.52 7.300000000000001 L 155.48 7.300000000000001 C 164.89999999999998 7.300000000000001 172.57 15.010000000000002 172.57 24.48 L 172.57 273.84000000000003 Z M 125.48 21.59 C 125.48 23.49 123.95 25.04 122.06 25.04 C 120.17 25.04 118.64 23.5 118.64 21.59 C 118.64 19.68 120.17 18.14 122.06 18.14 C 123.95 18.14 125.48 19.68 125.48 21.59 Z M 139.35 16.65 L 139.35 26.419999999999998 L 143.82 26.419999999999998 L 143.82 16.65 L 139.35 16.65 Z M 145.43 16.65 L 145.43 26.419999999999998 L 149.91 26.419999999999998 L 149.91 16.65 L 145.43 16.65 Z M 151.27 16.65 L 151.27 26.419999999999998 L 155.75 26.419999999999998 L 155.75 16.65 L 151.27 16.65 Z" stroke-linecap="round" />
</g>
<g transform="matrix(0.4253956727078781 0 0 0.4253956727078781 540.2478538290366 610.7760268149061)" id="shape-bcb5e312-ec51-4330-8cc8-432420ae8e04"  >
<g style=""  paint-order="stroke"   >
		<g transform="matrix(1 0 0 1 0 0)" id="shape-1"  >
<path style="stroke: none; stroke-width: 0; stroke-dasharray: none; stroke-linecap: butt; stroke-dashoffset: 0; stroke-linejoin: miter; stroke-miterlimit: 4; fill: rgb(217,0,45); fill-rule: nonzero; opacity: 1;"  paint-order="stroke"  transform=" translate(-67.3, -67.3)" d="M 67.3 0 C 30.13 0 0 30.13 0 67.3 C 0 104.47 30.13 134.6 67.3 134.6 C 104.47 134.6 134.6 104.47 134.6 67.3 C 134.6 30.129999999999995 104.46 0 67.3 0 Z M 100.41 95.54 L 97.34 98.54 L 97.27000000000001 98.47000000000001 C 95.95000000000002 99.52000000000001 94.48 100.35000000000001 92.88000000000001 100.98000000000002 C 91.42000000000002 101.54000000000002 89.95 101.89000000000001 88.42000000000002 102.09000000000002 C 87.72000000000001 102.23000000000002 71.49000000000001 103.69000000000001 51.280000000000015 83.49000000000001 C 36.65000000000001 68.86000000000001 31.280000000000015 58.06000000000001 32.680000000000014 46.21000000000001 C 32.820000000000014 44.75000000000001 33.240000000000016 43.28000000000001 33.79000000000001 41.75000000000001 C 34.420000000000016 40.150000000000006 35.250000000000014 38.61000000000001 36.30000000000001 37.36000000000001 L 36.23000000000001 37.220000000000006 L 39.23000000000001 34.150000000000006 C 41.46000000000001 31.920000000000005 45.01000000000001 31.850000000000005 47.17000000000001 34.010000000000005 L 57.900000000000006 44.81 C 60.06 46.97 59.99000000000001 50.52 57.760000000000005 52.75 L 55.95 54.56 L 52.330000000000005 58.18 C 52.470000000000006 58.53 52.68000000000001 58.88 52.89000000000001 59.23 C 54.84000000000001 62.64 57.42000000000001 67.38 62.370000000000005 72.33 C 67.32000000000001 77.28 71.99000000000001 79.86 75.4 81.74 C 75.75 81.94999999999999 76.10000000000001 82.16 76.45 82.36999999999999 L 81.88 76.92999999999999 C 84.11 74.69999999999999 87.66 74.63 89.82 76.78999999999999 L 100.61999999999999 87.58999999999999 C 102.71 89.74999999999999 102.63999999999999 93.29999999999998 100.41 95.52999999999999 Z" stroke-linecap="round" />
</g>
		<g transform="matrix(1 0 0 1 -0.007651035002695039 -0.0009590880344347852)" id="shape-1"  >
<path style="stroke: none; stroke-width: 0; stroke-dasharray: none; stroke-linecap: butt; stroke-dashoffset: 0; stroke-linejoin: miter; stroke-miterlimit: 4; fill: rgb(217,0,45); fill-rule: nonzero; opacity: 0.12;"  paint-order="stroke"  transform=" translate(-67.2923489649973, -67.29904091196556)" d="M 89.81 76.79 C 87.65 74.63000000000001 84.10000000000001 74.7 81.87 76.93 L 76.44 82.37 C 76.09 82.16000000000001 75.74 81.95 75.39 81.74000000000001 C 71.98 79.86000000000001 67.31 77.28000000000002 62.36 72.33000000000001 C 57.41 67.38000000000001 54.83 62.640000000000015 52.879999999999995 59.23000000000001 C 52.669999999999995 58.88000000000001 52.459999999999994 58.53000000000001 52.31999999999999 58.180000000000014 L 55.93999999999999 54.56000000000002 L 57.74999999999999 52.750000000000014 C 59.97999999999999 50.52000000000002 60.04999999999999 46.97000000000001 57.88999999999999 44.81000000000002 L 47.16 34.01000000000002 C 45 31.85000000000002 41.449999999999996 31.92000000000002 39.22 34.15000000000002 L 36.22 37.22000000000002 L 36.29 37.36000000000002 C 35.24 38.61000000000002 34.41 40.15000000000002 33.78 41.75000000000002 C 33.22 43.28000000000002 32.800000000000004 44.75000000000002 32.67 46.21000000000002 C 31.28 58.060000000000024 36.64 68.86000000000001 51.27 83.49000000000002 C 71.48 103.70000000000002 87.71000000000001 102.23000000000002 88.41 102.09000000000003 C 89.94 101.88000000000004 91.41 101.53000000000003 92.86999999999999 100.98000000000003 C 94.46999999999998 100.35000000000004 95.93999999999998 99.52000000000004 97.25999999999999 98.47000000000003 L 97.32999999999998 98.54000000000002 L 100.39999999999998 95.54000000000002 C 102.62999999999998 93.31000000000002 102.69999999999997 89.76000000000002 100.60999999999997 87.60000000000002 L 89.80999999999997 76.80000000000003 Z" stroke-linecap="round" />
</g>
</g>
</g>
<g transform="matrix(0.4253956727078781 0 0 0.4253956727078781 542.421319245472 888.4944919709469)" id="shape-59e1d132-40e4-4e53-9516-bf6a653db18a"  >
<g style=""  paint-order="stroke"   >
		<g transform="matrix(1 0 0 1 -24.811458954009414 -0.013628252774378069)" id="shape-3"  >
<path style="stroke: none; stroke-width: 0; stroke-dasharray: none; stroke-linecap: butt; stroke-dashoffset: 0; stroke-linejoin: miter; stroke-miterlimit: 4; fill: rgb(217,0,45); fill-rule: nonzero; opacity: 1;"  paint-order="stroke"  transform=" translate(-42.48854104599059, -67.28637174722562)" d="M 50.33 61.36 C 50.33 61.36 50.309999999999995 61.36 50.3 61.35 C 49.76 61.14 49.15 61.410000000000004 48.94 61.96 L 46.03 69.39 L 43.65 63.27 C 43.51 62.870000000000005 43.14 62.59 42.71 62.57 C 42.29 62.55 41.9 62.79 41.72 63.17 L 38.73 69.52 L 36.08 61.98 C 36.07 61.93 36.05 61.879999999999995 36.03 61.83 C 35.800000000000004 61.3 35.17 61.059999999999995 34.64 61.29 C 34.11 61.519999999999996 33.87 62.15 34.1 62.68 L 37.620000000000005 72.63 C 37.760000000000005 73.03 38.13 73.31 38.56 73.33 L 38.61 73.33 C 39.019999999999996 73.33 39.39 73.1 39.56 72.73 L 42.59 66.30000000000001 L 45.040000000000006 72.67000000000002 C 45.190000000000005 73.08000000000001 45.580000000000005 73.36000000000001 46.02 73.37000000000002 C 46.46 73.37000000000002 46.85 73.09000000000002 47 72.67000000000002 L 50.89 62.710000000000015 C 51.1 62.180000000000014 50.85 61.59000000000002 50.33 61.37000000000001 Z" stroke-linecap="round" />
</g>
		<g transform="matrix(1 0 0 1 -0.10361459165149256 0.024360382054776863)" id="shape-3"  >
<path style="stroke: none; stroke-width: 0; stroke-dasharray: none; stroke-linecap: butt; stroke-dashoffset: 0; stroke-linejoin: miter; stroke-miterlimit: 4; fill: rgb(217,0,45); fill-rule: nonzero; opacity: 1;"  paint-order="stroke"  transform=" translate(-67.1963854083485, -67.32436038205478)" d="M 75.1 61.35 C 75.1 61.35 75.08999999999999 61.35 75.08 61.35 C 74.53999999999999 61.14 73.92 61.410000000000004 73.71 61.95 L 70.77999999999999 69.45 L 68.24999999999999 63.230000000000004 C 68.08999999999999 62.84 67.71999999999998 62.580000000000005 67.29999999999998 62.580000000000005 C 66.86999999999998 62.580000000000005 66.47999999999999 62.830000000000005 66.30999999999999 63.230000000000004 L 63.469999999999985 69.56 L 60.679999999999986 62.010000000000005 C 60.469999999999985 61.57000000000001 59.969999999999985 61.330000000000005 59.48999999999999 61.440000000000005 C 58.91999999999999 61.57000000000001 58.569999999999986 62.14000000000001 58.69999999999999 62.7 L 62.40999999999999 72.68 C 62.50999999999999 72.94000000000001 62.70999999999999 73.16000000000001 62.95999999999999 73.27000000000001 C 63.48999999999999 73.51 64.10999999999999 73.27000000000001 64.34999999999998 72.75000000000001 L 67.22999999999998 66.33000000000001 L 69.81999999999998 72.72000000000001 C 69.98999999999998 73.11000000000001 70.36999999999998 73.37000000000002 70.79999999999998 73.37000000000002 C 71.23999999999998 73.37000000000002 71.62999999999998 73.09000000000002 71.77999999999999 72.67000000000002 L 75.63999999999999 62.710000000000015 C 75.85999999999999 62.180000000000014 75.60999999999999 61.58000000000001 75.07999999999998 61.360000000000014 Z" stroke-linecap="round" />
</g>
		<g transform="matrix(1 0 0 1 24.280952250782846 0.029360382054786527)" id="shape-3"  >
<path style="stroke: none; stroke-width: 0; stroke-dasharray: none; stroke-linecap: butt; stroke-dashoffset: 0; stroke-linejoin: miter; stroke-miterlimit: 4; fill: rgb(217,0,45); fill-rule: nonzero; opacity: 1;"  paint-order="stroke"  transform=" translate(-91.58095225078284, -67.32936038205479)" d="M 91.75 62.57 C 91.33 62.55 90.94 62.78 90.76 63.17 L 87.78 69.52 L 85.17 61.989999999999995 C 84.97 61.44 84.37 61.16 83.83 61.349999999999994 C 83.28 61.53999999999999 83 62.13999999999999 83.19 62.69 L 86.67 72.64 C 86.81 73.04 87.18 73.32000000000001 87.61 73.34 L 87.67 73.34 C 88.08 73.34 88.44 73.11 88.62 72.74000000000001 L 91.65 66.30000000000001 L 94.10000000000001 72.67000000000002 C 94.25000000000001 73.08000000000001 94.64000000000001 73.36000000000001 95.08000000000001 73.37000000000002 C 95.52000000000001 73.37000000000002 95.91000000000001 73.09000000000002 96.06000000000002 72.67000000000002 L 99.96000000000002 62.710000000000015 C 99.96000000000002 62.710000000000015 99.96000000000002 62.710000000000015 99.96000000000002 62.710000000000015 C 100.17000000000002 62.170000000000016 99.90000000000002 61.570000000000014 99.36000000000003 61.360000000000014 C 99.36000000000003 61.360000000000014 99.35000000000002 61.360000000000014 99.34000000000003 61.360000000000014 C 98.80000000000003 61.15000000000001 98.18000000000004 61.420000000000016 97.97000000000003 61.960000000000015 L 95.08000000000003 69.41000000000001 L 92.72000000000003 63.29000000000001 C 92.58000000000003 62.890000000000015 92.20000000000003 62.610000000000014 91.77000000000002 62.59000000000001 Z" stroke-linecap="round" />
</g>
		<g transform="matrix(1 0 0 1 0 0)" id="shape-3"  >
<path style="stroke: none; stroke-width: 0; stroke-dasharray: none; stroke-linecap: butt; stroke-dashoffset: 0; stroke-linejoin: miter; stroke-miterlimit: 4; fill: rgb(217,0,45); fill-rule: nonzero; opacity: 1;"  paint-order="stroke"  transform=" translate(-67.3, -67.3)" d="M 67.3 0 C 30.13 0 0 30.13 0 67.3 C 0 104.47 30.13 134.6 67.3 134.6 C 104.47 134.6 134.6 104.47 134.6 67.3 C 134.6 30.129999999999995 104.46 0 67.3 0 Z M 91.65 42.26 C 87.91000000000001 44.129999999999995 83.91000000000001 45.449999999999996 79.79 46.18 C 78.24000000000001 40.45 76.01 35.730000000000004 73.13000000000001 32.94 C 80.10000000000001 34.099999999999994 86.56 37.349999999999994 91.65 42.26 Z M 80.28 67.3 C 80.32000000000001 73.61 79.64 79.89999999999999 78.24 86.05 C 71 84.89 63.62 84.89 56.36999999999999 86.05 C 54.96999999999999 79.89999999999999 54.28999999999999 73.61 54.32999999999999 67.3 C 54.28999999999999 60.989999999999995 54.96999999999999 54.699999999999996 56.36999999999999 48.55 C 59.98999999999999 49.129999999999995 63.639999999999986 49.419999999999995 67.29999999999998 49.419999999999995 C 70.95999999999998 49.419999999999995 74.61999999999998 49.14999999999999 78.23999999999998 48.589999999999996 C 79.62999999999998 54.73 80.30999999999997 61.01 80.26999999999998 67.3 Z M 67.31 32.459999999999994 C 71.58 32.459999999999994 75.36 38.029999999999994 77.76 46.559999999999995 C 74.30000000000001 47.08 70.81 47.339999999999996 67.31 47.33 C 63.82 47.33 60.34 47.059999999999995 56.900000000000006 46.519999999999996 C 59.260000000000005 37.98 63.040000000000006 32.459999999999994 67.31 32.459999999999994 Z M 61.56 32.92999999999999 C 59.5 34.88999999999999 57.660000000000004 37.919999999999995 56.160000000000004 41.92999999999999 C 55.67 43.24999999999999 55.230000000000004 44.65999999999999 54.82 46.13999999999999 C 50.71 45.38999999999999 46.730000000000004 44.07999999999999 42.97 42.24999999999999 C 48.08 37.32999999999999 54.56 34.07999999999999 61.56 32.92999999999999 Z M 32.47 67.29999999999998 C 32.42 58.62999999999998 35.66 50.26999999999998 41.53 43.889999999999986 C 45.57 45.91999999999999 49.88 47.36999999999998 54.33 48.179999999999986 C 52.91 54.45999999999999 52.21 60.86999999999998 52.239999999999995 67.30999999999999 C 52.209999999999994 73.73999999999998 52.89999999999999 80.14999999999999 54.309999999999995 86.42999999999999 C 49.87 87.24999999999999 45.559999999999995 88.69 41.529999999999994 90.72 C 35.73 84.3 32.50999999999999 75.96 32.46999999999999 67.31 Z M 42.97 92.33999999999997 C 46.73 90.49999999999997 50.72 89.16999999999997 54.839999999999996 88.40999999999997 C 56.38999999999999 94.15999999999997 58.62 98.85999999999997 61.489999999999995 101.64999999999996 C 54.519999999999996 100.48999999999997 48.06999999999999 97.23999999999997 42.97999999999999 92.33999999999996 Z M 67.31 102.13999999999997 C 63.050000000000004 102.13999999999997 59.260000000000005 96.60999999999997 56.900000000000006 88.07999999999997 C 60.34 87.53999999999996 63.82000000000001 87.26999999999997 67.31 87.26999999999997 C 70.8 87.26999999999997 74.28 87.53999999999996 77.72 88.07999999999997 C 75.36 96.61999999999998 71.57 102.13999999999997 67.31 102.13999999999997 Z M 73.07000000000001 101.66999999999997 C 75.13000000000001 99.70999999999998 76.97000000000001 96.67999999999998 78.46000000000001 92.66999999999997 C 78.95 91.34999999999998 79.39000000000001 89.93999999999997 79.80000000000001 88.45999999999998 C 83.91000000000001 89.20999999999998 87.89000000000001 90.51999999999998 91.65 92.34999999999998 C 86.54 97.26999999999998 80.06 100.51999999999998 73.07000000000001 101.66999999999999 Z M 93.10000000000001 90.71999999999997 C 89.07000000000001 88.68999999999997 84.77000000000001 87.24999999999997 80.33000000000001 86.42999999999996 C 81.75000000000001 80.14999999999996 82.45000000000002 73.73999999999997 82.42000000000002 67.29999999999997 C 82.44000000000001 60.87999999999997 81.74000000000001 54.47999999999997 80.33000000000001 48.21999999999997 C 84.78000000000002 47.42999999999997 89.08000000000001 45.96999999999997 93.10000000000001 43.88999999999997 C 98.9 50.309999999999974 102.12 58.64999999999997 102.16000000000001 67.29999999999997 C 102.21000000000001 75.96999999999997 98.97000000000001 84.32999999999997 93.10000000000001 90.70999999999997 Z" stroke-linecap="round" />
</g>
		<g transform="matrix(1 0 0 1 23.925285099365666 0.010000000000005116)" id="shape-3"  >
<path style="stroke: none; stroke-width: 0; stroke-dasharray: none; stroke-linecap: butt; stroke-dashoffset: 0; stroke-linejoin: miter; stroke-miterlimit: 4; fill: rgb(217,0,45); fill-rule: nonzero; opacity: 0.12;"  paint-order="stroke"  transform=" translate(-91.22528509936566, -67.31)" d="M 80.31 48.22 C 81.72 54.48 82.42 60.879999999999995 82.4 67.3 C 82.43 73.72999999999999 81.73 80.14999999999999 80.31 86.42999999999999 C 84.75 87.24 89.05 88.69 93.08 90.72 C 98.95 84.34 102.19 75.98 102.14 67.31 C 102.1 58.660000000000004 98.88 50.32000000000001 93.08 43.900000000000006 C 89.07 45.980000000000004 84.75999999999999 47.440000000000005 80.31 48.230000000000004 Z M 97.95 61.94 C 98.16 61.4 98.78 61.129999999999995 99.32000000000001 61.339999999999996 C 99.32000000000001 61.339999999999996 99.33000000000001 61.339999999999996 99.34 61.339999999999996 C 99.88000000000001 61.55 100.15 62.15 99.94 62.69 C 99.94 62.69 99.94 62.69 99.94 62.69 L 96.03999999999999 72.65 C 95.88999999999999 73.06 95.49999999999999 73.34 95.05999999999999 73.35000000000001 C 94.61999999999999 73.35000000000001 94.22999999999999 73.07000000000001 94.07999999999998 72.65 L 91.62999999999998 66.28 L 88.59999999999998 72.72 C 88.42999999999998 73.09 88.05999999999997 73.32 87.64999999999998 73.32 L 87.58999999999997 73.32 C 87.15999999999997 73.3 86.78999999999998 73.02 86.64999999999998 72.61999999999999 L 83.16999999999997 62.66999999999999 C 82.97999999999998 62.11999999999999 83.26999999999997 61.52999999999999 83.80999999999997 61.329999999999984 C 84.35999999999997 61.139999999999986 84.95999999999998 61.41999999999999 85.14999999999998 61.969999999999985 L 87.75999999999998 69.49999999999999 L 90.73999999999998 63.149999999999984 C 90.90999999999998 62.76999999999998 91.30999999999997 62.52999999999999 91.72999999999998 62.54999999999998 C 92.15999999999998 62.569999999999986 92.52999999999997 62.83999999999998 92.67999999999998 63.249999999999986 L 95.03999999999998 69.36999999999999 L 97.92999999999998 61.91999999999999 Z" stroke-linecap="round" />
</g>
		<g transform="matrix(1 0 0 1 15.080000000000005 -27.74)" id="shape-3"  >
<path style="stroke: none; stroke-width: 0; stroke-dasharray: none; stroke-linecap: butt; stroke-dashoffset: 0; stroke-linejoin: miter; stroke-miterlimit: 4; fill: rgb(217,0,45); fill-rule: nonzero; opacity: 0.12;"  paint-order="stroke"  transform=" translate(-82.38, -39.56)" d="M 91.64 42.26 C 86.55 37.36 80.09 34.11 73.12 32.94 C 76 35.73 78.23 40.449999999999996 79.78 46.18 C 83.9 45.45 87.9 44.13 91.64 42.26 Z" stroke-linecap="round" />
</g>
		<g transform="matrix(1 0 0 1 -23.92028509936565 -0.009999999999987352)" id="shape-3"  >
<path style="stroke: none; stroke-width: 0; stroke-dasharray: none; stroke-linecap: butt; stroke-dashoffset: 0; stroke-linejoin: miter; stroke-miterlimit: 4; fill: rgb(217,0,45); fill-rule: nonzero; opacity: 0.12;"  paint-order="stroke"  transform=" translate(-43.37971490063435, -67.29)" d="M 52.22 67.3 C 52.19 60.87 52.89 54.449999999999996 54.31 48.17 C 49.86 47.36 45.550000000000004 45.92 41.510000000000005 43.88 C 35.64000000000001 50.260000000000005 32.400000000000006 58.620000000000005 32.45 67.29 C 32.49 75.94000000000001 35.71 84.28 41.510000000000005 90.7 C 45.540000000000006 88.67 49.85000000000001 87.22 54.290000000000006 86.41 C 52.88000000000001 80.13 52.190000000000005 73.72 52.220000000000006 67.28999999999999 Z M 50.89 62.699999999999996 L 47 72.66 C 46.85 73.07 46.46 73.35 46.02 73.36 C 45.580000000000005 73.36 45.190000000000005 73.08 45.040000000000006 72.66 L 42.59 66.28999999999999 L 39.56 72.72 C 39.39 73.09 39.010000000000005 73.32 38.61 73.32 L 38.56 73.32 C 38.13 73.3 37.760000000000005 73.02 37.620000000000005 72.61999999999999 L 34.1 62.66999999999999 C 33.870000000000005 62.139999999999986 34.1 61.51999999999999 34.64 61.27999999999999 C 35.17 61.04999999999999 35.79 61.27999999999999 36.03 61.819999999999986 C 36.050000000000004 61.86999999999998 36.07 61.91999999999999 36.08 61.969999999999985 L 38.73 69.50999999999999 L 41.72 63.15999999999999 C 41.9 62.77999999999999 42.29 62.53999999999999 42.71 62.55999999999999 C 43.14 62.57999999999999 43.51 62.84999999999999 43.65 63.25999999999999 L 46.03 69.38 L 48.94 61.949999999999996 C 49.15 61.41 49.76 61.13999999999999 50.3 61.339999999999996 C 50.309999999999995 61.339999999999996 50.32 61.339999999999996 50.33 61.349999999999994 C 50.85 61.56999999999999 51.1 62.16 50.89 62.69 Z" stroke-linecap="round" />
</g>
		<g transform="matrix(1 0 0 1 0.005000107198370074 1.776357e-14)" id="shape-3"  >
<path style="stroke: none; stroke-width: 0; stroke-dasharray: none; stroke-linecap: butt; stroke-dashoffset: 0; stroke-linejoin: miter; stroke-miterlimit: 4; fill: rgb(217,0,45); fill-rule: nonzero; opacity: 0.12;"  paint-order="stroke"  transform=" translate(-67.30500010719837, -67.30000000000001)" d="M 67.3 49.42 C 63.64 49.42 59.98 49.13 56.37 48.550000000000004 C 54.97 54.7 54.29 60.99 54.33 67.30000000000001 C 54.29 73.61000000000001 54.97 79.9 56.37 86.05000000000001 C 63.61 84.89000000000001 70.99 84.89000000000001 78.24 86.05000000000001 C 79.64 79.9 80.32 73.61000000000001 80.28 67.30000000000001 C 80.32000000000001 61.01000000000001 79.64 54.73000000000001 78.25 48.59000000000001 C 74.63 49.15000000000001 70.97 49.430000000000014 67.31 49.42000000000001 Z M 75.66 62.7 L 71.8 72.66 C 71.64999999999999 73.07 71.25999999999999 73.35 70.82 73.36 C 70.38999999999999 73.36 70.00999999999999 73.1 69.83999999999999 72.71 L 67.24999999999999 66.32 L 64.36999999999999 72.74 C 64.13 73.27 63.50999999999999 73.5 62.97999999999999 73.25999999999999 C 62.71999999999999 73.13999999999999 62.52999999999999 72.92999999999999 62.42999999999999 72.66999999999999 L 58.71999999999999 62.68999999999998 C 58.58999999999999 62.11999999999998 58.93999999999999 61.55999999999998 59.50999999999999 61.429999999999986 C 59.98999999999999 61.319999999999986 60.47999999999999 61.54999999999998 60.69999999999999 61.999999999999986 L 63.48999999999999 69.54999999999998 L 66.32999999999998 63.219999999999985 C 66.49999999999999 62.819999999999986 66.88999999999999 62.569999999999986 67.31999999999998 62.569999999999986 C 67.73999999999998 62.569999999999986 68.11999999999998 62.83999999999999 68.26999999999998 63.219999999999985 L 70.79999999999998 69.43999999999998 L 73.72999999999999 61.93999999999998 C 73.93999999999998 61.399999999999984 74.55999999999999 61.12999999999998 75.1 61.33999999999998 C 75.1 61.33999999999998 75.11 61.33999999999998 75.11999999999999 61.33999999999998 C 75.64999999999999 61.55999999999998 75.88999999999999 62.15999999999998 75.67999999999999 62.68999999999998 Z" stroke-linecap="round" />
</g>
		<g transform="matrix(1 0 0 1 0.01999999999999602 -27.405)" id="shape-3"  >
<path style="stroke: none; stroke-width: 0; stroke-dasharray: none; stroke-linecap: butt; stroke-dashoffset: 0; stroke-linejoin: miter; stroke-miterlimit: 4; fill: rgb(217,0,45); fill-rule: nonzero; opacity: 0.12;"  paint-order="stroke"  transform=" translate(-67.32, -39.894999999999996)" d="M 67.3 47.33 C 70.8 47.33 74.28999999999999 47.08 77.75 46.559999999999995 C 75.35 38.03999999999999 71.57 32.459999999999994 67.3 32.459999999999994 C 63.03 32.459999999999994 59.25 37.989999999999995 56.89 46.519999999999996 C 60.33 47.059999999999995 63.81 47.33 67.3 47.33 Z" stroke-linecap="round" />
</g>
		<g transform="matrix(1 0 0 1 15.040000000000013 27.755000000000017)" id="shape-3"  >
<path style="stroke: none; stroke-width: 0; stroke-dasharray: none; stroke-linecap: butt; stroke-dashoffset: 0; stroke-linejoin: miter; stroke-miterlimit: 4; fill: rgb(217,0,45); fill-rule: nonzero; opacity: 0.12;"  paint-order="stroke"  transform=" translate(-82.34, -95.055)" d="M 78.44 92.66 C 76.95 96.67 75.11 99.7 73.05 101.66 C 80.05 100.50999999999999 86.53 97.25999999999999 91.63 92.34 C 87.88 90.51 83.89 89.2 79.78 88.45 C 79.37 89.93 78.92 91.33 78.44 92.66 Z" stroke-linecap="round" />
</g>
		<g transform="matrix(1 0 0 1 0 27.405)" id="shape-3"  >
<path style="stroke: none; stroke-width: 0; stroke-dasharray: none; stroke-linecap: butt; stroke-dashoffset: 0; stroke-linejoin: miter; stroke-miterlimit: 4; fill: rgb(217,0,45); fill-rule: nonzero; opacity: 0.12;"  paint-order="stroke"  transform=" translate(-67.3, -94.705)" d="M 67.3 87.27 C 63.809999999999995 87.27 60.33 87.53999999999999 56.89 88.08 C 59.25 96.62 63.04 102.14 67.3 102.14 C 71.56 102.14 75.35 96.61 77.71 88.08 C 74.27 87.53999999999999 70.78999999999999 87.27 67.3 87.27 Z" stroke-linecap="round" />
</g>
		<g transform="matrix(1 0 0 1 -15.045000000000002 -27.765000000000004)" id="shape-3"  >
<path style="stroke: none; stroke-width: 0; stroke-dasharray: none; stroke-linecap: butt; stroke-dashoffset: 0; stroke-linejoin: miter; stroke-miterlimit: 4; fill: rgb(217,0,45); fill-rule: nonzero; opacity: 0.12;"  paint-order="stroke"  transform=" translate(-52.254999999999995, -39.535)" d="M 56.15 41.93 C 57.65 37.92 59.489999999999995 34.89 61.55 32.93 C 54.55 34.08 48.06999999999999 37.33 42.959999999999994 42.25 C 46.709999999999994 44.08 50.699999999999996 45.39 54.809999999999995 46.14 C 55.21999999999999 44.660000000000004 55.669999999999995 43.26 56.15 41.93 Z" stroke-linecap="round" />
</g>
		<g transform="matrix(1 0 0 1 -15.089999999999996 27.729999999999997)" id="shape-3"  >
<path style="stroke: none; stroke-width: 0; stroke-dasharray: none; stroke-linecap: butt; stroke-dashoffset: 0; stroke-linejoin: miter; stroke-miterlimit: 4; fill: rgb(217,0,45); fill-rule: nonzero; opacity: 0.12;"  paint-order="stroke"  transform=" translate(-52.21, -95.03)" d="M 42.96 92.34 C 48.05 97.24000000000001 54.5 100.49000000000001 61.47 101.65 C 58.6 98.86 56.37 94.16000000000001 54.82 88.41000000000001 C 50.7 89.17000000000002 46.71 90.49000000000001 42.95 92.34000000000002 Z" stroke-linecap="round" />
</g>
</g>
</g>
<g transform="matrix(0.4253956727078781 0 0 0.4253956727078781 540.2478538290366 749.2474150217929)" id="shape-a76a7cb2-78d0-46b9-a974-687f92ffce0f"  >
<g style=""  paint-order="stroke"   >
		<g transform="matrix(1 0 0 1 0 0)" id="shape-2"  >
<path style="stroke: none; stroke-width: 0; stroke-dasharray: none; stroke-linecap: butt; stroke-dashoffset: 0; stroke-linejoin: miter; stroke-miterlimit: 4; fill: rgb(217,0,45); fill-rule: nonzero; opacity: 1;"  paint-order="stroke"  transform=" translate(-67.3, -67.3)" d="M 67.3 0 C 30.13 0 0 30.13 0 67.3 C 0 104.47 30.13 134.6 67.3 134.6 C 104.47 134.6 134.6 104.47 134.6 67.3 C 134.6 30.129999999999995 104.46 0 67.3 0 Z M 41.17 41.17 L 93.43 41.17 C 94.96000000000001 41.17 96.36000000000001 41.59 97.61000000000001 42.28 L 67.30000000000001 68.76 L 36.99000000000001 42.28 C 38.24000000000001 41.58 39.64000000000001 41.17 41.17000000000001 41.17 Z M 32.46 84.72 L 32.46 49.879999999999995 C 32.46 48.209999999999994 32.95 46.60999999999999 33.78 45.279999999999994 L 55.59 64.3 L 33.57000000000001 88.9 C 32.870000000000005 87.65 32.46000000000001 86.25 32.46000000000001 84.72 Z M 93.28999999999999 93.43 L 41.029999999999994 93.43 C 39.35999999999999 93.43 37.75999999999999 92.94000000000001 36.42999999999999 92.11000000000001 L 58.72999999999999 67.17000000000002 L 65.77 73.30000000000001 C 66.19 73.65 66.75 73.86000000000001 67.22999999999999 73.86000000000001 C 67.78999999999999 73.86000000000001 68.27999999999999 73.65000000000002 68.68999999999998 73.30000000000001 L 75.72999999999999 67.17000000000002 L 97.88999999999999 92.11000000000001 C 96.57 92.95000000000002 94.95999999999998 93.43 93.28999999999999 93.43 Z M 102.13999999999999 84.72 C 102.13999999999999 86.25 101.71999999999998 87.65 101.02999999999999 88.9 L 79.00999999999999 64.30000000000001 L 100.82 45.280000000000015 C 101.66 46.600000000000016 102.13999999999999 48.210000000000015 102.13999999999999 49.88000000000002 L 102.13999999999999 84.72000000000003 Z" stroke-linecap="round" />
</g>
		<g transform="matrix(1 0 0 1 23.265 -0.2099999999999902)" id="shape-2"  >
<path style="stroke: none; stroke-width: 0; stroke-dasharray: none; stroke-linecap: butt; stroke-dashoffset: 0; stroke-linejoin: miter; stroke-miterlimit: 4; fill: rgb(217,0,45); fill-rule: nonzero; opacity: 0.12;"  paint-order="stroke"  transform=" translate(-90.565, -67.09)" d="M 79 64.3 L 101.02 88.9 C 101.72 87.65 102.13 86.25 102.13 84.72 L 102.13 49.879999999999995 C 102.13 48.209999999999994 101.64 46.60999999999999 100.81 45.279999999999994 L 79 64.3 Z" stroke-linecap="round" />
</g>
		<g transform="matrix(1 0 0 1 1.421085e-14 -12.334999999999994)" id="shape-2"  >
<path style="stroke: none; stroke-width: 0; stroke-dasharray: none; stroke-linecap: butt; stroke-dashoffset: 0; stroke-linejoin: miter; stroke-miterlimit: 4; fill: rgb(217,0,45); fill-rule: nonzero; opacity: 0.12;"  paint-order="stroke"  transform=" translate(-67.30000000000001, -54.965)" d="M 97.61 42.28 C 96.36 41.58 94.96 41.17 93.43 41.17 L 41.17000000000001 41.17 C 39.64000000000001 41.17 38.24000000000001 41.59 36.99000000000001 42.28 L 67.30000000000001 68.76 L 97.61000000000001 42.28 Z" stroke-linecap="round" />
</g>
		<g transform="matrix(1 0 0 1 -0.14000000000000057 12.990000000000009)" id="shape-2"  >
<path style="stroke: none; stroke-width: 0; stroke-dasharray: none; stroke-linecap: butt; stroke-dashoffset: 0; stroke-linejoin: miter; stroke-miterlimit: 4; fill: rgb(217,0,45); fill-rule: nonzero; opacity: 0.12;"  paint-order="stroke"  transform=" translate(-67.16, -80.29)" d="M 68.69 73.29 C 68.27 73.64 67.78 73.85000000000001 67.23 73.85000000000001 C 66.74000000000001 73.85000000000001 66.18 73.64000000000001 65.77000000000001 73.29 L 58.73000000000001 67.16000000000001 L 36.43000000000001 92.10000000000001 C 37.75000000000001 92.94000000000001 39.36000000000001 93.42 41.03000000000001 93.42 L 93.29 93.42 C 94.96000000000001 93.42 96.56 92.93 97.89 92.10000000000001 L 75.73 67.16000000000001 L 68.69 73.29 Z" stroke-linecap="round" />
</g>
		<g transform="matrix(1 0 0 1 -23.274999999999988 -0.20999999999999375)" id="shape-2"  >
<path style="stroke: none; stroke-width: 0; stroke-dasharray: none; stroke-linecap: butt; stroke-dashoffset: 0; stroke-linejoin: miter; stroke-miterlimit: 4; fill: rgb(217,0,45); fill-rule: nonzero; opacity: 0.12;"  paint-order="stroke"  transform=" translate(-44.025000000000006, -67.09)" d="M 33.78 45.28 C 32.94 46.6 32.46 48.21 32.46 49.88 L 32.46 84.72 C 32.46 86.25 32.88 87.65 33.57 88.9 L 55.59 64.30000000000001 L 33.78 45.280000000000015 Z" stroke-linecap="round" />
</g>
</g>
</g>
<g transform="matrix(1.5889642759677545 0 0 1.5889642759677545 542.7049493687324 404.93807743441613)" id="text-logo"  >
<g style=""  paint-order="stroke"   >
		<g transform="matrix(1 0 0 1 0 0)" id="text-logo-path-0"  >
<path style="stroke: none; stroke-width: 0; stroke-dasharray: none; stroke-linecap: butt; stroke-dashoffset: 0; stroke-linejoin: miter; stroke-miterlimit: 4; fill: rgb(218,4,45); fill-rule: nonzero; opacity: 1;"  paint-order="stroke"  transform=" translate(-65.275, 41.65)" d="M 3.93 -83.3 L 3.93 0 L 35.46 0 L 35.46 -5.95 L 9.88 -5.95 L 9.88 -38.68 L 28.32 -38.68 L 28.32 -44.63 L 9.88 -44.63 L 9.88 -77.35 L 35.46 -77.35 L 35.46 -83.3 Z M 64.97 -83.3 L 48.31 0 L 54.26 0 L 58.19 -19.64 L 77.71 -19.64 L 81.63 0 L 87.58 0 L 70.92 -83.3 Z M 59.38 -25.59 L 67.95 -68.43 L 76.52 -25.59 Z M 126.62 -83.3 L 92.11 -83.3 L 92.11 -77.35 L 106.39 -77.35 L 106.39 0 L 112.34 0 L 112.34 -77.35 L 126.62 -77.35 Z" stroke-linecap="round" />
</g>
</g>
</g>
</svg>