<?xml version="1.0" encoding="UTF-8" standalone="no" ?>
<!DOCTYPE svg PUBLIC "-//W3C//DTD SVG 1.1//EN" "http://www.w3.org/Graphics/SVG/1.1/DTD/svg11.dtd">
<svg xmlns="http://www.w3.org/2000/svg" xmlns:xlink="http://www.w3.org/1999/xlink" version="1.1" width="2260" height="3194" viewBox="0 0 2260 3194" xml:space="preserve">
<desc>Created with Fabric.js 5.3.0</desc>
<defs>
</defs>
<g transform="matrix(3.323529411764706 0 0 3.3235294117647065 1130 1597)" id="background-1cb2dfcf-2d02-42f8-b384-0d6e9714f0dd"  >
<rect style="stroke: none; stroke-width: 0; stroke-dasharray: none; stroke-linecap: butt; stroke-dashoffset: 0; stroke-linejoin: miter; stroke-miterlimit: 4; fill: rgb(101,248,255); fill-rule: nonzero; opacity: 1;"  paint-order="stroke"  x="-340" y="-480.5132743362832" rx="0" ry="0" width="680" height="961.0265486725664" />
</g>
<g transform="matrix(0.6092894574352681 0 0 0.6092894574352681 155.17723195282053 2266.767379996259)" id="shape-4d2b8d30-1c1e-4f9e-8d4f-e6490ea93d50"  >
<g style="opacity: 0.35;"  paint-order="stroke"   >
		<g transform="matrix(1 0 0 1 0 0)" id="Layer_6"  >
<linearGradient id="SVGID_87_520554" gradientUnits="userSpaceOnUse" gradientTransform="matrix(1 0 0 1 0 0.28000000000000114)"  x1="296.8075" y1="0" x2="3.1924999999999955" y2="287.23">
<stop offset="50.500000000000036%" style="stop-color:rgb(255,182,161);stop-opacity: 1"/>
<stop offset="95.5%" style="stop-color:rgb(255,134,134);stop-opacity: 1"/>
</linearGradient>
<path style="stroke: none; stroke-width: 0; stroke-dasharray: none; stroke-linecap: butt; stroke-dashoffset: 0; stroke-linejoin: miter; stroke-miterlimit: 4; fill: url(#SVGID_87_520554); fill-rule: nonzero; opacity: 1;"  paint-order="stroke"  transform=" translate(-150, -143.895)" d="M 300 137.51 C 300 120.74 277.98 106.54999999999998 247.61 101.75 C 263.01 78.45 267.16 55.31 256.06 44.21 C 243.1 31.25 213.71 39.09 186.82 61.36 C 183.56 26.6 168.33 0.28 150 0.28 C 131.67 0.28 116.43 26.6 113.17 61.370000000000005 C 86.28 39.10000000000001 56.9 31.260000000000005 43.93000000000001 44.220000000000006 C 32.830000000000005 55.32000000000001 36.99000000000001 78.46000000000001 52.38000000000001 101.76 C 22.02 106.55 0 120.75 0 137.51 C 0 157.78 32.19 174.25 72.39 174.94 C 71.74 175.56 71.09 176.15 70.45 176.79 C 41.160000000000004 206.07999999999998 29.290000000000006 241.69 43.93000000000001 256.34 C 57.14000000000001 269.56 87.43 261.13 114.74000000000001 237.83999999999997 C 119.94000000000001 266.78 133.74 287.51 150 287.51 C 166.26 287.51 180.06 266.78 185.26 237.83999999999997 C 212.57 261.12 242.85 269.54999999999995 256.07 256.34 C 270.71 241.7 258.84 206.07999999999998 229.54999999999998 176.78999999999996 C 228.91 176.14999999999998 228.24999999999997 175.56999999999996 227.60999999999999 174.93999999999997 C 267.81 174.24999999999997 300 157.77999999999997 300 137.50999999999996 Z M 150 175.44 C 132.18 175.44 117.72999999999999 160.99 117.72999999999999 143.17 C 117.72999999999999 125.34999999999997 132.17999999999998 110.89999999999998 150 110.89999999999998 C 167.82000000000002 110.89999999999998 182.27 125.34999999999998 182.27 143.17 C 182.27 160.99 167.82000000000002 175.44 150 175.44 Z" stroke-linecap="round" />
</g>
</g>
</g>
<g transform="matrix(0.588677445903667 0 0 0.588677445903667 1906.9485753828785 2888.969358240889)" id="shape-94890980-4601-48a9-9188-872159447aa4"  >
<g style="opacity: 0.35;"  paint-order="stroke"   >
		<g transform="matrix(1 0 0 1 0 0)" id="Layer_6"  >
<linearGradient id="SVGID_88_520555" gradientUnits="userSpaceOnUse" gradientTransform="matrix(1 0 0 1 0 0.28000000000000114)"  x1="296.8075" y1="0" x2="3.1924999999999955" y2="287.23">
<stop offset="50.500000000000036%" style="stop-color:rgb(255,182,161);stop-opacity: 1"/>
<stop offset="95.5%" style="stop-color:rgb(255,134,134);stop-opacity: 1"/>
</linearGradient>
<path style="stroke: none; stroke-width: 0; stroke-dasharray: none; stroke-linecap: butt; stroke-dashoffset: 0; stroke-linejoin: miter; stroke-miterlimit: 4; fill: url(#SVGID_88_520555); fill-rule: nonzero; opacity: 1;"  paint-order="stroke"  transform=" translate(-150, -143.895)" d="M 300 137.51 C 300 120.74 277.98 106.54999999999998 247.61 101.75 C 263.01 78.45 267.16 55.31 256.06 44.21 C 243.1 31.25 213.71 39.09 186.82 61.36 C 183.56 26.6 168.33 0.28 150 0.28 C 131.67 0.28 116.43 26.6 113.17 61.370000000000005 C 86.28 39.10000000000001 56.9 31.260000000000005 43.93000000000001 44.220000000000006 C 32.830000000000005 55.32000000000001 36.99000000000001 78.46000000000001 52.38000000000001 101.76 C 22.02 106.55 0 120.75 0 137.51 C 0 157.78 32.19 174.25 72.39 174.94 C 71.74 175.56 71.09 176.15 70.45 176.79 C 41.160000000000004 206.07999999999998 29.290000000000006 241.69 43.93000000000001 256.34 C 57.14000000000001 269.56 87.43 261.13 114.74000000000001 237.83999999999997 C 119.94000000000001 266.78 133.74 287.51 150 287.51 C 166.26 287.51 180.06 266.78 185.26 237.83999999999997 C 212.57 261.12 242.85 269.54999999999995 256.07 256.34 C 270.71 241.7 258.84 206.07999999999998 229.54999999999998 176.78999999999996 C 228.91 176.14999999999998 228.24999999999997 175.56999999999996 227.60999999999999 174.93999999999997 C 267.81 174.24999999999997 300 157.77999999999997 300 137.50999999999996 Z M 150 175.44 C 132.18 175.44 117.72999999999999 160.99 117.72999999999999 143.17 C 117.72999999999999 125.34999999999997 132.17999999999998 110.89999999999998 150 110.89999999999998 C 167.82000000000002 110.89999999999998 182.27 125.34999999999998 182.27 143.17 C 182.27 160.99 167.82000000000002 175.44 150 175.44 Z" stroke-linecap="round" />
</g>
</g>
</g>
<g transform="matrix(0.7546992587547052 0 0 0.7546992587547052 2083.011297849265 847.0395767721724)" id="shape-01d404e5-65d2-4217-a8a4-0ac662161de0"  >
<g style="opacity: 0.35;"  paint-order="stroke"   >
		<g transform="matrix(1 0 0 1 0 0)" id="Layer_6"  >
<linearGradient id="SVGID_89_520556" gradientUnits="userSpaceOnUse" gradientTransform="matrix(1 0 0 1 0 0.28000000000000114)"  x1="296.8075" y1="0" x2="3.1924999999999955" y2="287.23">
<stop offset="50.500000000000036%" style="stop-color:rgb(255,182,161);stop-opacity: 1"/>
<stop offset="95.5%" style="stop-color:rgb(255,134,134);stop-opacity: 1"/>
</linearGradient>
<path style="stroke: none; stroke-width: 0; stroke-dasharray: none; stroke-linecap: butt; stroke-dashoffset: 0; stroke-linejoin: miter; stroke-miterlimit: 4; fill: url(#SVGID_89_520556); fill-rule: nonzero; opacity: 1;"  paint-order="stroke"  transform=" translate(-150, -143.895)" d="M 300 137.51 C 300 120.74 277.98 106.54999999999998 247.61 101.75 C 263.01 78.45 267.16 55.31 256.06 44.21 C 243.1 31.25 213.71 39.09 186.82 61.36 C 183.56 26.6 168.33 0.28 150 0.28 C 131.67 0.28 116.43 26.6 113.17 61.370000000000005 C 86.28 39.10000000000001 56.9 31.260000000000005 43.93000000000001 44.220000000000006 C 32.830000000000005 55.32000000000001 36.99000000000001 78.46000000000001 52.38000000000001 101.76 C 22.02 106.55 0 120.75 0 137.51 C 0 157.78 32.19 174.25 72.39 174.94 C 71.74 175.56 71.09 176.15 70.45 176.79 C 41.160000000000004 206.07999999999998 29.290000000000006 241.69 43.93000000000001 256.34 C 57.14000000000001 269.56 87.43 261.13 114.74000000000001 237.83999999999997 C 119.94000000000001 266.78 133.74 287.51 150 287.51 C 166.26 287.51 180.06 266.78 185.26 237.83999999999997 C 212.57 261.12 242.85 269.54999999999995 256.07 256.34 C 270.71 241.7 258.84 206.07999999999998 229.54999999999998 176.78999999999996 C 228.91 176.14999999999998 228.24999999999997 175.56999999999996 227.60999999999999 174.93999999999997 C 267.81 174.24999999999997 300 157.77999999999997 300 137.50999999999996 Z M 150 175.44 C 132.18 175.44 117.72999999999999 160.99 117.72999999999999 143.17 C 117.72999999999999 125.34999999999997 132.17999999999998 110.89999999999998 150 110.89999999999998 C 167.82000000000002 110.89999999999998 182.27 125.34999999999998 182.27 143.17 C 182.27 160.99 167.82000000000002 175.44 150 175.44 Z" stroke-linecap="round" />
</g>
</g>
</g>
<g transform="matrix(0.5798157864807985 0 0 0.5798157864807985 351.72217570369105 269.17904748455044)" id="shape-003e2ec3-e7c2-48b7-9d9e-e81a046258af"  >
<g style="opacity: 0.35;"  paint-order="stroke"   >
		<g transform="matrix(1 0 0 1 0 0)" id="Layer_6"  >
<linearGradient id="SVGID_90_520557" gradientUnits="userSpaceOnUse" gradientTransform="matrix(1 0 0 1 0 0.28000000000000114)"  x1="296.8075" y1="0" x2="3.1924999999999955" y2="287.23">
<stop offset="50.500000000000036%" style="stop-color:rgb(255,182,161);stop-opacity: 1"/>
<stop offset="95.5%" style="stop-color:rgb(255,134,134);stop-opacity: 1"/>
</linearGradient>
<path style="stroke: none; stroke-width: 0; stroke-dasharray: none; stroke-linecap: butt; stroke-dashoffset: 0; stroke-linejoin: miter; stroke-miterlimit: 4; fill: url(#SVGID_90_520557); fill-rule: nonzero; opacity: 1;"  paint-order="stroke"  transform=" translate(-150, -143.895)" d="M 300 137.51 C 300 120.74 277.98 106.54999999999998 247.61 101.75 C 263.01 78.45 267.16 55.31 256.06 44.21 C 243.1 31.25 213.71 39.09 186.82 61.36 C 183.56 26.6 168.33 0.28 150 0.28 C 131.67 0.28 116.43 26.6 113.17 61.370000000000005 C 86.28 39.10000000000001 56.9 31.260000000000005 43.93000000000001 44.220000000000006 C 32.830000000000005 55.32000000000001 36.99000000000001 78.46000000000001 52.38000000000001 101.76 C 22.02 106.55 0 120.75 0 137.51 C 0 157.78 32.19 174.25 72.39 174.94 C 71.74 175.56 71.09 176.15 70.45 176.79 C 41.160000000000004 206.07999999999998 29.290000000000006 241.69 43.93000000000001 256.34 C 57.14000000000001 269.56 87.43 261.13 114.74000000000001 237.83999999999997 C 119.94000000000001 266.78 133.74 287.51 150 287.51 C 166.26 287.51 180.06 266.78 185.26 237.83999999999997 C 212.57 261.12 242.85 269.54999999999995 256.07 256.34 C 270.71 241.7 258.84 206.07999999999998 229.54999999999998 176.78999999999996 C 228.91 176.14999999999998 228.24999999999997 175.56999999999996 227.60999999999999 174.93999999999997 C 267.81 174.24999999999997 300 157.77999999999997 300 137.50999999999996 Z M 150 175.44 C 132.18 175.44 117.72999999999999 160.99 117.72999999999999 143.17 C 117.72999999999999 125.34999999999997 132.17999999999998 110.89999999999998 150 110.89999999999998 C 167.82000000000002 110.89999999999998 182.27 125.34999999999998 182.27 143.17 C 182.27 160.99 167.82000000000002 175.44 150 175.44 Z" stroke-linecap="round" />
</g>
</g>
</g>
<g transform="matrix(3.323529411764706 0 0 3.3235294117647065 1130.3341300769116 1383.77285959786)" id="tagline-ac757353-bf1d-4b0a-8380-7918408e2a32-logo"  >
<g style=""  paint-order="stroke"   >
		<g transform="matrix(1 0 0 1 0 0)" id="tagline-ac757353-bf1d-4b0a-8380-7918408e2a32-logo-path-0"  >
<linearGradient id="SVGID_520558" gradientUnits="userSpaceOnUse" gradientTransform="matrix(1 0 0 1 2.180000000000007 -45.12)"  x1="472.6430817260741" y1="-11.144960000000026" x2="120.75459234619134" y2="95.07503999999996">
<stop offset="50.500000000000036%" style="stop-color:rgb(255,182,161);stop-opacity: 1"/>
<stop offset="95.5%" style="stop-color:rgb(255,134,134);stop-opacity: 1"/>
</linearGradient>
<filter id="SVGID_520550" y="-26.792287541193335%" height="153.58457508238666%" x="-21.533394007709784%" width="143.06678801541958%" >
	<feGaussianBlur in="SourceAlpha" stdDeviation="0"></feGaussianBlur>
	<feOffset dx="6.172830917436503" dy="3.0864154587182515" result="oBlur" ></feOffset>
	<feFlood flood-color="rgb(255,182,161)" flood-opacity="1"/>
	<feComposite in2="oBlur" operator="in" />
	<feMerge>
		<feMergeNode></feMergeNode>
		<feMergeNode in="SourceGraphic"></feMergeNode>
	</feMerge>
</filter>
<path style="stroke: rgb(255,229,54); stroke-width: 4.320981642205552; stroke-dasharray: none; stroke-linecap: butt; stroke-dashoffset: 0; stroke-linejoin: miter; stroke-miterlimit: 4; fill: url(#SVGID_520558); fill-rule: nonzero; opacity: 0.75;filter: url(#SVGID_520550);"  paint-order="stroke"  transform=" translate(-203.46, 22.4)" d="M 11.26 0 L 21.25 0 C 33.92 0 43.33 -9.02 43.33 -22.46 C 43.33 -35.26 34.43 -44.8 21.25 -44.8 L 11.26 -44.8 C 8 -44.8 2.18 -44.93 2.18 -41.73 C 2.18 -38.72 5.82 -39.87 5.82 -31.42 L 5.82 -13.38 C 5.82 -4.93 2.18 -6.08 2.18 -3.07 C 2.18 0.13 8 0 11.26 0 Z M 21.25 -5.12 L 16.7 -5.12 L 16.7 -38.08 C 16.7 -38.98 17.41 -39.68 18.3 -39.68 L 21.25 -39.68 C 27.14 -39.68 30.72 -33.66 30.72 -22.46 C 30.72 -11.65 27.39 -5.12 21.25 -5.12 Z M 55.42 0 L 78.78 0 C 80.32 0 81.6 -1.28 81.6 -2.82 L 81.6 -12.93 C 81.6 -15.68 80.83 -16.45 79.68 -16.45 C 76.22 -16.45 78.08 -5.76 68.86 -5.76 L 62.46 -5.76 C 61.57 -5.76 60.86 -6.46 60.86 -7.36 L 60.86 -17.92 C 60.86 -18.82 61.57 -19.52 62.46 -19.52 L 65.28 -19.52 C 70.34 -19.52 69.63 -15.87 71.42 -15.87 C 72.9 -15.87 73.22 -19.33 73.28 -22.4 C 73.22 -25.47 72.9 -28.93 71.42 -28.93 C 69.63 -28.93 70.34 -25.28 65.28 -25.28 L 62.46 -25.28 C 61.57 -25.28 60.86 -25.98 60.86 -26.88 L 60.86 -37.44 C 60.86 -38.34 61.57 -39.04 62.46 -39.04 L 67.58 -39.04 C 76.8 -39.04 74.94 -28.35 78.4 -28.35 C 79.55 -28.35 80.32 -29.12 80.32 -31.87 L 80.32 -41.98 C 80.32 -43.52 79.04 -44.8 77.5 -44.8 L 55.42 -44.8 C 52.16 -44.8 46.34 -44.93 46.34 -41.73 C 46.34 -38.72 49.98 -39.87 49.98 -31.42 L 49.98 -13.38 C 49.98 -4.93 46.34 -6.08 46.34 -3.07 C 46.34 0.13 52.16 0 55.42 0 Z M 73.28 -20.8 L 73.28 -22.4 C 73.28 -22.98 73.28 -23.49 73.28 -24 L 73.28 -24.96 L 73.28 -19.84 C 73.28 -20.16 73.28 -20.48 73.28 -20.8 Z M 95.3 0 L 119.94 0 C 121.47 0 122.75 -1.28 122.75 -2.82 L 122.75 -12.93 C 122.75 -15.68 121.98 -16.45 120.83 -16.45 C 117.38 -16.45 119.23 -5.76 110.02 -5.76 L 102.34 -5.76 C 101.44 -5.76 100.74 -6.46 100.74 -7.36 L 100.74 -31.42 C 100.74 -39.87 104.38 -38.72 104.38 -41.73 C 104.38 -44.93 98.56 -44.8 95.3 -44.8 C 92.03 -44.8 86.21 -44.93 86.21 -41.73 C 86.21 -38.72 89.86 -39.87 89.86 -31.42 L 89.86 -13.38 C 89.86 -4.93 86.21 -6.08 86.21 -3.07 C 86.21 0.13 92.03 0 95.3 0 Z M 129.98 -31.42 L 129.98 -13.38 C 129.98 -4.93 126.34 -6.08 126.34 -3.07 C 126.34 0.13 132.16 0 135.42 0 C 138.69 0 144.51 0.13 144.51 -3.07 C 144.51 -6.08 140.86 -4.93 140.86 -13.38 L 140.86 -31.42 C 140.86 -39.87 144.51 -38.72 144.51 -41.73 C 144.51 -44.93 138.69 -44.8 135.42 -44.8 C 132.16 -44.8 126.34 -44.93 126.34 -41.73 C 126.34 -38.72 129.98 -39.87 129.98 -31.42 Z M 188.22 -7.74 L 188.22 -9.02 C 188.22 -17.47 191.87 -16.32 191.87 -19.33 C 191.87 -22.53 186.05 -22.4 182.78 -22.4 C 179.52 -22.4 173.7 -22.53 173.7 -19.33 C 173.7 -16.32 177.34 -17.47 177.34 -9.02 L 177.34 -7.62 C 177.34 -6.72 176.77 -5.63 176 -5.12 C 175.23 -4.8 174.27 -4.54 173.06 -4.54 C 165.95 -4.54 162.24 -13.31 161.28 -24.51 C 160.32 -35.2 162.69 -41.54 168.26 -41.54 C 171.78 -41.54 175.62 -39.04 174.14 -33.73 C 173.06 -28.8 177.15 -26.3 180.86 -26.3 C 184.58 -26.3 187.58 -29.31 187.78 -33.73 C 187.58 -41.54 177.86 -45.12 169.73 -45.12 C 156.99 -45.12 147.65 -36.1 147.65 -22.46 C 147.65 -9.34 156.48 0.32 171.01 0.32 C 177.73 0.32 188.22 -1.98 188.22 -7.74 Z M 198.02 -31.42 L 198.02 -13.38 C 198.02 -4.93 194.37 -6.08 194.37 -3.07 C 194.37 0.13 200.19 0 203.46 0 C 206.72 0 212.54 0.13 212.54 -3.07 C 212.54 -6.08 208.9 -4.93 208.9 -13.38 L 208.9 -17.92 C 208.9 -18.82 209.6 -19.52 210.5 -19.52 L 222.02 -19.52 C 222.91 -19.52 223.62 -18.82 223.62 -17.92 L 223.62 -13.38 C 223.62 -4.93 219.97 -6.08 219.97 -3.07 C 219.97 0.13 225.79 0 229.06 0 C 232.32 0 238.14 0.13 238.14 -3.07 C 238.14 -6.08 234.5 -4.93 234.5 -13.38 L 234.5 -31.42 C 234.5 -39.87 238.14 -38.72 238.14 -41.73 C 238.14 -44.93 232.32 -44.8 229.06 -44.8 C 225.79 -44.8 219.97 -44.93 219.97 -41.73 C 219.97 -38.72 223.62 -39.87 223.62 -31.42 L 223.62 -26.88 C 223.62 -25.98 222.91 -25.28 222.02 -25.28 L 210.5 -25.28 C 209.6 -25.28 208.9 -25.98 208.9 -26.88 L 208.9 -31.42 C 208.9 -39.87 212.54 -38.72 212.54 -41.73 C 212.54 -44.93 206.72 -44.8 203.46 -44.8 C 200.19 -44.8 194.37 -44.93 194.37 -41.73 C 194.37 -38.72 198.02 -39.87 198.02 -31.42 Z M 262.08 0 C 265.34 0 271.17 0.13 271.17 -3.07 C 271.17 -6.08 267.52 -4.93 267.52 -13.38 L 267.52 -37.44 C 267.52 -38.34 268.22 -39.04 269.12 -39.04 L 269.76 -39.04 C 278.98 -39.04 277.12 -28.35 280.58 -28.35 C 281.73 -28.35 282.5 -29.12 282.5 -31.87 L 282.5 -41.98 C 282.5 -43.52 281.22 -44.8 279.68 -44.8 L 244.48 -44.8 C 242.94 -44.8 241.66 -43.52 241.66 -41.98 L 241.66 -31.87 C 241.66 -29.12 242.43 -28.35 243.58 -28.35 C 247.04 -28.35 245.18 -39.04 254.4 -39.04 L 255.04 -39.04 C 255.94 -39.04 256.64 -38.34 256.64 -37.44 L 256.64 -13.38 C 256.64 -4.93 252.99 -6.08 252.99 -3.07 C 252.99 0.13 258.82 0 262.08 0 Z M 294.78 0 C 298.05 0 303.87 0.13 303.87 -3.07 C 303.87 -6.08 300.22 -4.93 300.22 -13.38 L 300.22 -17.92 C 300.22 -18.82 300.93 -19.52 301.82 -19.52 L 304.64 -19.52 C 309.7 -19.52 308.99 -15.87 310.78 -15.87 C 312.26 -15.87 312.58 -19.33 312.64 -22.4 C 312.58 -25.47 312.26 -28.93 310.78 -28.93 C 308.99 -28.93 309.7 -25.28 304.64 -25.28 L 301.82 -25.28 C 300.93 -25.28 300.22 -25.98 300.22 -26.88 L 300.22 -37.44 C 300.22 -38.34 300.93 -39.04 301.82 -39.04 L 308.22 -39.04 C 317.44 -39.04 315.58 -28.35 319.04 -28.35 C 320.19 -28.35 320.96 -29.12 320.96 -31.87 L 320.96 -41.98 C 320.96 -43.52 319.68 -44.8 318.14 -44.8 L 294.78 -44.8 C 291.52 -44.8 285.7 -44.93 285.7 -41.73 C 285.7 -38.72 289.34 -39.87 289.34 -31.42 L 289.34 -13.38 C 289.34 -4.93 285.7 -6.08 285.7 -3.07 C 285.7 0.13 291.52 0 294.78 0 Z M 312.64 -20.8 L 312.64 -22.4 C 312.64 -22.98 312.64 -23.49 312.64 -24 L 312.64 -24.96 L 312.64 -19.84 C 312.64 -20.16 312.64 -20.48 312.64 -20.8 Z M 344.58 0.32 C 355.33 0.32 362.11 -4.35 362.11 -16.64 L 362.11 -31.42 C 362.11 -39.87 365.76 -38.72 365.76 -41.73 C 365.76 -44.35 361.79 -44.74 358.59 -44.8 C 355.39 -44.74 351.42 -44.35 351.42 -41.73 C 351.42 -38.72 355.07 -39.87 355.07 -31.42 L 355.07 -16.64 C 355.07 -9.22 352.45 -5.89 346.5 -5.89 C 341.5 -5.89 338.43 -9.02 338.43 -16.64 L 338.43 -31.42 C 338.43 -39.87 342.08 -38.72 342.08 -41.73 C 342.08 -44.93 336.26 -44.8 332.99 -44.8 C 329.73 -44.8 323.9 -44.93 323.9 -41.73 C 323.9 -38.72 327.55 -39.87 327.55 -31.42 L 327.55 -16.64 C 327.55 -7.49 330.88 0.32 344.58 0.32 Z M 356.67 -44.8 L 357.82 -44.8 Z M 357.82 -44.8 L 360.51 -44.8 L 359.36 -44.8 C 359.1 -44.8 358.85 -44.8 358.59 -44.8 Z M 377.28 0 L 401.92 0 C 403.46 0 404.74 -1.28 404.74 -2.82 L 404.74 -12.93 C 404.74 -15.68 403.97 -16.45 402.82 -16.45 C 399.36 -16.45 401.22 -5.76 392 -5.76 L 384.32 -5.76 C 383.42 -5.76 382.72 -6.46 382.72 -7.36 L 382.72 -31.42 C 382.72 -39.87 386.37 -38.72 386.37 -41.73 C 386.37 -44.93 380.54 -44.8 377.28 -44.8 C 374.02 -44.8 368.19 -44.93 368.19 -41.73 C 368.19 -38.72 371.84 -39.87 371.84 -31.42 L 371.84 -13.38 C 371.84 -4.93 368.19 -6.08 368.19 -3.07 C 368.19 0.13 374.02 0 377.28 0 Z" stroke-linecap="round" />
</g>
</g>
</g>
<g transform="matrix(3.323529411764706 0 0 3.3235294117647065 1129.5015859592645 1925.1575936834324)" id="tagline-5badd931-efd0-4297-8f7c-68ce440d2bfb-logo"  >
<g style=""  paint-order="stroke"   >
		<g transform="matrix(1 0 0 1 0 0)" id="tagline-5badd931-efd0-4297-8f7c-68ce440d2bfb-logo-path-0"  >
<filter id="SVGID_520552" y="-26.840349163689687%" height="153.6806983273794%" x="-22.530162624795615%" width="145.06032524959124%" >
	<feGaussianBlur in="SourceAlpha" stdDeviation="0"></feGaussianBlur>
	<feOffset dx="7.137335748285954" dy="3.568667874142977" result="oBlur" ></feOffset>
	<feFlood flood-color="rgb(255,182,161)" flood-opacity="1"/>
	<feComposite in2="oBlur" operator="in" />
	<feMerge>
		<feMergeNode></feMergeNode>
		<feMergeNode in="SourceGraphic"></feMergeNode>
	</feMerge>
</filter>
<path style="stroke: rgb(255,182,161); stroke-width: 4.996135023800169; stroke-dasharray: none; stroke-linecap: butt; stroke-dashoffset: 0; stroke-linejoin: miter; stroke-miterlimit: 4; fill: rgb(252,228,52); fill-rule: nonzero; opacity: 0.7;filter: url(#SVGID_520552);"  paint-order="stroke"  transform=" translate(-141.855, 25.715421875)" d="M 27.53 0 C 31.3 0 38.04 0.15 38.04 -3.55 C 38.04 -7.03 33.82 -5.7 33.82 -15.47 L 33.82 -19.91 L 43.59 -38.18 C 48.17 -46.77 54.24 -44.77 54.24 -48.25 C 54.24 -51.43 50.25 -51.8 47.21 -51.8 C 43.44 -51.8 38.48 -51.43 38.48 -48.25 C 38.48 -44.77 40.03 -46.77 35.45 -38.18 L 30.12 -28.19 L 24.79 -38.18 C 20.2 -46.77 21.76 -44.77 21.76 -48.25 C 21.76 -51.95 15.02 -51.8 11.25 -51.8 L 9.25 -51.8 C 6.22 -51.8 0.81 -51.95 0.81 -48.25 C 0.81 -44.77 6.88 -46.77 11.47 -38.18 L 21.24 -19.91 L 21.24 -15.47 C 21.24 -5.7 17.02 -7.03 17.02 -3.55 C 17.02 0.15 23.75 0 27.53 0 Z M 45.81 -51.8 L 46.92 -51.8 Z M 46.92 -51.8 L 48.99 -51.8 L 47.66 -51.8 C 47.51 -51.8 47.36 -51.8 47.21 -51.8 Z M 80.66 0.37 C 93.09 0.37 100.94 -5.03 100.94 -19.24 L 100.94 -36.33 C 100.94 -46.1 105.15 -44.77 105.15 -48.25 C 105.15 -51.28 100.57 -51.73 96.87 -51.8 C 93.17 -51.73 88.58 -51.28 88.58 -48.25 C 88.58 -44.77 92.8 -46.1 92.8 -36.33 L 92.8 -19.24 C 92.8 -10.66 89.76 -6.81 82.88 -6.81 C 77.11 -6.81 73.56 -10.43 73.56 -19.24 L 73.56 -36.33 C 73.56 -46.1 77.77 -44.77 77.77 -48.25 C 77.77 -51.95 71.04 -51.8 67.27 -51.8 C 63.49 -51.8 56.76 -51.95 56.76 -48.25 C 56.76 -44.77 60.98 -46.1 60.98 -36.33 L 60.98 -19.24 C 60.98 -8.66 64.82 0.37 80.66 0.37 Z M 94.65 -51.8 L 95.98 -51.8 Z M 95.98 -51.8 L 99.09 -51.8 L 97.75 -51.8 C 97.46 -51.8 97.16 -51.8 96.87 -51.8 Z M 111.89 -36.33 L 111.89 -15.47 C 111.89 -5.7 107.67 -7.03 107.67 -3.55 C 107.67 -0.52 112.26 -0.07 115.96 0 C 119.66 -0.07 124.25 -0.52 124.25 -3.55 C 124.25 -7.03 120.03 -5.7 120.03 -15.47 L 120.03 -32.71 C 120.03 -33.74 120.4 -33.82 120.92 -32.93 L 131.28 -13.25 C 131.79 -12.36 132.98 -11.62 134.01 -11.62 L 135.49 -11.62 C 136.53 -11.62 137.71 -12.36 138.08 -13.32 L 148.15 -35.45 C 148.52 -36.41 148.89 -36.33 148.89 -35.3 L 148.89 -15.47 C 148.89 -5.7 144.67 -7.03 144.67 -3.55 C 144.67 0.15 151.4 0 155.18 0 C 158.95 0 165.69 0.15 165.69 -3.55 C 165.69 -7.03 161.47 -5.7 161.47 -15.47 L 161.47 -36.33 C 161.47 -46.1 165.69 -44.77 165.69 -48.25 C 165.69 -51.8 159.4 -51.8 155.55 -51.8 L 155.18 -51.8 L 150.66 -51.8 C 148.89 -51.8 146.82 -50.47 146 -48.84 L 138.31 -32.12 C 137.86 -31.15 137.12 -31.15 136.6 -32.04 L 127.72 -48.91 C 126.91 -50.47 124.76 -51.8 122.99 -51.8 L 118.18 -51.8 C 114.4 -51.8 107.67 -51.95 107.67 -48.25 C 107.67 -44.77 111.89 -46.1 111.89 -36.33 Z M 113.74 0 L 115.07 0 Z M 115.07 0 L 115.96 0 C 116.25 0 116.55 0 116.85 0 L 118.18 0 Z M 173.46 -36.33 L 173.46 -15.47 C 173.46 -5.7 169.24 -7.03 169.24 -3.55 C 169.24 -0.52 173.83 -0.07 177.53 0 C 181.23 -0.07 185.81 -0.52 185.81 -3.55 C 185.81 -7.03 181.6 -5.7 181.6 -15.47 L 181.6 -32.71 C 181.6 -33.74 181.97 -33.82 182.48 -32.93 L 192.84 -13.25 C 193.36 -12.36 194.55 -11.62 195.58 -11.62 L 197.06 -11.62 C 198.1 -11.62 199.28 -12.36 199.65 -13.32 L 209.72 -35.45 C 210.09 -36.41 210.46 -36.33 210.46 -35.3 L 210.46 -15.47 C 210.46 -5.7 206.24 -7.03 206.24 -3.55 C 206.24 0.15 212.97 0 216.75 0 C 220.52 0 227.25 0.15 227.25 -3.55 C 227.25 -7.03 223.04 -5.7 223.04 -15.47 L 223.04 -36.33 C 223.04 -46.1 227.25 -44.77 227.25 -48.25 C 227.25 -51.8 220.96 -51.8 217.12 -51.8 L 216.75 -51.8 L 212.23 -51.8 C 210.46 -51.8 208.38 -50.47 207.57 -48.84 L 199.87 -32.12 C 199.43 -31.15 198.69 -31.15 198.17 -32.04 L 189.29 -48.91 C 188.48 -50.47 186.33 -51.8 184.56 -51.8 L 179.75 -51.8 C 175.97 -51.8 169.24 -51.95 169.24 -48.25 C 169.24 -44.77 173.46 -46.1 173.46 -36.33 Z M 175.31 0 L 176.64 0 Z M 176.64 0 L 177.53 0 C 177.82 0 178.12 0 178.41 0 L 179.75 0 Z M 256.19 0 C 259.96 0 266.7 0.15 266.7 -3.55 C 266.7 -7.03 262.48 -5.7 262.48 -15.47 L 262.48 -19.91 L 272.25 -38.18 C 276.83 -46.77 282.9 -44.77 282.9 -48.25 C 282.9 -51.43 278.91 -51.8 275.87 -51.8 C 272.1 -51.8 267.14 -51.43 267.14 -48.25 C 267.14 -44.77 268.69 -46.77 264.11 -38.18 L 258.78 -28.19 L 253.45 -38.18 C 248.86 -46.77 250.42 -44.77 250.42 -48.25 C 250.42 -51.95 243.68 -51.8 239.91 -51.8 L 237.91 -51.8 C 234.88 -51.8 229.47 -51.95 229.47 -48.25 C 229.47 -44.77 235.54 -46.77 240.13 -38.18 L 249.9 -19.91 L 249.9 -15.47 C 249.9 -5.7 245.68 -7.03 245.68 -3.55 C 245.68 0.15 252.41 0 256.19 0 Z M 274.47 -51.8 L 275.58 -51.8 Z M 275.58 -51.8 L 277.65 -51.8 L 276.32 -51.8 C 276.17 -51.8 276.02 -51.8 275.87 -51.8 Z" stroke-linecap="round" />
</g>
</g>
</g>
<g transform="matrix(2.6057467688169185 0 0 2.6057467688169185 297.4344341796491 1105.5281608632276)" id="shape-18e132f9-e52b-4d02-92ab-2172355735eb"  >
<linearGradient id="SVGID_520545" gradientUnits="userSpaceOnUse" gradientTransform="matrix(1 0 0 1 0 0)"  x1="121.02499999999999" y1="0" x2="15.77500000000002" y2="73.7">
<stop offset="50.500000000000036%" style="stop-color:rgb(255,182,161);stop-opacity: 1"/>
<stop offset="95.5%" style="stop-color:rgb(255,134,134);stop-opacity: 1"/>
</linearGradient>
<path style="stroke: none; stroke-width: 0; stroke-dasharray: none; stroke-linecap: butt; stroke-dashoffset: 0; stroke-linejoin: miter; stroke-miterlimit: 4; fill: url(#SVGID_520545); fill-rule: nonzero; opacity: 0.75;"  paint-order="stroke"  transform=" translate(-68.4, -36.85)" d="M 111.6 37.8 C 111.8 36.8 111.89999999999999 35.8 111.89999999999999 34.699999999999996 C 111.89999999999999 23.499999999999996 100.49999999999999 14.399999999999995 86.39999999999999 14.399999999999995 C 82.99999999999999 14.399999999999995 79.69999999999999 14.899999999999995 76.69999999999999 15.999999999999995 C 72.9 6.7 63.7 0 53.1 0 C 39 0 27.6 11.4 27.6 25.5 C 27.6 29.5 28.5 33.3 30.200000000000003 36.7 C 11.9 40.3 0 46.5 0 53.4 C 0 64.6 30.6 73.7 68.4 73.7 C 106.20000000000002 73.7 136.8 64.60000000000001 136.8 53.400000000000006 C 136.70000000000002 47.2 126.9 41.50000000000001 111.60000000000001 37.800000000000004 Z" stroke-linecap="round" />
</g>
<g transform="matrix(-2.581723510708171 0 0 2.906730924985216 365.71424673542265 2928.028682295683)" id="shape-2775ef0f-54d3-46d0-a4b2-b2edece2174b"  >
<linearGradient id="SVGID_520546" gradientUnits="userSpaceOnUse" gradientTransform="matrix(1 0 0 1 0 0)"  x1="121.02499999999999" y1="0" x2="15.77500000000002" y2="73.7">
<stop offset="50.500000000000036%" style="stop-color:rgb(255,182,161);stop-opacity: 1"/>
<stop offset="95.5%" style="stop-color:rgb(255,134,134);stop-opacity: 1"/>
</linearGradient>
<path style="stroke: none; stroke-width: 0; stroke-dasharray: none; stroke-linecap: butt; stroke-dashoffset: 0; stroke-linejoin: miter; stroke-miterlimit: 4; fill: url(#SVGID_520546); fill-rule: nonzero; opacity: 0.6;"  paint-order="stroke"  transform=" translate(-68.4, -36.85)" d="M 111.6 37.8 C 111.8 36.8 111.89999999999999 35.8 111.89999999999999 34.699999999999996 C 111.89999999999999 23.499999999999996 100.49999999999999 14.399999999999995 86.39999999999999 14.399999999999995 C 82.99999999999999 14.399999999999995 79.69999999999999 14.899999999999995 76.69999999999999 15.999999999999995 C 72.9 6.7 63.7 0 53.1 0 C 39 0 27.6 11.4 27.6 25.5 C 27.6 29.5 28.5 33.3 30.200000000000003 36.7 C 11.9 40.3 0 46.5 0 53.4 C 0 64.6 30.6 73.7 68.4 73.7 C 106.20000000000002 73.7 136.8 64.60000000000001 136.8 53.400000000000006 C 136.70000000000002 47.2 126.9 41.50000000000001 111.60000000000001 37.800000000000004 Z" stroke-linecap="round" />
</g>
<g transform="matrix(2.754193618250304 0 0 2.754193618250304 1916.3653794131737 225.49597153276454)" id="shape-e521d10c-d8f8-4292-a2c2-35afc7cdb4de"  >
<linearGradient id="SVGID_520547" gradientUnits="userSpaceOnUse" gradientTransform="matrix(1 0 0 1 7.10543e-15 0)"  x1="102.525" y1="0" x2="9.675000000000011" y2="73.5">
<stop offset="50.500000000000036%" style="stop-color:rgb(255,182,161);stop-opacity: 1"/>
<stop offset="95.5%" style="stop-color:rgb(255,134,134);stop-opacity: 1"/>
</linearGradient>
<path style="stroke: none; stroke-width: 0; stroke-dasharray: none; stroke-linecap: butt; stroke-dashoffset: 0; stroke-linejoin: miter; stroke-miterlimit: 4; fill: url(#SVGID_520547); fill-rule: nonzero; opacity: 0.6;"  paint-order="stroke"  transform=" translate(-56.100000000000016, -36.75)" d="M 82.4 37.5 C 82.60000000000001 36.3 82.7 35 82.7 33.8 C 82.7 21.999999999999996 73.5 12.199999999999996 61.800000000000004 11.599999999999998 C 60.900000000000006 5.099999999999998 55.2 -1.7763568394002505e-15 48.300000000000004 -1.7763568394002505e-15 C 40.7 -1.7763568394002505e-15 34.60000000000001 6.099999999999998 34.60000000000001 13.699999999999998 C 34.60000000000001 14.899999999999997 34.80000000000001 16.199999999999996 35.10000000000001 17.299999999999997 C 33.20000000000001 16.699999999999996 31.300000000000008 16.4 29.300000000000008 16.4 C 18.800000000000008 16.4 10.300000000000008 24.9 10.300000000000008 35.4 C 10.300000000000008 38 10.800000000000008 40.5 11.800000000000008 42.8 C 4.300000000000008 46 7.105427357601002e-15 50.099999999999994 7.105427357601002e-15 54.5 C 7.105427357601002e-15 65 25.10000000000001 73.5 56.10000000000001 73.5 C 87.10000000000001 73.5 112.20000000000002 65 112.20000000000002 54.5 C 112.20000000000002 47 100.20000000000002 40.7 82.40000000000002 37.5 Z" stroke-linecap="round" />
</g>
<g transform="matrix(-2.665167132559454 0 0 2.665167132559454 1991.2827686708424 2086.460480151998)" id="shape-0e194125-5eb0-4e13-9e75-efe7aea30acb"  >
<linearGradient id="SVGID_520548" gradientUnits="userSpaceOnUse" gradientTransform="matrix(1 0 0 1 7.10543e-15 0)"  x1="102.525" y1="0" x2="9.675000000000011" y2="73.5">
<stop offset="50.500000000000036%" style="stop-color:rgb(255,182,161);stop-opacity: 1"/>
<stop offset="95.5%" style="stop-color:rgb(255,134,134);stop-opacity: 1"/>
</linearGradient>
<path style="stroke: none; stroke-width: 0; stroke-dasharray: none; stroke-linecap: butt; stroke-dashoffset: 0; stroke-linejoin: miter; stroke-miterlimit: 4; fill: url(#SVGID_520548); fill-rule: nonzero; opacity: 0.75;"  paint-order="stroke"  transform=" translate(-56.100000000000016, -36.75)" d="M 82.4 37.5 C 82.60000000000001 36.3 82.7 35 82.7 33.8 C 82.7 21.999999999999996 73.5 12.199999999999996 61.800000000000004 11.599999999999998 C 60.900000000000006 5.099999999999998 55.2 -1.7763568394002505e-15 48.300000000000004 -1.7763568394002505e-15 C 40.7 -1.7763568394002505e-15 34.60000000000001 6.099999999999998 34.60000000000001 13.699999999999998 C 34.60000000000001 14.899999999999997 34.80000000000001 16.199999999999996 35.10000000000001 17.299999999999997 C 33.20000000000001 16.699999999999996 31.300000000000008 16.4 29.300000000000008 16.4 C 18.800000000000008 16.4 10.300000000000008 24.9 10.300000000000008 35.4 C 10.300000000000008 38 10.800000000000008 40.5 11.800000000000008 42.8 C 4.300000000000008 46 7.105427357601002e-15 50.099999999999994 7.105427357601002e-15 54.5 C 7.105427357601002e-15 65 25.10000000000001 73.5 56.10000000000001 73.5 C 87.10000000000001 73.5 112.20000000000002 65 112.20000000000002 54.5 C 112.20000000000002 47 100.20000000000002 40.7 82.40000000000002 37.5 Z" stroke-linecap="round" />
</g>
<g transform="matrix(3.323529411764706 0 0 3.3235294117647065 1130.6698065474998 877.12651515276)" id="text-logo"  >
<g style=""  paint-order="stroke"   >
		<g transform="matrix(1 0 0 1 0 0)" id="text-logo-path-0"  >
<filter id="SVGID_520553" y="-21.497194167302307%" height="142.99438833460462%" x="-20.294612493002955%" width="140.58922498600592%" >
	<feGaussianBlur in="SourceAlpha" stdDeviation="0.39361702127659576"></feGaussianBlur>
	<feOffset dx="0" dy="0" result="oBlur" ></feOffset>
	<feFlood flood-color="rgb(255,182,161)" flood-opacity="1"/>
	<feComposite in2="oBlur" operator="in" />
	<feMerge>
		<feMergeNode></feMergeNode>
		<feMergeNode in="SourceGraphic"></feMergeNode>
	</feMerge>
</filter>
<path style="stroke: rgb(255,182,161); stroke-width: 4.9758789308490865; stroke-dasharray: none; stroke-linecap: butt; stroke-dashoffset: 0; stroke-linejoin: miter; stroke-miterlimit: 4; fill: rgb(252,228,52); fill-rule: nonzero; opacity: 0.7;filter: url(#SVGID_520553);"  paint-order="stroke"  transform=" translate(-136.19500000000002, 25.87968776976821)" d="M 22.64 0.37 C 33.82 0.89 45.36 -3.55 45.36 -14.8 C 45.36 -27.68 17.39 -33 17.39 -42.48 C 17.39 -46.32 19.76 -48.62 22.79 -48.62 C 26.27 -48.62 30.04 -46.18 28.64 -40.92 C 27.53 -36.04 31.6 -33.6 35.22 -33.6 C 38.92 -33.6 41.88 -36.56 42.11 -40.92 C 41.88 -48.62 32.26 -52.17 24.27 -52.17 C 13.17 -52.17 5.18 -46.62 5.18 -37.22 C 5.18 -22.42 32.34 -18.8 32.34 -10.29 C 32.34 -5.03 28.34 -3.63 24.35 -3.63 C 20.42 -3.63 16.21 -6.36 17.76 -12.28 C 19.02 -17.83 14.43 -20.57 10.36 -20.57 C 6.14 -20.57 2.81 -17.24 2.59 -12.28 C 2.81 -3.63 13.69 0.37 22.64 0.37 Z M 55.8 -37.44 L 70.08 -1.7 C 70.45 -0.74 71.56 0 72.59 0 L 74.81 0 C 75.85 0 76.96 -0.74 77.33 -1.7 L 87.02 -25.97 L 96.72 -1.7 C 97.09 -0.74 98.2 0 99.23 0 L 101.45 0 C 102.49 0 103.6 -0.74 103.97 -1.7 L 118.25 -37.44 C 121.88 -46.55 127.43 -44.77 127.43 -48.25 C 127.43 -51.21 124.02 -51.73 121.06 -51.8 C 115.96 -51.73 109.96 -51.21 109.96 -48.25 C 109.96 -44.77 113.81 -46.47 110.19 -37.44 L 103.53 -20.65 C 103.16 -19.68 102.56 -19.68 102.19 -20.65 L 95.61 -37.37 C 92.06 -46.47 95.9 -44.77 95.9 -48.25 C 95.9 -51.87 86.8 -51.8 81.47 -51.8 C 78.44 -51.8 73.26 -51.87 73.26 -48.25 C 73.26 -44.77 78.81 -46.55 82.44 -37.44 L 82.95 -36.11 L 76.89 -20.65 C 76.52 -19.68 75.92 -19.68 75.55 -20.65 L 68.97 -37.37 C 65.42 -46.47 69.26 -44.77 69.26 -48.25 C 69.26 -51.87 60.16 -51.8 54.83 -51.8 C 51.8 -51.8 46.62 -51.87 46.62 -48.25 C 46.62 -44.77 52.17 -46.55 55.8 -37.44 Z M 118.99 -51.8 L 120.1 -51.8 Z M 120.1 -51.8 L 124.69 -51.8 L 122.77 -51.8 C 122.25 -51.8 121.66 -51.8 121.06 -51.8 Z M 140.9 0 L 167.91 0 C 169.68 0 171.16 -1.48 171.16 -3.26 L 171.16 -14.95 C 171.16 -18.13 170.27 -19.02 168.94 -19.02 C 164.95 -19.02 167.09 -6.66 156.44 -6.66 L 149.04 -6.66 C 148 -6.66 147.19 -7.47 147.19 -8.51 L 147.19 -20.72 C 147.19 -21.76 148 -22.57 149.04 -22.57 L 152.29 -22.57 C 158.14 -22.57 157.32 -18.35 159.4 -18.35 C 161.1 -18.35 161.47 -22.35 161.54 -25.9 C 161.47 -29.45 161.1 -33.45 159.4 -33.45 C 157.32 -33.45 158.14 -29.23 152.29 -29.23 L 149.04 -29.23 C 148 -29.23 147.19 -30.04 147.19 -31.08 L 147.19 -43.29 C 147.19 -44.33 148 -45.14 149.04 -45.14 L 154.96 -45.14 C 165.61 -45.14 163.47 -32.78 167.46 -32.78 C 168.79 -32.78 169.68 -33.67 169.68 -36.85 L 169.68 -48.54 C 169.68 -50.32 168.2 -51.8 166.43 -51.8 L 140.9 -51.8 C 137.12 -51.8 130.39 -51.95 130.39 -48.25 C 130.39 -44.77 134.61 -46.1 134.61 -36.33 L 134.61 -15.47 C 134.61 -5.7 130.39 -7.03 130.39 -3.55 C 130.39 0.15 137.12 0 140.9 0 Z M 161.54 -24.05 L 161.54 -25.9 C 161.54 -26.57 161.54 -27.16 161.54 -27.75 L 161.54 -28.86 L 161.54 -22.94 C 161.54 -23.31 161.54 -23.68 161.54 -24.05 Z M 187.07 0 L 214.08 0 C 215.86 0 217.34 -1.48 217.34 -3.26 L 217.34 -14.95 C 217.34 -18.13 216.45 -19.02 215.12 -19.02 C 211.12 -19.02 213.27 -6.66 202.61 -6.66 L 195.21 -6.66 C 194.18 -6.66 193.36 -7.47 193.36 -8.51 L 193.36 -20.72 C 193.36 -21.76 194.18 -22.57 195.21 -22.57 L 198.47 -22.57 C 204.31 -22.57 203.5 -18.35 205.57 -18.35 C 207.27 -18.35 207.64 -22.35 207.72 -25.9 C 207.64 -29.45 207.27 -33.45 205.57 -33.45 C 203.5 -33.45 204.31 -29.23 198.47 -29.23 L 195.21 -29.23 C 194.18 -29.23 193.36 -30.04 193.36 -31.08 L 193.36 -43.29 C 193.36 -44.33 194.18 -45.14 195.21 -45.14 L 201.13 -45.14 C 211.79 -45.14 209.64 -32.78 213.64 -32.78 C 214.97 -32.78 215.86 -33.67 215.86 -36.85 L 215.86 -48.54 C 215.86 -50.32 214.38 -51.8 212.6 -51.8 L 187.07 -51.8 C 183.3 -51.8 176.56 -51.95 176.56 -48.25 C 176.56 -44.77 180.78 -46.1 180.78 -36.33 L 180.78 -15.47 C 180.78 -5.7 176.56 -7.03 176.56 -3.55 C 176.56 0.15 183.3 0 187.07 0 Z M 207.72 -24.05 L 207.72 -25.9 C 207.72 -26.57 207.72 -27.16 207.72 -27.75 L 207.72 -28.86 L 207.72 -22.94 C 207.72 -23.31 207.72 -23.68 207.72 -24.05 Z M 246.2 0 C 249.97 0 256.71 0.15 256.71 -3.55 C 256.71 -7.03 252.49 -5.7 252.49 -15.47 L 252.49 -43.29 C 252.49 -44.33 253.3 -45.14 254.34 -45.14 L 255.08 -45.14 C 265.73 -45.14 263.59 -32.78 267.58 -32.78 C 268.92 -32.78 269.8 -33.67 269.8 -36.85 L 269.8 -48.54 C 269.8 -50.32 268.32 -51.8 266.55 -51.8 L 225.85 -51.8 C 224.07 -51.8 222.59 -50.32 222.59 -48.54 L 222.59 -36.85 C 222.59 -33.67 223.48 -32.78 224.81 -32.78 C 228.81 -32.78 226.66 -45.14 237.32 -45.14 L 238.06 -45.14 C 239.09 -45.14 239.91 -44.33 239.91 -43.29 L 239.91 -15.47 C 239.91 -5.7 235.69 -7.03 235.69 -3.55 C 235.69 0.15 242.42 0 246.2 0 Z" stroke-linecap="round" />
</g>
</g>
</g>
</svg>